<?xml version="1.0" encoding="UTF-8"?>
<svg id="Layer_1" data-name="Layer 1" xmlns="http://www.w3.org/2000/svg" xmlns:xlink="http://www.w3.org/1999/xlink" viewBox="0 0 83.91 47.73">
  <defs>
    <style>
      .cls-1 {
        fill: url(#New_Gradient_Swatch_2-4);
      }

      .cls-2 {
        fill: url(#New_Gradient_Swatch_2-3);
      }

      .cls-3 {
        fill: url(#New_Gradient_Swatch_2-2);
      }

      .cls-4 {
        fill: #231f20;
      }

      .cls-5 {
        fill: url(#New_Gradient_Swatch_2);
      }
    </style>
    <linearGradient id="New_Gradient_Swatch_2" data-name="New Gradient Swatch 2" x1="30.63" y1="29.06" x2="47.96" y2="8.06" gradientUnits="userSpaceOnUse">
      <stop offset="0" stop-color="#ffc20e"/>
      <stop offset="1" stop-color="#f05d7f"/>
    </linearGradient>
    <linearGradient id="New_Gradient_Swatch_2-2" data-name="New Gradient Swatch 2" x1="30.93" y1="29.3" x2="48.26" y2="8.3" xlink:href="#New_Gradient_Swatch_2"/>
    <linearGradient id="New_Gradient_Swatch_2-3" data-name="New Gradient Swatch 2" x1="29.5" y1="28.13" x2="46.84" y2="7.13" xlink:href="#New_Gradient_Swatch_2"/>
    <linearGradient id="New_Gradient_Swatch_2-4" data-name="New Gradient Swatch 2" x1="30.81" y1="29.2" x2="48.14" y2="8.2" xlink:href="#New_Gradient_Swatch_2"/>
  </defs>
  <g>
    <path class="cls-4" d="M0,47.5l4.04-12.04h2.79l4.01,12.04h-2.53l-.94-3.1H3.36l-.95,3.1H0ZM5.33,37.77l-1.47,4.87h3.04l-1.46-4.87h-.11Z"/>
    <path class="cls-4" d="M20.95,39.32c-.15-1.24-1.04-2.08-2.47-2.08-1.73,0-2.71,1.23-2.71,3.39v1.58c0,2.13.84,3.54,2.78,3.54,1.53,0,2.47-.95,2.47-2.18v-.77h-2.48v-1.77h4.75v2.4c0,2.32-1.69,4.31-4.78,4.31-3.5,0-5.13-2.24-5.13-5.52v-1.6c0-3.24,1.85-5.37,5.12-5.37,2.97,0,4.68,1.84,4.78,4.08h-2.32Z"/>
    <path class="cls-4" d="M34.92,47.5h-7.75v-12.04h7.75v1.95h-5.39v3.09h5.06v1.83h-5.06v3.23h5.39v1.95Z"/>
    <path class="cls-4" d="M38.91,47.5v-12.04h1.98l5.34,8.01h.08v-8.01h2.22v12.04h-1.98l-5.35-8.05h-.07v8.05h-2.22Z"/>
    <path class="cls-4" d="M57.29,35.47c3.66,0,5.39,2.18,5.39,5.99s-1.75,6.05-5.39,6.05h-4.39v-12.04h4.39ZM55.28,45.56h1.69c2,0,3.25-1.01,3.25-4.06,0-2.49-.86-4.08-3.25-4.08h-1.69v8.14Z"/>
    <path class="cls-4" d="M66.42,47.5v-12.04h2.38v12.04h-2.38Z"/>
    <path class="cls-4" d="M72.01,47.5l4.04-12.04h2.8l4.01,12.04h-2.53l-.94-3.1h-4.01l-.95,3.1h-2.41ZM77.34,37.77l-1.47,4.87h3.04l-1.46-4.87h-.11Z"/>
  </g>
  <path class="cls-4" d="M83.91,36.34c0,.54-.41.95-.95.95s-.96-.41-.96-.95.42-.93.96-.93.94.41.94.93ZM82.21,36.34c0,.44.32.78.76.78.42,0,.74-.34.74-.77s-.32-.78-.75-.78-.75.35-.75.77ZM82.79,36.86h-.18v-.98c.1-.02.21-.03.34-.03.16,0,.25.03.31.07.06.04.1.12.1.21,0,.12-.09.19-.19.23h0c.08.05.13.12.16.25.03.15.05.21.07.24h-.19s-.05-.12-.08-.25c-.02-.11-.09-.16-.22-.16h-.12v.41ZM82.79,36.31h.12c.13,0,.25-.04.25-.15,0-.09-.07-.16-.24-.16-.07,0-.11,0-.14.01v.31Z"/>
  <g>
    <path class="cls-5" d="M32.03,29.8c-.55.04-1.09-.33-1.23-.87-.68-2.76-.56-5.71.32-8.31,1.37-4.04,4.77-7.72,9.31-6.84,2.55.5,4.51,2.45,4.64,4.65.13,2.03-1.06,3.76-3.16,6.07-.38.41-1.06.43-1.53.04-.47-.39-.54-1.05-.16-1.46,2.05-2.25,2.75-3.48,2.68-4.68-.08-1.36-1.44-2.33-2.74-2.58-3.79-.75-6.21,3.33-6.97,5.58-.76,2.26-.86,4.82-.28,7.22.14.57-.22,1.09-.81,1.18h-.08Z"/>
    <path class="cls-3" d="M49.01,30.28c-.33.03-.69-.1-.94-.36-.42-.44-.42-1.09.01-1.46,3.07-2.64,4.61-7.04,4.03-11.49-.39-2.93-2.44-6.03-5.35-8.1-3.36-2.38-7.93-2.87-11.91-1.27-3.78,1.52-7.04,4.54-8.95,8.3-.25.49-.9.67-1.44.39-.54-.28-.78-.91-.53-1.41,2.11-4.15,5.74-7.5,9.95-9.2,4.68-1.87,10.08-1.28,14.09,1.55,3.48,2.46,5.83,6.06,6.3,9.63.67,5.07-1.11,10.12-4.66,13.17-.17.15-.38.22-.59.24Z"/>
    <path class="cls-2" d="M57.68,17.17h-.03c-.59.03-1.14-.41-1.22-.98-.57-4.32-3.08-8.34-6.9-11.04-4.68-3.31-10.95-4-16.38-1.83-.54.21-1.19-.04-1.46-.57-.27-.53-.05-1.13.48-1.35,6.12-2.46,13.24-1.65,18.57,2.13,4.34,3.07,7.2,7.65,7.85,12.57.08.56-.33,1.04-.91,1.08Z"/>
    <path class="cls-1" d="M41.44,29.38c-.85.06-1.71-.05-2.55-.35-1.85-.66-3.29-2.3-3.58-4.07-.42-2.56,1.33-5.18,2.96-6.65.42-.39,1.11-.34,1.54.09.43.43.44,1.08.02,1.46-1.34,1.21-2.65,3.27-2.37,4.94.16.98,1.01,1.93,2.05,2.3,1.22.44,2.48.26,3.74-.53,2.63-1.65,4.49-5.44,4.51-7.82.03-2.79-2.11-5.79-4.98-6.98-4.4-1.83-9.1.76-11.6,3.94-1.36,1.73-2.36,3.96-2.9,6.45-.12.55-.7.87-1.28.71-.59-.16-.97-.73-.85-1.28.6-2.77,1.72-5.26,3.25-7.2,3.06-3.89,8.6-6.8,14.12-4.51,3.76,1.56,6.45,5.37,6.42,9.05-.03,2.91-2.1,7.33-5.39,9.4-1,.63-2.04.98-3.09,1.06Z"/>
  </g>
</svg>