<svg id="logo" width="160" height="19" viewBox="0 0 160 19" fill="none" xmlns="http://www.w3.org/2000/svg" class="transition duration-300" style="color: white;">
    <path d="M73.5206 13.6437L60.2313 0.00012207H59.7024V18.5285H60.7272V5.05331L74.0164 18.6969H74.5454V0.168562H73.5206V13.6437Z" fill="currentColor"></path>
    <path d="M44.3633 0.134827L36.2642 18.7306H37.289C39.3055 14.0816 41.322 9.39901 43.3385 4.71639C45.4542 9.39901 47.603 14.0479 49.7518 18.7306H53.2228L44.6939 0.134827H44.3633Z" fill="currentColor"></path>
    <path d="M8.09917 0.134827L0 18.7306H1.02479C3.04132 14.0816 5.05785 9.39901 7.07438 4.75007C9.19008 9.4327 11.3388 14.0816 13.4876 18.7643H16.9587L8.42975 0.134827H8.09917Z" fill="currentColor"></path>
    <path d="M28 14.2838L21.6199 0.337036H18.1157L26.6116 18.9328H26.9422L35.0744 0.337036H34.0165L28 14.2838Z" fill="currentColor"></path>
    <path d="M81.2563 1.2803H87.372V18.7306H90.5456V1.2803H96.6613V0.337036H81.2563V1.2803Z" fill="currentColor"></path>
    <path d="M150.711 0.0673828C145.917 0.0673828 141.421 3.94149 141.421 9.53369C141.421 15.1259 145.95 19 150.711 19C155.471 19 160 15.1259 160 9.53369C160 3.94149 155.471 0.0673828 150.711 0.0673828ZM150.711 18.0567C147.041 18.0567 144.859 15.0585 144.859 9.53369C144.859 4.00887 147.041 1.01064 150.711 1.01064C154.38 1.01064 156.562 4.00887 156.562 9.53369C156.529 15.0585 154.347 18.0567 150.711 18.0567Z" fill="currentColor"></path>
    <path d="M134.81 0.337036H131.603V18.7643H134.81V0.337036Z" fill="currentColor"></path>
    <path d="M118.38 9.29802V9.19696V9.16327C122.016 9.02852 124.033 7.27675 124.033 4.71647C124.033 2.02143 121.785 0.337036 117.95 0.337036H110.975V18.7643H118.116C122.512 18.7643 124.992 16.7431 124.992 13.947C124.992 11.0161 122.711 9.29802 118.38 9.29802ZM114.215 1.24661H116.959C119.405 1.24661 120.892 2.69519 120.892 4.85122C120.892 7.20937 119.57 8.79271 116.992 8.79271H114.215V1.24661ZM116.926 17.8884H114.215V9.70228H117.025C120.198 9.70228 121.818 11.3193 121.818 13.8459C121.818 16.3051 120.066 17.8884 116.926 17.8884Z" fill="currentColor"></path>
</svg>