<?xml version="1.0" encoding="utf-8"?>
<!-- Generator: Adobe Illustrator 27.0.1, SVG Export Plug-In . SVG Version: 6.00 Build 0)  -->
<svg version="1.1" id="Layer_1" xmlns="http://www.w3.org/2000/svg" xmlns:xlink="http://www.w3.org/1999/xlink" x="0px" y="0px"
	 viewBox="0 0 258.14 120.6" style="enable-background:new 0 0 258.14 120.6;" xml:space="preserve">
<style type="text/css">
	.st0{fill:#0099D1;}
	.st1{fill:#E6E6E6;}
	.st2{fill:#8DC63F;}
	.st3{fill:#332A85;}
</style>
<g>
	<g>
		<path id="Path_8_00000181078930409093758060000004984384033370992031_" class="st0" d="M98.76,104.98l-4.63,7.19l-4.63-7.19h-2.85
			v15.2h2.63v-10.86l4.76,7.12h0.09l4.8-7.17v10.9h2.67v-15.2H98.76z"/>
		<path id="Path_9_00000014597180448403382770000017367318046625065406_" class="st0" d="M114.19,104.98v15.2h11.38v-2.39h-8.71
			v-4.08h7.62v-2.39h-7.62v-3.95h8.6v-2.39L114.19,104.98z"/>
		<path id="Path_10_00000053520364120612906490000004421051563048606652_" class="st0" d="M143.08,117.75
			c2.73,0.18,5.09-1.89,5.27-4.62c0.01-0.17,0.01-0.34,0.01-0.5v-0.04c0.1-2.75-2.04-5.07-4.8-5.17c-0.16-0.01-0.32,0-0.48,0.01h-3
			v10.33H143.08z M137.41,104.98h5.67c4.17-0.28,7.78,2.88,8.06,7.06c0.01,0.17,0.02,0.33,0.02,0.5v0.04c0,4.2-3.4,7.61-7.6,7.61
			c-0.16,0-0.32,0-0.47-0.01h-5.67V104.98z"/>
		
			<rect id="Rectangle_3_00000013879614671758944290000015589682363255092111_" x="163.22" y="104.98" class="st0" width="2.67" height="15.2"/>
		<path id="Path_11_00000075136384131008622220000005811288923916116118_" class="st0" d="M177.95,112.62v-0.04
			c-0.09-4.25,3.27-7.77,7.52-7.86c0.11,0,0.21,0,0.32,0c2.23-0.08,4.39,0.78,5.95,2.37l-1.71,1.98c-1.11-1.17-2.64-1.85-4.26-1.89
			c-2.82,0.04-5.06,2.36-5.02,5.18c0,0.06,0,0.12,0.01,0.18v0.04c-0.15,2.83,2.02,5.26,4.86,5.41c0.05,0,0.1,0,0.16,0.01
			c1.67-0.02,3.25-0.74,4.37-1.98l1.71,1.74c-1.55,1.78-3.81,2.77-6.17,2.69c-4.22,0.05-7.68-3.34-7.73-7.56
			C177.95,112.8,177.95,112.72,177.95,112.62"/>
		<path id="Path_12_00000092453364456446238400000003360522786091739049_" class="st0" d="M209.9,108.06l2.63,6.08h-5.23
			L209.9,108.06z M208.71,104.87l-6.69,15.31h2.74l1.56-3.67h7.19l1.54,3.67h2.82l-6.69-15.31H208.71z"/>
		<path id="Path_13_00000092422566541345697430000010348066232869802686_" class="st0" d="M229.15,104.98v15.2h10.66v-2.43h-7.99
			v-12.77H229.15z"/>
	</g>
	<path id="Path_1_00000133505647920025894060000012909942608134428846_" class="st0" d="M11.41,5.86c0,3.15-2.55,5.71-5.71,5.71
		S0,9.01,0,5.86s2.55-5.71,5.71-5.71h0C8.86,0.15,11.41,2.71,11.41,5.86"/>
	<path id="Path_14_00000067217721024132992140000008051593725716026015_" class="st1" d="M71.67,34.52l0.08,0.02L71.67,34.52"/>
	<path id="Path_15_00000023248921109838023850000001484424573021960617_" class="st1" d="M71.57,34.37l0.08,0.02L71.57,34.37"/>
	<path id="Path_16_00000159469588730760443650000004958716470084340641_" class="st1" d="M71.77,34.53l0.08,0.02L71.77,34.53"/>
	<path id="Path_17_00000044172973322655164130000000559800476787659669_" class="st2" d="M69.87,44.81
		c-7.43-0.99-14.74-2.74-21.82-5.22C35.26,43.9,23.38,50.56,13.04,59.23c-2.14,1.95-2.29,5.27-0.33,7.41
		c0.99,1.09,2.4,1.71,3.87,1.71c1.3-0.03,2.55-0.51,3.54-1.37C34.74,55.01,52.4,47.34,71.12,44.8h0.03
		c-0.19,0.03-0.39,0.05-0.59,0.05C70.33,44.86,70.1,44.84,69.87,44.81"/>
	<path id="Path_18_00000119079072498872596790000016010394116160613820_" class="st0" d="M71.77,34.53
		c-0.18-0.05-0.35-0.09-0.53-0.13c-18.72-2.56-36.37-10.24-51.02-22.18c-2.17-1.92-5.49-1.71-7.4,0.46
		c-1.87,2.12-1.72,5.34,0.33,7.28c10.31,8.65,22.15,15.3,34.9,19.61c7.04-2.46,14.31-4.19,21.7-5.18
		C70.43,34.32,71.12,34.36,71.77,34.53"/>
	<path id="Path_19_00000036929871159459138430000015116543560689271169_" class="st3" d="M75.63,38.92
		c-0.27-2.08-1.76-3.8-3.78-4.37l-0.08-0.02c-0.66-0.18-1.34-0.22-2.02-0.13c-7.39,0.99-14.66,2.72-21.7,5.18
		c7.08,2.48,14.39,4.23,21.82,5.22c0.23,0.03,0.46,0.05,0.69,0.05c2.93-0.11,5.21-2.56,5.11-5.49
		C75.66,39.21,75.65,39.07,75.63,38.92"/>
	<path id="Path_20_00000113352147417284996280000017583634371206284194_" class="st3" d="M91.15,39.61c0,3.15-2.55,5.71-5.71,5.71
		c-3.15,0-5.71-2.55-5.71-5.71c0-3.15,2.55-5.71,5.71-5.71l0,0C88.6,33.9,91.15,36.46,91.15,39.61"/>
	<path id="Path_21_00000018929294471640504580000000397624714903516567_" class="st2" d="M11.41,73.34c0,3.15-2.55,5.71-5.71,5.71
		C2.55,79.05,0,76.5,0,73.34c0-3.15,2.55-5.71,5.71-5.71h0C8.86,67.64,11.41,70.19,11.41,73.34"/>
	<g>
		<path id="Path_2_00000092431798688811191470000009917295475698184636_" class="st3" d="M61.03,71.69c-3.89,0-7.12,1.94-7.12,5.92
			c0,3.77,2.85,5.5,7.06,5.5c4.65,0,7.06-2.1,7.06-5.6C68.04,73.47,64.76,71.69,61.03,71.69 M57.09,94.48c0,0-4,1.21-4,4.82
			c0,2.46,1.86,4.4,7.89,4.4c6.24,0,10.13-2.09,10.13-5.29c0-2.93-3.23-3.4-7.28-3.61L57.09,94.48z M71.06,72.38
			c1.29,1.49,1.98,3.42,1.92,5.39c0,5.13-4.16,8.96-11.94,8.96c-1.18,0-2.35-0.08-3.51-0.26c-1.03,0.2-1.81,1.05-1.92,2.1
			c0,0.73,0.49,1.46,2.79,1.57l6.9,0.37c5.2,0.26,10.73,1.52,10.73,7.23c0,5.03-4.22,9.69-15.39,9.69c-8,0-12.59-2.41-12.59-7.23
			c0.09-3.07,2.11-5.76,5.04-6.7c-1.4-0.8-2.27-2.27-2.3-3.88c0.07-1.95,1.27-3.69,3.07-4.45c-2.99-1.39-4.87-4.41-4.82-7.7
			c0-6.02,5.26-9.38,12.11-9.38c2.35-0.04,4.68,0.41,6.84,1.32c0,0-0.1-0.01,4.35-0.82c1.12-0.25,2.26-0.43,3.4-0.54v4.35
			L71.06,72.38z"/>
		<path id="Path_3_00000162347473169877401670000001722822726488294590_" class="st3" d="M99.69,79.24c0-4.71-2.3-7.33-6.9-7.33
			c-4.27,0-7.34,2.3-7.83,7.86h14.73L99.69,79.24z M103.42,94.79c-3.08,1.32-6.4,1.98-9.75,1.94c-9.8,0-13.91-5.6-13.91-13.98
			c0-8.85,4.6-14.66,13.25-14.66c7.89,0,11.67,4.82,11.67,11.41c-0.01,1.3-0.13,2.6-0.38,3.87H84.9c0.11,7.12,3.89,9.43,9.47,9.43
			c2.8,0.03,5.57-0.56,8.11-1.73L103.42,94.79z"/>
		<path id="Path_4_00000121238404701361048570000011356841258277749376_" class="st3" d="M114.96,68.61l0.6,3.25
			c2.81-2.45,6.41-3.79,10.13-3.77c6.57,0,9.86,3.93,9.86,10.06V96.2h-5.15V78.4c0-3.82-1.64-6.28-5.81-6.28
			c-3.23,0.13-6.31,1.39-8.71,3.56V96.2h-5.1v-27.6H114.96z"/>
		<path id="Path_5_00000074423586418740349480000014445010115999560834_" class="st3" d="M163.26,82.43
			c0-6.91-3.28-10.37-8.54-10.37c-5.26,0-8.54,3.46-8.54,10.37c0,6.86,3.29,10.32,8.54,10.32
			C159.97,92.75,163.26,89.29,163.26,82.43 M141.08,82.33c0-8.59,4.82-14.24,13.64-14.24c8.82,0,13.63,5.55,13.63,14.24
			c0,8.75-4.82,14.4-13.63,14.4C145.9,96.73,141.08,91.12,141.08,82.33"/>
		<path id="Path_6_00000083779138000113251950000000704204739673153189_" class="st3" d="M178.36,68.61l0.6,3.25
			c2.39-2.55,5.77-3.93,9.26-3.77c4,0,6.79,1.46,8.32,4.03c2.86-2.6,6.59-4.04,10.46-4.03c6.57,0,9.64,3.93,9.64,10.06V96.2h-5.16
			V78.4c0-3.82-1.42-6.28-5.59-6.28c-3.07,0.06-6,1.32-8.16,3.51c0.16,0.83,0.23,1.67,0.22,2.51v18.07h-5.14V78.4
			c0-3.82-1.53-6.28-5.69-6.28c-3,0.01-5.85,1.31-7.83,3.56V96.2h-5.09v-27.6H178.36z"/>
		<path id="Path_7_00000042722719997940125820000001838769407480929694_" class="st3" d="M242.1,79.24c0-4.71-2.3-7.33-6.9-7.33
			c-4.27,0-7.34,2.3-7.83,7.86h14.73V79.24z M245.82,94.79c-3.08,1.32-6.4,1.98-9.75,1.94c-9.8,0-13.91-5.6-13.91-13.98
			c0-8.85,4.6-14.66,13.25-14.66c7.89,0,11.67,4.82,11.67,11.41c-0.01,1.3-0.13,2.6-0.38,3.87h-19.39c0.11,7.12,3.89,9.43,9.47,9.43
			c2.8,0.03,5.57-0.56,8.11-1.73L245.82,94.79z"/>
		<path id="Path_3639_00000174591075065429163430000014127695010084434342_" class="st3" d="M253.79,68.08
			c0.58-0.01,1.16,0.12,1.68,0.39c0.47,0.25,0.86,0.64,1.12,1.11c0.27,0.51,0.41,1.08,0.4,1.66c0.01,0.58-0.12,1.15-0.4,1.67
			c-0.26,0.47-0.64,0.86-1.12,1.11c-0.52,0.27-1.1,0.4-1.68,0.39c-0.58,0.01-1.16-0.12-1.68-0.39c-0.47-0.25-0.86-0.64-1.12-1.11
			c-0.27-0.51-0.41-1.09-0.4-1.67c-0.01-0.58,0.12-1.15,0.4-1.66c0.26-0.47,0.64-0.86,1.12-1.11
			C252.62,68.2,253.2,68.07,253.79,68.08z M253.79,73.75c0.46,0.01,0.91-0.1,1.31-0.31c0.37-0.2,0.67-0.51,0.87-0.88
			c0.21-0.41,0.31-0.86,0.3-1.32c0.01-0.46-0.09-0.91-0.3-1.32c-0.19-0.37-0.5-0.68-0.87-0.88c-0.4-0.21-0.85-0.32-1.31-0.31
			c-0.46-0.01-0.91,0.1-1.31,0.31c-0.37,0.2-0.67,0.51-0.87,0.88c-0.21,0.41-0.32,0.86-0.31,1.32c-0.01,0.46,0.1,0.91,0.31,1.32
			c0.2,0.37,0.5,0.68,0.87,0.88C252.88,73.66,253.33,73.76,253.79,73.75z M255.31,70.64c0.01,0.24-0.07,0.47-0.21,0.66
			c-0.15,0.19-0.36,0.32-0.6,0.37l0.88,1.28h-0.83l-0.75-1.22h-0.52v1.22h-0.72v-3.43h1.48c0.33-0.02,0.66,0.09,0.92,0.3
			C255.19,70.04,255.32,70.33,255.31,70.64z M253.27,71.22h0.69c0.42,0,0.62-0.19,0.62-0.56c0-0.37-0.21-0.56-0.63-0.56h-0.69
			L253.27,71.22z"/>
	</g>
</g>
</svg>
