<svg id="Layer_2" data-name="Layer 2" xmlns="http://www.w3.org/2000/svg" width="170.985" height="62.495" viewBox="0 0 170.985 62.495">
  <g id="Group_11667" data-name="Group 11667" transform="translate(0 0)">
    <g id="Group_11623" data-name="Group 11623" transform="translate(0 22.663)">
      <path id="Path_15471" data-name="Path 15471" d="M12.8,23.4h4.6V46.305c0,5.8-3.585,9.253-8.7,9.253A8.683,8.683,0,0,1,0,48.65H4.738a3.8,3.8,0,0,0,4.011,2.684c2.606,0,4.05-2.006,4.05-4.9V23.4h0Z" transform="translate(0 -23.39)" fill="#1d201f"/>
      <path id="Path_15472" data-name="Path 15472" d="M38.288,55.222V52.664H38.2c-1.153,2.006-3.837,3.159-6.957,3.159-5.077,0-9.854-2.732-9.854-11.046V31.59h4.438V44.428c0,4.951,1.831,7.335,5.881,7.335s6.182-2.858,6.182-7.422V31.59h4.438V55.222h-4.04Z" transform="translate(-0.665 -23.645)" fill="#1d201f"/>
      <path id="Path_15473" data-name="Path 15473" d="M66.655,54.967V51.6h-.087a10.043,10.043,0,0,1-8.362,3.963A12.021,12.021,0,0,1,45.92,43.4c0-6.957,5.116-12.712,12.16-12.712a10.26,10.26,0,0,1,8.149,3.537h.087V23.39h4.438V54.957h-4.1ZM58.419,34.746a8.389,8.389,0,0,0-.048,16.762h.048a8.274,8.274,0,0,0,8.236-8.149c0-4.825-3.246-8.614-8.236-8.614h0Z" transform="translate(-1.427 -23.39)" fill="#1d201f"/>
      <path id="Path_15474" data-name="Path 15474" d="M80.069,63.109l3.459-8.362L74.1,31.58h4.777l6.957,18.342L92.955,31.58h4.777L84.681,63.109Z" transform="translate(-2.303 -23.645)" fill="#1d201f"/>
    </g>
    <path id="Path_15475" data-name="Path 15475" d="M125.166,39.492a4.8,4.8,0,1,1,4.8-4.8h0a4.8,4.8,0,0,1-4.8,4.8" transform="translate(-3.741 -0.929)" fill="#086a5e"/>
    <path id="Path_15476" data-name="Path 15476" d="M100.062,4.8a4.8,4.8,0,1,0-4.8,4.8,4.8,4.8,0,0,0,4.8-4.8h0" transform="translate(-2.812 0)" fill="#086a5e"/>
    <path id="Path_15477" data-name="Path 15477" d="M124.7,0a4.8,4.8,0,0,0-4.8,4.8h0a9.693,9.693,0,0,1-9.689,9.689h0a4.8,4.8,0,1,0,4.8,4.8A9.693,9.693,0,0,1,124.7,9.592h0A4.8,4.8,0,0,0,124.7,0" transform="translate(-3.277 0)" fill="#086a5e"/>
    <path id="Path_15478" data-name="Path 15478" d="M124.7,14.95a4.8,4.8,0,0,0-4.8,4.8h0a9.693,9.693,0,0,1-9.689,9.689h0a4.8,4.8,0,1,0,4.8,4.8,9.693,9.693,0,0,1,9.689-9.689h0a4.8,4.8,0,0,0,0-9.592" transform="translate(-3.277 -0.465)" fill="#086a5e"/>
    <path id="Path_15479" data-name="Path 15479" d="M109.751,0a4.8,4.8,0,0,0-4.8,4.8h0a9.693,9.693,0,0,1-9.689,9.689,4.8,4.8,0,1,0,4.8,4.8,9.693,9.693,0,0,1,9.689-9.689h0a4.8,4.8,0,0,0,0-9.592" transform="translate(-2.812 0)" fill="#086a5e"/>
    <path id="Path_15480" data-name="Path 15480" d="M104.034,28.154a1.8,1.8,0,1,1-1.851-1.754h.048a1.762,1.762,0,0,1,1.793,1.725v.029Zm-3.149,0a1.361,1.361,0,0,0,1.318,1.4h.048a1.336,1.336,0,0,0,1.337-1.318v-.068a1.348,1.348,0,1,0-2.694-.1v.087Zm1.076.92h-.407V27.32a3.9,3.9,0,0,1,.669-.058,1.1,1.1,0,0,1,.61.126.488.488,0,0,1,.174.388.454.454,0,0,1-.358.407V28.2a.512.512,0,0,1,.32.426,1.332,1.332,0,0,0,.126.436h-.436a1.368,1.368,0,0,1-.136-.426c-.029-.194-.136-.281-.368-.281h-.194v.707h0Zm.01-.988h.194c.223,0,.407-.078.407-.252s-.116-.271-.378-.271a.831.831,0,0,0-.223.019v.5Z" transform="translate(-3.121 -0.821)" fill="#086a5e"/>
    <g id="Group_11666" data-name="Group 11666" transform="translate(100.089 43.175)">
      <path id="Path_21516" data-name="Path 21516" d="M103.775,56.9a6.551,6.551,0,0,0,3.323.94c1.9,0,3-1,3-2.451,0-1.347-.765-2.112-2.7-2.858-2.345-.833-3.8-2.044-3.8-4.069,0-2.238,1.851-3.9,4.651-3.9a6.459,6.459,0,0,1,3.178.707l-.514,1.512a5.753,5.753,0,0,0-2.732-.678c-1.957,0-2.7,1.172-2.7,2.151,0,1.347.872,2.006,2.858,2.771,2.432.94,3.663,2.112,3.663,4.224,0,2.219-1.637,4.137-5.029,4.137a7.449,7.449,0,0,1-3.672-.92l.465-1.56Z" transform="translate(-103.3 -44.56)" fill="#1d201f"/>
      <path id="Path_21517" data-name="Path 21517" d="M115.993,54.476a3.307,3.307,0,0,0,3.537,3.585,6.763,6.763,0,0,0,2.858-.533l.32,1.347a8.321,8.321,0,0,1-3.43.639c-3.178,0-5.077-2.093-5.077-5.2s1.831-5.562,4.845-5.562c3.372,0,4.263,2.965,4.263,4.864a5.65,5.65,0,0,1-.068.872h-7.248Zm5.5-1.347c.019-1.192-.494-3.052-2.6-3.052-1.9,0-2.732,1.744-2.878,3.052H121.5Z" transform="translate(-103.639 -44.69)" fill="#1d201f"/>
      <path id="Path_21518" data-name="Path 21518" d="M133.32,58.915a6.982,6.982,0,0,1-2.965.6,4.9,4.9,0,0,1-5.135-5.261,5.251,5.251,0,0,1,5.542-5.474,6.3,6.3,0,0,1,2.6.533l-.426,1.453a4.395,4.395,0,0,0-2.18-.494c-2.364,0-3.643,1.744-3.643,3.9a3.536,3.536,0,0,0,3.585,3.856A5.374,5.374,0,0,0,133,57.52l.32,1.4h0Z" transform="translate(-103.981 -44.691)" fill="#1d201f"/>
      <path id="Path_21519" data-name="Path 21519" d="M144.481,56.489c0,1.066.019,2.006.087,2.81H142.9l-.107-1.686h-.039a3.886,3.886,0,0,1-3.411,1.918c-1.618,0-3.556-.891-3.556-4.525V48.97h1.88v5.717c0,1.957.6,3.285,2.306,3.285a2.7,2.7,0,0,0,2.471-1.705,2.768,2.768,0,0,0,.174-.959V48.97h1.88v7.509h-.019Z" transform="translate(-104.31 -44.697)" fill="#1d201f"/>
      <path id="Path_21520" data-name="Path 21520" d="M147.967,52.2c0-1.211-.019-2.258-.087-3.217h1.637l.068,2.025h.087a3.09,3.09,0,0,1,2.858-2.258,1.78,1.78,0,0,1,.533.068v1.773a3.082,3.082,0,0,0-.639-.068,2.639,2.639,0,0,0-2.519,2.413,5.642,5.642,0,0,0-.087.872v5.5h-1.851v-7.1h0Z" transform="translate(-104.686 -44.69)" fill="#1d201f"/>
      <path id="Path_21521" data-name="Path 21521" d="M157.335,45.962a1.109,1.109,0,0,1-1.192,1.153,1.121,1.121,0,0,1-1.134-1.153,1.158,1.158,0,0,1,1.172-1.172,1.13,1.13,0,0,1,1.153,1.172h0Zm-2.093,13.216V48.859h1.88V59.178Z" transform="translate(-104.907 -44.567)" fill="#1d201f"/>
      <path id="Path_21522" data-name="Path 21522" d="M162.62,45.93v2.965H165.3v1.424H162.62v5.562c0,1.279.358,2.006,1.4,2.006a4.406,4.406,0,0,0,1.085-.126l.087,1.4a4.694,4.694,0,0,1-1.667.252,2.624,2.624,0,0,1-2.025-.785,3.819,3.819,0,0,1-.727-2.684V50.319h-1.6V48.895h1.6V46.424l1.831-.494Z" transform="translate(-105.037 -44.603)" fill="#1d201f"/>
      <path id="Path_21523" data-name="Path 21523" d="M168.514,48.99l2.258,6.095c.233.678.494,1.492.659,2.112h.039c.194-.62.407-1.4.659-2.151l2.044-6.056h1.986l-2.81,7.354c-1.347,3.537-2.258,5.348-3.537,6.463a4.948,4.948,0,0,1-2.306,1.211l-.465-1.579a4.815,4.815,0,0,0,1.637-.92,5.7,5.7,0,0,0,1.579-2.093,1.282,1.282,0,0,0,.145-.446,1.624,1.624,0,0,0-.126-.494L166.46,48.98h2.054Z" transform="translate(-105.263 -44.697)" fill="#1d201f"/>
    </g>
  </g>
</svg>
