<svg width="97" height="41" viewBox="0 0 97 41" fill="none" xmlns="http://www.w3.org/2000/svg">
    <g clip-path="url(#qhhniwy77a)" fill="#fff">
        <path d="M38.824 23.604H35.57v12.01h3.255v-12.01zM45.25 35.99c-.85 0-1.686-.105-2.512-.317-.826-.213-1.484-.493-1.97-.838l.4-2.479c.551.38 1.18.674 1.889.886.706.212 1.383.32 2.029.32 1.415 0 2.122-.411 2.122-1.228 0-.251-.058-.46-.177-.627-.118-.164-.342-.32-.672-.471-.33-.15-.81-.31-1.44-.482-1.43-.41-2.444-.905-3.043-1.488-.597-.582-.895-1.36-.895-2.335 0-1.163.431-2.071 1.297-2.726.865-.652 2.052-.978 3.562-.978.74 0 1.478.091 2.218.272.739.18 1.352.405 1.84.671l-.402 2.43a7.05 7.05 0 0 0-1.744-.708 7.176 7.176 0 0 0-1.77-.235c-1.228 0-1.841.377-1.841 1.131 0 .348.15.63.448.851.299.22.874.456 1.723.707 1.494.426 2.56.936 3.197 1.534.636.598.956 1.4.956 2.406 0 1.15-.465 2.054-1.393 2.713-.928.661-2.203.991-3.821.991zM52.236 35.613v-12.01h3.137l.023 2.384c.284-.833.711-1.475 1.285-1.922.575-.449 1.247-.674 2.019-.674.25 0 .506.025.766.073.26.045.468.108.624.187l-.282 3.092a5.253 5.253 0 0 0-.731-.214 3.69 3.69 0 0 0-.78-.093c-.895 0-1.588.317-2.075.956-.488.636-.732 1.552-.732 2.748v5.473h-3.254zM67.25 35.99c-1.778 0-3.142-.463-4.093-1.39-.952-.93-1.427-2.25-1.427-3.966v-7.03h3.28v6.96c0 1.684.753 2.524 2.263 2.524 1.495 0 2.242-.84 2.242-2.524v-6.96h3.279v7.03c0 1.715-.479 3.036-1.438 3.965-.96.928-2.33 1.391-4.105 1.391zM33.011 0v16.152l-10.043 4.989V3.434C26.09 1.555 29.248 0 33.011 0zM21.467 4.346v11.715l-9.961 4.919V9.578c2.754-.88 5.053-2.18 8.665-4.422l1.296-.81zM9.978 16.099 0 21.012V11.35s6.534-.513 9.967-1.333l.01 6.083zM0 35.613v-12.01h3.137l.048 1.723c.314-.66.79-1.175 1.427-1.545.637-.368 1.38-.554 2.23-.554 1.791 0 3.019.763 3.68 2.288a3.73 3.73 0 0 1 1.545-1.674c.7-.409 1.49-.614 2.371-.614 1.4 0 2.47.436 3.21 1.31.737.871 1.108 2.134 1.108 3.786v7.29h-3.257v-6.676c0-1.873-.716-2.808-2.147-2.808-.74 0-1.316.263-1.734.79-.415.527-.624 1.27-.624 2.23v6.464H7.737v-6.7c0-1.856-.7-2.784-2.099-2.784-.772 0-1.36.26-1.77.779-.408.519-.613 1.257-.613 2.216v6.49H0zM29.74 25.256a4.091 4.091 0 0 0-1.604-1.51 4.603 4.603 0 0 0-2.17-.519c-1.07 0-2.034.282-2.89.849-.857.566-1.538 1.332-2.04 2.3-.504.968-.757 2.057-.757 3.268 0 1.227.237 2.32.709 3.28.471.958 1.12 1.71 1.947 2.252.825.544 1.772.814 2.842.814.912 0 1.713-.188 2.406-.567a4.36 4.36 0 0 0 1.675-1.627l.047 1.817h3.115l-.012-16.542-3.279 1.46.012 4.725zm-.706 6.84c-.598.646-1.361.97-2.289.97-.93 0-1.692-.324-2.288-.97-.598-.643-.898-1.469-.898-2.475 0-1.023.3-1.856.898-2.5.596-.646 1.359-.969 2.288-.969.928 0 1.69.323 2.289.968.596.645.896 1.478.896 2.5 0 1.007-.3 1.833-.896 2.477zM87.256 26.282c-.472-.95-1.126-1.698-1.959-2.242-.833-.541-1.785-.813-2.855-.813-.912 0-1.718.196-2.418.59a4.5 4.5 0 0 0-1.687 1.676l-.047-1.889h-3.066v16.53h3.255v-6.148c.865 1.336 2.131 2.004 3.799 2.004 1.07 0 2.032-.282 2.89-.849.857-.566 1.537-1.332 2.04-2.3.504-.967.755-2.056.755-3.267 0-1.242-.235-2.34-.707-3.292zm-3.469 5.815c-.598.646-1.36.968-2.288.968-.944 0-1.715-.322-2.311-.968-.599-.644-.898-1.47-.898-2.476 0-1.023.3-1.855.898-2.5.596-.646 1.367-.969 2.311-.969.928 0 1.69.323 2.288.968.598.645.897 1.478.897 2.5 0 1.007-.299 1.833-.897 2.477zM90.725 20.672v2.932h-2.358v2.665h2.358v9.344h3.257v-9.344h2.855v-2.665h-2.855v-3.609l-3.257.677z"/>
    </g>
    <defs>
        <clipPath id="qhhniwy77a">
            <path fill="#fff" d="M0 0h97v40.172H0z"/>
        </clipPath>
    </defs>
</svg>
