<?xml version="1.0" encoding="UTF-8"?>
<svg xmlns="http://www.w3.org/2000/svg" width="165" height="27" viewBox="0 0 165 27" fill="none">
  <path d="M20.5302 27C19.1776 27 17.9218 26.4584 16.9997 25.4799L14.4882 22.9525C13.9392 22.4001 13.9392 21.5083 14.4882 20.9559C15.0371 20.4035 15.9233 20.4035 16.4687 20.9559L18.9946 23.4977C18.9946 23.4977 19.0161 23.5194 19.0233 23.5302C19.4144 23.949 19.949 24.1801 20.5266 24.1801C21.6711 24.1801 22.604 23.2414 22.604 22.0896V4.91401C22.604 3.76224 21.6711 2.82348 20.5266 2.82348C19.949 2.82348 19.4144 3.05456 19.0161 3.477C19.0053 3.48783 18.9982 3.49505 18.9874 3.50588L16.44 6.07301C15.8911 6.62543 15.0048 6.62543 14.4559 6.07301C13.9105 5.5242 13.9105 4.62878 14.4559 4.07636L16.9925 1.52367C17.911 0.556031 19.1955 0 20.523 0C23.2139 0 25.4061 2.20246 25.4061 4.91401V22.086C25.4061 24.7939 23.2175 27 20.523 27H20.5302Z" fill="#84C2CF"></path>
  <path d="M4.87953 27C2.18861 27 0 24.7975 0 22.086V4.91401C0 2.20246 2.18861 0 4.87953 0C6.23576 0 7.48793 0.541589 8.41361 1.52367L19.4715 12.6515C20.0204 13.2039 20.0204 14.0957 19.4715 14.6446C18.9225 15.197 18.0363 15.197 17.491 14.6446L6.41515 3.50227C6.41515 3.50227 6.39362 3.48061 6.38645 3.46978C5.99537 3.05095 5.46077 2.81987 4.87953 2.81987C3.735 2.81987 2.80214 3.75863 2.80214 4.9104V22.086C2.80214 23.2414 3.735 24.1765 4.87953 24.1765C5.45718 24.1765 5.99178 23.9454 6.39004 23.523L10.6632 19.1036L5.94155 14.3521C5.3926 13.7997 5.3926 12.9079 5.94155 12.3591C6.4905 11.8066 7.37671 11.8066 7.92565 12.3591L13.6268 18.0963C14.1686 18.6415 14.1758 19.5261 13.6412 20.0785L8.4172 25.4836C7.51305 26.4476 6.22141 27.0072 4.88312 27.0072L4.87953 27Z" fill="#84C2CF"></path>
  <path d="M32.8361 18.067C32.3303 18.067 32.0791 17.8034 32.0791 17.2799V9.71931C32.0791 9.45574 32.1437 9.25716 32.2728 9.11635C32.402 8.97553 32.5742 8.90693 32.7859 8.90693C32.9797 8.90693 33.1232 8.94304 33.22 9.01525C33.3169 9.08746 33.4317 9.20661 33.5681 9.37631L38.0745 15.258V9.6796C38.0745 9.16328 38.3256 8.90332 38.8315 8.90332C39.3374 8.90332 39.5778 9.16328 39.5778 9.6796V17.3016C39.5778 17.5399 39.5168 17.724 39.402 17.8612C39.2836 17.9984 39.1257 18.0634 38.9212 18.0634C38.7167 18.0634 38.5732 18.0237 38.4584 17.9479C38.3436 17.872 38.2216 17.7493 38.0852 17.5796L33.5788 11.6835V17.2727C33.5788 17.7962 33.3313 18.0598 32.8326 18.0598L32.8361 18.067Z" fill="#302B57"></path>
  <path d="M45.853 18.0923C44.6331 18.0923 43.7003 17.7745 43.058 17.1319C42.4122 16.4928 42.0929 15.5468 42.0929 14.2903V9.73015C42.0929 9.17773 42.362 8.90332 42.9002 8.90332C43.4384 8.90332 43.7074 9.17773 43.7074 9.73015V14.2795C43.7074 15.0847 43.8904 15.6876 44.2564 16.092C44.6224 16.4928 45.1534 16.695 45.853 16.695C47.2738 16.695 47.9878 15.8898 47.9878 14.2795V9.73015C47.9878 9.17773 48.2569 8.90332 48.7951 8.90332C49.3333 8.90332 49.5916 9.17773 49.5916 9.73015V14.2903C49.5916 15.5432 49.2759 16.4892 48.6444 17.1319C48.0129 17.7709 47.0837 18.0923 45.853 18.0923Z" fill="#302B57"></path>
  <path d="M52.9108 18.0668C52.3726 18.0668 52.1035 17.7888 52.1035 17.2291V9.83464C52.1035 9.28583 52.3762 9.00781 52.9251 9.00781H55.9677C56.9436 9.00781 57.697 9.2425 58.228 9.71188C58.7591 10.1813 59.0246 10.842 59.0246 11.6869C59.0246 12.3548 58.8523 12.9073 58.5079 13.3441C58.1635 13.781 57.6647 14.0735 57.0189 14.2287C57.4495 14.3659 57.8011 14.6909 58.0809 15.2072L59.0281 16.9728C59.1717 17.2436 59.1968 17.4927 59.1107 17.7238C59.021 17.9512 58.8057 18.0668 58.4613 18.0668C58.2352 18.0668 58.0487 18.0162 57.9051 17.9224C57.7616 17.8249 57.636 17.6732 57.5248 17.471L56.2511 15.1097C56.1004 14.8209 55.921 14.6295 55.7129 14.532C55.5084 14.4345 55.2429 14.384 54.9236 14.384H53.7252V17.2291C53.7252 17.7888 53.4562 18.0668 52.918 18.0668H52.9108ZM53.7181 13.1744H55.6878C56.8647 13.1744 57.4567 12.6906 57.4567 11.7266C57.4567 10.7626 56.8682 10.2896 55.6878 10.2896H53.7181V13.1744Z" fill="#302B57"></path>
  <path d="M64.0974 18.0675C63.5592 18.0675 63.2902 17.7895 63.2902 17.2298V10.3661H60.8289C60.366 10.3661 60.1328 10.1386 60.1328 9.68006C60.1328 9.22152 60.3624 9.00488 60.8289 9.00488H67.3696C67.8324 9.00488 68.0656 9.22874 68.0656 9.68006C68.0656 10.1314 67.836 10.3661 67.3696 10.3661H64.9083V17.2262C64.9083 17.7858 64.6392 18.0639 64.101 18.0639L64.0974 18.0675Z" fill="#302B57"></path>
  <path d="M73.3148 18.0923C72.0949 18.0923 71.1621 17.7745 70.5198 17.1319C69.8776 16.4928 69.5547 15.5468 69.5547 14.2903V9.73015C69.5547 9.17773 69.8238 8.90332 70.362 8.90332C70.9001 8.90332 71.1692 9.17773 71.1692 9.73015V14.2795C71.1692 15.0847 71.3522 15.6876 71.7182 16.092C72.0842 16.4928 72.6152 16.695 73.3148 16.695C74.7356 16.695 75.4496 15.8898 75.4496 14.2795V9.73015C75.4496 9.17773 75.7187 8.90332 76.2569 8.90332C76.7951 8.90332 77.0534 9.17773 77.0534 9.73015V14.2903C77.0534 15.5432 76.7376 16.4892 76.1062 17.1319C75.4747 17.7709 74.5454 18.0923 73.3148 18.0923Z" fill="#302B57"></path>
  <path d="M80.3717 18.0668C79.8335 18.0668 79.5645 17.7888 79.5645 17.2291V9.83464C79.5645 9.28583 79.8371 9.00781 80.3861 9.00781H83.4286C84.4045 9.00781 85.158 9.2425 85.689 9.71188C86.22 10.1813 86.4855 10.842 86.4855 11.6869C86.4855 12.3548 86.3133 12.9073 85.9688 13.3441C85.6244 13.781 85.1293 14.0735 84.4799 14.2287C84.9104 14.3659 85.262 14.6909 85.5419 15.2072L86.4891 16.9728C86.6326 17.2436 86.6613 17.4927 86.5716 17.7238C86.4819 17.9512 86.2666 18.0668 85.9222 18.0668C85.6962 18.0668 85.5096 18.0162 85.3661 17.9224C85.2226 17.8249 85.097 17.6732 84.9858 17.471L83.7121 15.1097C83.5614 14.8209 83.382 14.6295 83.1739 14.532C82.9658 14.4345 82.7039 14.384 82.3845 14.384H81.1862V17.2291C81.1862 17.7888 80.9171 18.0668 80.3789 18.0668H80.3717ZM81.179 13.1744H83.1488C84.3256 13.1744 84.9176 12.6906 84.9176 11.7266C84.9176 10.7626 84.3292 10.2896 83.1488 10.2896H81.179V13.1744Z" fill="#302B57"></path>
  <path d="M89.715 17.9659C89.1446 17.9659 88.8575 17.6771 88.8575 17.103V9.87099C88.8575 9.29329 89.1446 9.00806 89.715 9.00806H94.2214C94.6592 9.00806 94.878 9.22108 94.878 9.64352C94.878 10.066 94.6592 10.3043 94.2214 10.3043H90.4075V12.7703H93.9416C94.3793 12.7703 94.5982 12.9869 94.5982 13.4166C94.5982 13.8462 94.3793 14.0629 93.9416 14.0629H90.4075V16.6661H94.2214C94.6592 16.6661 94.878 16.8828 94.878 17.3124C94.878 17.7421 94.6592 17.9587 94.2214 17.9587H89.715V17.9659Z" fill="#302B57"></path>
  <path d="M101.164 18.0673C99.7574 18.0673 98.6882 17.6665 97.9563 16.8614C97.2244 16.0562 96.8584 14.9297 96.8584 13.4818C96.8584 12.5431 97.0199 11.7271 97.3428 11.0411C97.6657 10.3551 98.1357 9.82793 98.7456 9.45965C99.3556 9.09137 100.095 8.90723 100.963 8.90723C101.519 8.90723 102.05 8.98666 102.556 9.14914C103.062 9.31161 103.503 9.56435 103.88 9.91097C103.998 10.0121 104.045 10.1276 104.02 10.2612C103.995 10.3912 103.93 10.4923 103.826 10.5609C103.722 10.6295 103.6 10.6114 103.467 10.5103C103.123 10.1962 102.739 9.97235 102.319 9.83515C101.899 9.69795 101.444 9.63296 100.956 9.63296C99.9045 9.63296 99.0937 9.96874 98.5304 10.6439C97.9671 11.3191 97.6836 12.2651 97.6836 13.4818C97.6836 14.6986 97.9742 15.706 98.5626 16.3667C99.1475 17.0274 100.019 17.356 101.182 17.356C101.971 17.356 102.71 17.2188 103.392 16.948V14.0379H101.397C101.153 14.0379 101.031 13.9223 101.031 13.6949C101.031 13.4818 101.153 13.3771 101.397 13.3771H103.733C103.97 13.3771 104.084 13.4963 104.084 13.731V17.1502C104.084 17.3524 104.016 17.4896 103.883 17.5582C103.546 17.7026 103.126 17.8218 102.628 17.9193C102.125 18.0167 101.641 18.0637 101.171 18.0637L101.164 18.0673Z" fill="#302B57"></path>
  <path d="M107.389 17.9657C107.102 17.9657 106.958 17.8177 106.958 17.5216V9.45192C106.958 9.15585 107.102 9.00781 107.389 9.00781H112.16C112.397 9.00781 112.516 9.11613 112.516 9.33999C112.516 9.56384 112.397 9.68299 112.16 9.68299H107.715V13.0878H111.906C112.143 13.0878 112.261 13.1997 112.261 13.4163C112.261 13.633 112.143 13.7594 111.906 13.7594H107.715V17.2905H112.16C112.397 17.2905 112.516 17.4024 112.516 17.6227C112.516 17.8429 112.397 17.9657 112.16 17.9657H107.389Z" fill="#302B57"></path>
  <path d="M115.228 18.0418C114.984 18.0418 114.862 17.9119 114.862 17.6483V9.33671C114.862 9.06591 114.97 8.92871 115.189 8.92871C115.289 8.92871 115.368 8.94676 115.422 8.97926C115.476 9.01175 115.533 9.07675 115.591 9.17062L121.109 16.6409V9.31143C121.109 9.05869 121.231 8.92871 121.475 8.92871C121.719 8.92871 121.83 9.05508 121.83 9.31143V17.6447C121.83 17.9083 121.722 18.0382 121.514 18.0382C121.353 18.0382 121.216 17.9588 121.098 17.7963L115.58 10.3116V17.6411C115.58 17.9046 115.461 18.0346 115.228 18.0346V18.0418Z" fill="#302B57"></path>
  <path d="M128.41 18.067C127.592 18.067 126.889 17.8793 126.297 17.5074C125.705 17.1355 125.246 16.6047 124.919 15.9187C124.596 15.2327 124.431 14.4203 124.431 13.4779C124.431 12.5356 124.593 11.7232 124.912 11.0372C125.231 10.3512 125.691 9.82402 126.29 9.45574C126.889 9.08746 127.592 8.90332 128.41 8.90332C129.228 8.90332 129.946 9.08746 130.538 9.45574C131.134 9.82402 131.589 10.3476 131.916 11.03C132.239 11.7124 132.404 12.5211 132.404 13.4635C132.404 14.4059 132.242 15.2291 131.916 15.9151C131.593 16.6011 131.13 17.1319 130.534 17.5037C129.939 17.8756 129.232 18.0634 128.414 18.0634L128.41 18.067ZM128.41 17.3557C129.411 17.3557 130.19 17.0163 130.746 16.3375C131.302 15.6587 131.578 14.7055 131.578 13.4779C131.578 12.2503 131.302 11.3008 130.75 10.6256C130.197 9.95039 129.419 9.61461 128.407 9.61461C127.395 9.61461 126.627 9.954 126.078 10.6292C125.526 11.308 125.253 12.2539 125.253 13.4743C125.253 14.6947 125.529 15.6443 126.078 16.3267C126.631 17.0091 127.406 17.3485 128.407 17.3485L128.41 17.3557Z" fill="#302B57"></path>
  <path d="M135.382 18.0418C135.145 18.0418 135.026 17.9155 135.026 17.6591V9.31143C135.026 9.05869 135.141 8.92871 135.367 8.92871C135.475 8.92871 135.561 8.95037 135.618 8.99009C135.676 9.03342 135.733 9.10202 135.784 9.19228L139.217 15.7491L142.626 9.19228C142.683 9.09841 142.74 9.02981 142.798 8.99009C142.852 8.94676 142.934 8.92871 143.045 8.92871C143.271 8.92871 143.386 9.05508 143.386 9.31143V17.6591C143.386 17.9119 143.268 18.0418 143.035 18.0418C142.801 18.0418 142.669 17.9155 142.669 17.6591V10.521L139.587 16.4026C139.536 16.4965 139.486 16.5615 139.443 16.6012C139.397 16.6409 139.328 16.659 139.235 16.659C139.135 16.659 139.056 16.6373 139.002 16.594C138.948 16.5507 138.898 16.4893 138.855 16.4026L135.737 10.5318V17.6591C135.737 17.9119 135.618 18.0418 135.385 18.0418H135.382Z" fill="#302B57"></path>
  <path d="M146.73 18.0418C146.479 18.0418 146.354 17.9046 146.354 17.6338V9.33671C146.354 9.06591 146.479 8.92871 146.73 8.92871C146.981 8.92871 147.121 9.06591 147.121 9.33671V17.6338C147.121 17.9046 146.992 18.0418 146.73 18.0418Z" fill="#302B57"></path>
  <path d="M153.787 18.0673C152.937 18.0673 152.209 17.8832 151.602 17.5149C150.996 17.1466 150.533 16.6195 150.207 15.9334C149.884 15.2474 149.719 14.4314 149.719 13.4818C149.719 12.5323 149.88 11.7271 150.207 11.0411C150.53 10.3551 150.996 9.82793 151.602 9.45965C152.209 9.09137 152.937 8.90723 153.787 8.90723C154.344 8.90723 154.86 8.99027 155.341 9.15636C155.822 9.32244 156.234 9.55713 156.579 9.86042C156.722 9.97957 156.783 10.1096 156.769 10.2468C156.751 10.3876 156.686 10.4851 156.568 10.5464C156.45 10.6042 156.317 10.5753 156.163 10.4562C155.524 9.90736 154.735 9.62934 153.802 9.62934C152.758 9.62934 151.958 9.96513 151.398 10.6403C150.838 11.3155 150.558 12.2615 150.558 13.4782C150.558 14.695 150.838 15.659 151.398 16.3306C151.958 17.0022 152.758 17.3416 153.802 17.3416C154.727 17.3416 155.52 17.0636 156.177 16.5039C156.328 16.3848 156.46 16.3559 156.575 16.4136C156.69 16.4714 156.755 16.5689 156.776 16.7061C156.798 16.8433 156.744 16.9661 156.618 17.0744C155.886 17.7351 154.943 18.0673 153.791 18.0673H153.787Z" fill="#302B57"></path>
  <path d="M161.807 18.0669C160.536 18.0669 159.5 17.7564 158.699 17.139C158.556 17.0379 158.491 16.9151 158.502 16.7779C158.513 16.6371 158.577 16.536 158.685 16.4674C158.793 16.3988 158.922 16.4169 159.065 16.518C159.453 16.814 159.862 17.0271 160.296 17.1607C160.73 17.2906 161.233 17.3592 161.807 17.3592C162.607 17.3592 163.206 17.204 163.604 16.8899C164.002 16.5757 164.203 16.1641 164.203 15.6586C164.203 15.2362 164.056 14.904 163.766 14.6693C163.475 14.431 162.998 14.2469 162.334 14.1097L161.06 13.8425C160.267 13.68 159.679 13.4092 159.284 13.0301C158.893 12.6474 158.699 12.1419 158.699 11.5065C158.699 10.9902 158.832 10.5352 159.098 10.1489C159.363 9.75894 159.729 9.45565 160.203 9.23902C160.673 9.02238 161.218 8.91406 161.832 8.91406C162.377 8.91406 162.883 8.98988 163.342 9.14153C163.801 9.29317 164.218 9.53508 164.598 9.86726C164.724 9.96835 164.781 10.0875 164.763 10.2211C164.745 10.3583 164.684 10.4558 164.58 10.5208C164.476 10.5858 164.35 10.5605 164.207 10.4522C163.852 10.1633 163.482 9.95391 163.095 9.82393C162.707 9.69395 162.287 9.62535 161.832 9.62535C161.125 9.62535 160.558 9.79505 160.135 10.1344C159.711 10.4738 159.496 10.9252 159.496 11.4956C159.496 11.9433 159.629 12.2972 159.901 12.5571C160.171 12.8171 160.605 13.0049 161.2 13.124L162.488 13.3912C163.339 13.5681 163.97 13.8353 164.383 14.1855C164.795 14.5358 165 15.0196 165 15.6262C165 16.11 164.871 16.536 164.616 16.9043C164.361 17.2726 163.992 17.5614 163.511 17.7672C163.03 17.973 162.463 18.0777 161.807 18.0777V18.0669Z" fill="#302B57"></path>
</svg>
