<svg width="129" height="52" viewBox="0 0 129 52" fill="none" xmlns="http://www.w3.org/2000/svg">
<path d="M4.55526 15.8707H9.01095C10.4707 15.8707 11.8032 15.5313 12.9999 14.8523C14.1965 14.1733 15.1471 13.2652 15.843 12.111C16.5389 10.9567 16.8954 9.65823 16.8954 8.21544C16.8954 6.77264 16.5474 5.50807 15.843 4.35384C15.1471 3.1996 14.1965 2.283 12.9999 1.61253C11.8032 0.933567 10.4707 0.594086 9.01095 0.594086H0.693665V23.8825H4.55526V15.8622V15.8707ZM8.94305 4.29443C9.69839 4.29443 10.3858 4.46417 11.0054 4.81214C11.6249 5.16011 12.1172 5.62689 12.4821 6.22947C12.8471 6.83205 13.0338 7.49404 13.0338 8.22392C13.0338 8.95381 12.8471 9.65823 12.4821 10.2523C12.1172 10.8549 11.6249 11.3217 11.0054 11.6697C10.3858 12.0176 9.69839 12.1874 8.94305 12.1874H4.55526V4.29443H8.94305Z" fill="#0038F0"/>
<path d="M25.6625 23.5854C26.4687 23.1187 27.1222 22.584 27.606 21.9899H27.7757L28.4377 23.8825H31.1621V13.5029C31.1621 12.1534 30.8905 10.9483 30.3473 9.91284C29.8041 8.86894 29.0233 8.06267 28.0049 7.50253C26.9864 6.9339 25.7983 6.65382 24.4488 6.65382C23.0994 6.65382 22.0046 6.90843 21.037 7.41766C20.0695 7.92688 19.3142 8.60584 18.771 9.44606C18.2278 10.2863 17.8968 11.1944 17.7865 12.1704H21.4444C21.5802 11.5678 21.8942 11.0501 22.395 10.6088C22.8957 10.1675 23.5662 9.94679 24.4064 9.94679C25.0259 9.94679 25.5776 10.0741 26.0529 10.3287C26.5281 10.5833 26.8931 10.9567 27.1477 11.4575C27.4023 11.9582 27.5296 12.5353 27.5296 13.2058V13.7744H24.8307C23.3031 13.7744 21.9452 13.9951 20.7739 14.4364C19.5942 14.8778 18.6776 15.5143 18.0157 16.346C17.3537 17.1777 17.0142 18.1453 17.0142 19.2571C17.0142 20.1652 17.2603 21.0054 17.7441 21.7862C18.2278 22.567 18.9068 23.1696 19.7555 23.6194C20.6127 24.0607 21.5802 24.2814 22.6666 24.2814C23.8378 24.2814 24.8307 24.0522 25.6455 23.5854H25.6625ZM20.6891 18.96C20.6891 18.1622 21.037 17.5342 21.733 17.0844C22.4289 16.6261 23.4813 16.4054 24.8732 16.4054H27.5381V17.4663C27.5381 18.1537 27.3684 18.7818 27.0374 19.3419C26.7064 19.9106 26.2226 20.3604 25.5861 20.6914C24.958 21.0224 24.2366 21.1921 23.4389 21.1921C22.5477 21.1921 21.8688 20.9884 21.3935 20.5725C20.9182 20.1652 20.6806 19.622 20.6806 18.96H20.6891Z" fill="#0038F0"/>
<path d="M39.9886 10.8125C40.5911 10.4815 41.2786 10.3117 42.0509 10.3117C42.6535 10.3117 43.1457 10.3542 43.5446 10.4475V6.78962C43.3409 6.74718 43.1288 6.71323 42.8996 6.68777C42.6705 6.66231 42.4159 6.65382 42.1528 6.65382C41.2022 6.65382 40.3535 6.89995 39.6236 7.40068C38.8937 7.90142 38.3506 8.40215 37.9941 8.91137H37.8244L37.1624 7.04423H34.438V23.8825H38.096V14.5637C38.096 13.6981 38.2657 12.9427 38.5967 12.2807C38.9277 11.6272 39.3945 11.135 39.9971 10.804L39.9886 10.8125Z" fill="#0038F0"/>
<path d="M57.5907 13.5114C57.5907 12.1619 57.3191 10.9568 56.7759 9.92134C56.2328 8.87744 55.452 8.07117 54.4335 7.51103C53.4151 6.9424 52.2269 6.66232 50.8774 6.66232C49.528 6.66232 48.4332 6.91693 47.4657 7.42616C46.4981 7.93538 45.7428 8.61434 45.1996 9.45455C44.6565 10.2948 44.3255 11.2029 44.2151 12.1789H47.873C48.0088 11.5763 48.3229 11.0586 48.8236 10.6173C49.3243 10.176 49.9948 9.95529 50.835 9.95529C51.4546 9.95529 52.0062 10.0826 52.4815 10.3372C52.9568 10.5918 53.3217 10.9652 53.5763 11.466C53.8309 11.9667 53.9582 12.5438 53.9582 13.2143V13.7829H51.2594C49.7317 13.7829 48.3738 14.0036 47.2026 14.4449C46.0229 14.8863 45.1063 15.5228 44.4443 16.3545C43.7823 17.1862 43.4428 18.1538 43.4428 19.2656C43.4428 20.1737 43.6889 21.0139 44.1727 21.7947C44.6565 22.5755 45.3354 23.1781 46.1841 23.6279C47.0413 24.0692 48.0088 24.2899 49.0952 24.2899C50.2749 24.2899 51.2594 24.0607 52.0741 23.5939C52.8804 23.1272 53.5339 22.5925 54.0176 21.9984H54.1874L54.8494 23.891H57.5737V13.5114H57.5907ZM53.466 19.3504C53.135 19.9191 52.6512 20.3689 52.0147 20.6999C51.3867 21.0309 50.6653 21.2006 49.8675 21.2006C48.9763 21.2006 48.2974 20.9969 47.8221 20.581C47.3468 20.1737 47.1092 19.6305 47.1092 18.9685C47.1092 18.1707 47.4572 17.5427 48.1531 17.0929C48.849 16.6346 49.9014 16.4139 51.2933 16.4139H53.9582V17.4748C53.9582 18.1622 53.7885 18.7903 53.4575 19.3504H53.466Z" fill="#0038F0"/>
<path d="M76.2197 0.594086H72.5618V8.80952H72.3921C72.2393 8.54643 71.9337 8.24089 71.4924 7.9099C71.0511 7.57891 70.4909 7.28186 69.812 7.02725C69.133 6.77264 68.4116 6.64533 67.6308 6.64533C66.2559 6.64533 64.9659 7.01876 63.7692 7.77411C62.5726 8.52945 61.622 9.58184 60.9261 10.9313C60.2301 12.2807 59.8737 13.7914 59.8737 15.4549C59.8737 17.1183 60.2216 18.6205 60.9261 19.9615C61.622 21.3024 62.5726 22.3548 63.7692 23.1186C64.9659 23.8825 66.2559 24.2644 67.6308 24.2644C68.4541 24.2644 69.2094 24.1286 69.9138 23.8655C70.6098 23.6024 71.1869 23.2884 71.6452 22.9319C72.1035 22.5755 72.4345 22.253 72.6636 21.9644H72.8334L73.4954 23.857H76.2197V0.594086ZM71.9422 18.281C71.5349 19.1128 70.9832 19.7578 70.2958 20.2076C69.6083 20.6659 68.853 20.8866 68.0297 20.8866C67.2065 20.8866 66.4851 20.6574 65.7807 20.2076C65.0847 19.7493 64.5246 19.1128 64.1172 18.281C63.7098 17.4493 63.4976 16.5157 63.4976 15.4718C63.4976 14.4279 63.7013 13.4944 64.1172 12.6626C64.5246 11.8309 65.0847 11.1859 65.7807 10.7361C66.4766 10.2778 67.2319 10.0571 68.0297 10.0571C68.8275 10.0571 69.6083 10.2863 70.2958 10.7361C70.9832 11.1944 71.5349 11.8309 71.9422 12.6626C72.3496 13.4944 72.5618 14.4279 72.5618 15.4718C72.5618 16.5157 72.3581 17.4493 71.9422 18.281Z" fill="#0038F0"/>
<path d="M83.4676 7.05272H79.8097V23.891H83.4676V7.05272Z" fill="#0038F0"/>
<path d="M81.6429 4.69333C82.0418 4.69333 82.3983 4.59997 82.7208 4.41325C83.0433 4.22654 83.2979 3.97193 83.4846 3.64942C83.6713 3.32692 83.7647 2.97046 83.7647 2.57157C83.7647 1.95202 83.561 1.43431 83.1451 1.02693C82.7378 0.619555 82.2285 0.407379 81.6344 0.407379C81.2356 0.407379 80.8706 0.500736 80.5396 0.687451C80.2086 0.874166 79.9455 1.13726 79.7588 1.46826C79.5721 1.79925 79.4787 2.16419 79.4787 2.56308C79.4787 3.16566 79.6824 3.6664 80.0983 4.07377C80.5057 4.48115 81.0234 4.69333 81.6429 4.69333Z" fill="#0038F0"/>
<path d="M98.5151 8.91986H98.3454C98.1417 8.65676 97.8277 8.34274 97.3778 7.98629C96.9365 7.62983 96.3764 7.3243 95.7144 7.05271C95.0524 6.78962 94.314 6.65382 93.5163 6.65382C92.1668 6.65382 90.9023 7.01877 89.7226 7.74865C88.5429 8.47853 87.6178 9.48849 86.9303 10.7615C86.2429 12.0346 85.8949 13.4434 85.8949 14.9711C85.8949 16.4988 86.2344 17.8991 86.9303 19.1637C87.6178 20.4283 88.5513 21.4297 89.7226 22.1766C90.8938 22.9234 92.1583 23.2884 93.5163 23.2884C94.2716 23.2884 94.9675 23.1611 95.6126 22.9065C96.2576 22.6519 96.7922 22.3548 97.2081 22.0069C97.6325 21.6674 97.9295 21.3618 98.1077 21.0903H98.2775V22.9235C98.2775 24.1626 97.904 25.1386 97.1487 25.8515C96.3934 26.5644 95.3834 26.9124 94.1188 26.9124C93.1428 26.9124 92.3281 26.7256 91.6746 26.3437C91.0211 25.9703 90.5712 25.4865 90.3251 24.9094H86.5993C86.7775 25.6817 87.1595 26.4795 87.7451 27.2858C88.3307 28.092 89.1624 28.7795 90.2403 29.3481C91.3181 29.9168 92.6336 30.1968 94.1867 30.1968C95.7399 30.1968 97.1317 29.8998 98.2944 29.2972C99.4572 28.6946 100.357 27.8459 100.993 26.7341C101.621 25.6223 101.944 24.3408 101.944 22.8725V7.05271H99.2195L98.5236 8.91986H98.5151ZM97.6834 17.5512C97.2845 18.315 96.7498 18.9176 96.0878 19.3504C95.4258 19.7833 94.7044 19.9954 93.9236 19.9954C93.1428 19.9954 92.396 19.7833 91.7255 19.3504C91.0635 18.9176 90.5288 18.315 90.1299 17.5512C89.731 16.7873 89.5273 15.9301 89.5273 14.9711C89.5273 14.0121 89.731 13.1549 90.1299 12.3911C90.5288 11.6272 91.0635 11.0246 91.7255 10.5918C92.3875 10.159 93.1258 9.94679 93.9236 9.94679C94.7214 9.94679 95.4173 10.159 96.0878 10.5918C96.7498 11.0246 97.2845 11.6272 97.6834 12.3911C98.0823 13.1549 98.286 14.0121 98.286 14.9711C98.286 15.9301 98.0823 16.7873 97.6834 17.5512Z" fill="#0038F0"/>
<path d="M127.804 9.91284C127.303 8.85196 126.607 8.03721 125.725 7.48555C124.833 6.9339 123.815 6.65382 122.661 6.65382C121.795 6.65382 121.006 6.82356 120.284 7.17153C119.563 7.5195 118.969 7.92688 118.502 8.40215C118.18 8.73314 117.925 9.04716 117.721 9.36118C117.543 9.04716 117.314 8.73314 117.042 8.41912C116.643 7.95234 116.1 7.54496 115.413 7.18851C114.725 6.83205 113.919 6.65382 112.985 6.65382C112.052 6.65382 111.169 6.89995 110.456 7.40068C109.743 7.90142 109.226 8.40215 108.895 8.91137H108.725L108.063 7.04423H105.339V23.8825H108.997V13.7999C108.997 13.0446 109.132 12.3826 109.395 11.8224C109.659 11.2538 110.032 10.821 110.507 10.5069C110.983 10.1929 111.509 10.0401 112.086 10.0401C112.663 10.0401 113.181 10.1844 113.631 10.473C114.089 10.7615 114.445 11.1944 114.708 11.7715C114.971 12.3486 115.107 13.0276 115.107 13.7999V23.8825H118.765V13.7999C118.765 13.0446 118.901 12.3826 119.164 11.8224C119.427 11.2538 119.801 10.821 120.276 10.5069C120.751 10.1929 121.277 10.0401 121.854 10.0401C122.432 10.0401 122.949 10.1844 123.399 10.473C123.857 10.7615 124.214 11.1944 124.477 11.7715C124.74 12.3486 124.876 13.0276 124.876 13.7999V23.8825H128.534V13.6981C128.534 12.2298 128.288 10.9737 127.787 9.90435L127.804 9.91284Z" fill="#0038F0"/>
<path d="M15.0028 37.6569H4.55526V28.109H0.693665V51.3974H4.55526V41.3488H15.0028V51.3974H18.8644V28.109H15.0028V37.6569Z" fill="#0038F0"/>
<path d="M34.1155 35.2721C32.8849 34.5252 31.5355 34.1603 30.0757 34.1603C28.6159 34.1603 27.2071 34.5507 25.934 35.34C24.661 36.1293 23.6425 37.1986 22.8872 38.5481C22.1318 39.8975 21.7584 41.3742 21.7584 42.9698C21.7584 44.5654 22.1318 46.1015 22.8702 47.4425C23.6171 48.7834 24.6185 49.8443 25.9001 50.6166C27.1731 51.3889 28.582 51.7793 30.1097 51.7793C31.2893 51.7793 32.3757 51.5332 33.3856 51.0495C34.3956 50.5657 35.2528 49.9292 35.9487 49.1568C36.6447 48.3845 37.1624 47.5698 37.4934 46.7296H33.6997C33.3432 47.2388 32.8679 47.6631 32.2654 47.9941C31.6628 48.3251 30.9329 48.4949 30.0672 48.4949C29.1336 48.4949 28.3104 48.2742 27.589 47.8329C26.8676 47.3915 26.299 46.7465 25.8916 45.9063C25.6709 45.448 25.5097 44.9473 25.4078 44.4126H37.8838C37.9517 44.2089 38.0026 43.9543 38.0365 43.6488C38.0705 43.3347 38.0875 42.9953 38.0875 42.6134C38.0875 41.0348 37.731 39.6089 37.0266 38.3189C36.3137 37.0289 35.3461 36.0189 34.1155 35.2721ZM27.6399 38.1407C28.3698 37.6824 29.1846 37.4617 30.0672 37.4617C30.9499 37.4617 31.6797 37.6909 32.3757 38.1407C33.0716 38.599 33.6233 39.227 34.0222 40.0333C34.2683 40.534 34.438 41.0772 34.5314 41.6458H25.3824C25.4842 41.0857 25.654 40.568 25.9001 40.0842C26.3244 39.244 26.9016 38.5905 27.6314 38.1407H27.6399Z" fill="#0038F0"/>
<path d="M50.0712 35.009C49.0527 34.4404 47.8645 34.1603 46.5151 34.1603C45.1657 34.1603 44.0708 34.4149 43.1033 34.9241C42.1358 35.4333 41.3805 36.1123 40.8373 36.9525C40.2941 37.7927 39.9631 38.7008 39.8528 39.6768H43.5107C43.6465 39.0743 43.9605 38.5566 44.4613 38.1152C44.962 37.6739 45.6325 37.4532 46.4727 37.4532C47.0922 37.4532 47.6439 37.5806 48.1192 37.8352C48.5944 38.0898 48.9594 38.4632 49.214 38.9639C49.4686 39.4647 49.5959 40.0418 49.5959 40.7123V41.2809H46.897C45.3694 41.2809 44.0114 41.5016 42.8402 41.9429C41.6605 42.3842 40.7439 43.0207 40.0819 43.8525C39.42 44.6842 39.0805 45.6517 39.0805 46.7635C39.0805 47.6716 39.3266 48.5118 39.8104 49.2926C40.2941 50.0735 40.9731 50.676 41.8218 51.1258C42.679 51.5672 43.6465 51.7878 44.7328 51.7878C45.904 51.7878 46.897 51.5587 47.7118 51.0919C48.5181 50.6251 49.1715 50.0904 49.6553 49.4963H49.825L50.487 51.3889H53.2114V41.0093C53.2114 39.6599 52.9398 38.4547 52.3966 37.4193C51.8534 36.3754 51.0726 35.5691 50.0542 35.009H50.0712ZM49.1037 46.8569C48.7727 47.4255 48.2889 47.8753 47.6524 48.2063C47.0243 48.5373 46.3029 48.707 45.5052 48.707C44.614 48.707 43.9351 48.5034 43.4598 48.0875C42.9845 47.6801 42.7469 47.1369 42.7469 46.475C42.7469 45.6772 43.0948 45.0491 43.7908 44.5993C44.4867 44.141 45.5391 43.9204 46.931 43.9204H49.5959V44.9812C49.5959 45.6687 49.4262 46.2967 49.0952 46.8569H49.1037Z" fill="#0038F0"/>
<path d="M60.315 28.109H56.6571V51.3974H60.315V28.109Z" fill="#0038F0"/>
<path d="M68.6323 30.2308H65.4751V32.7599C65.4751 33.4049 65.3054 33.8972 64.9574 34.2366C64.6095 34.5846 64.1087 34.7544 63.4467 34.7544H62.2501V37.8521H65.0083V45.9403C65.0083 47.1369 65.2375 48.1723 65.6873 49.055C66.1456 49.9292 66.7652 50.6081 67.5629 51.0834C68.3607 51.5587 69.2688 51.7963 70.2873 51.7963C70.7116 51.7963 71.0851 51.7624 71.4161 51.6945C71.747 51.6266 72.0356 51.5502 72.2817 51.4653V48.1384C71.9507 48.2912 71.5603 48.3675 71.119 48.3675C70.3467 48.3675 69.7356 48.1384 69.2858 47.6886C68.8445 47.2303 68.6238 46.5513 68.6238 45.6432V37.8606H72.2817V34.5676H68.6238V30.2393L68.6323 30.2308Z" fill="#0038F0"/>
<path d="M86.803 35.0599C85.8015 34.4573 84.6812 34.1603 83.4421 34.1603C82.6868 34.1603 81.9908 34.2876 81.3458 34.5422C80.7008 34.7968 80.1492 35.1023 79.6993 35.4588C79.241 35.8153 78.927 36.1378 78.7488 36.4263H78.579V28.109H74.9211V51.3974H78.579V41.7816C78.579 40.9584 78.7488 40.2285 79.0798 39.5835C79.4108 38.9385 79.8691 38.4378 80.4632 38.0898C81.0488 37.7333 81.7192 37.5551 82.4746 37.5551C83.2299 37.5551 83.8665 37.7333 84.4521 38.0898C85.0377 38.4462 85.496 38.947 85.8355 39.5835C86.1665 40.2285 86.3362 40.9584 86.3362 41.7816V51.3974H89.9602V41.5185C89.9602 40.0588 89.6801 38.7603 89.1284 37.64C88.5768 36.5197 87.796 35.6625 86.803 35.0599Z" fill="#0038F0"/>
</svg>
