<?xml version="1.0" encoding="UTF-8"?> <svg xmlns="http://www.w3.org/2000/svg" width="220" height="37" viewBox="0 0 220 37" fill="none"><g clip-path="url(#clip0_20_17593)"><path d="M22.3839 14.0621C20.7878 13.373 19.382 12.1784 18.4371 10.5452C17.4922 8.91094 17.1589 7.09644 17.3525 5.35777C17.3789 5.15335 17.3976 4.94783 17.3976 4.73572C17.3976 2.12003 15.2757 0 12.6588 0C10.0419 0 7.92004 2.12003 7.92004 4.73462C7.92004 6.67661 9.09814 8.33175 10.7723 9.0626C14.4606 10.5738 17.061 14.2116 17.061 18.4417C17.061 22.6719 14.4078 26.3855 10.6612 27.8692C9.04644 28.6231 7.92004 30.2486 7.92004 32.1477C7.92004 34.7623 10.0419 36.8824 12.6588 36.8824C15.2757 36.8824 17.3976 34.7623 17.3976 32.1477C17.3976 31.9312 17.3778 31.7191 17.3503 31.5103C17.1556 29.7738 17.4955 27.9681 18.4382 26.3372C19.3732 24.7183 20.7658 23.5335 22.3531 22.8324C24.0944 22.1323 25.3253 20.4321 25.3253 18.4417C25.3253 16.4514 24.1098 14.7699 22.3839 14.0621Z" fill="#5852F3"></path><path d="M28.5065 9.46924C31.1237 9.46924 33.2453 7.34948 33.2453 4.73462C33.2453 2.11976 31.1237 0 28.5065 0C25.8893 0 23.7677 2.11976 23.7677 4.73462C23.7677 7.34948 25.8893 9.46924 28.5065 9.46924Z" fill="#66BDFF"></path><path d="M4.7388 23.1763C7.35597 23.1763 9.4776 21.0566 9.4776 18.4417C9.4776 15.8269 7.35597 13.7071 4.7388 13.7071C2.12163 13.7071 0 15.8269 0 18.4417C0 21.0566 2.12163 23.1763 4.7388 23.1763Z" fill="#FF4343"></path><path d="M36.4331 23.1763C39.0503 23.1763 41.1719 21.0566 41.1719 18.4417C41.1719 15.8269 39.0503 13.7071 36.4331 13.7071C33.816 13.7071 31.6943 15.8269 31.6943 18.4417C31.6943 21.0566 33.816 23.1763 36.4331 23.1763Z" fill="#7EDF20"></path><path d="M28.5065 36.8813C31.1237 36.8813 33.2453 34.7615 33.2453 32.1466C33.2453 29.5318 31.1237 27.412 28.5065 27.412C25.8893 27.412 23.7677 29.5318 23.7677 32.1466C23.7677 34.7615 25.8893 36.8813 28.5065 36.8813Z" fill="#66BDFF"></path><path d="M192.051 28.2517L200.324 8.16251H205.15L213.308 28.2517H208.798L206.758 22.9708H198.457L196.389 28.2517H192.051ZM199.749 19.6419H205.494L202.651 12.2377L199.749 19.6419ZM215.834 12.352V28.2517H220V8.17899C217.207 8.86149 215.837 10.0506 215.834 12.352Z" fill="#171640"></path><path d="M138.594 28.2517V13.2993H142.53V14.4193C143.066 13.9599 143.66 13.6115 144.311 13.3719C144.962 13.1323 145.671 13.0125 146.436 13.0125C147.394 13.0125 148.26 13.2092 149.036 13.6005C149.811 13.9928 150.447 14.5435 150.946 15.2512C151.539 14.5237 152.258 13.9698 153.101 13.5862C153.944 13.2037 154.872 13.0125 155.888 13.0125C157.554 13.0125 158.922 13.5675 159.995 14.6775C161.066 15.7876 161.603 17.213 161.603 18.9539V28.2528H157.668V19.5287C157.668 18.5912 157.414 17.835 156.907 17.2614C156.399 16.6877 155.715 16.4008 154.854 16.4008C154.26 16.4008 153.719 16.5305 153.231 16.7877C152.743 17.0459 152.326 17.4141 151.981 17.8922C152 18.0647 152.02 18.2362 152.039 18.4087C152.057 18.5813 152.067 18.7626 152.067 18.9539V28.2528H148.133V19.5287C148.133 18.5912 147.878 17.835 147.371 17.2614C146.864 16.6877 146.18 16.4008 145.318 16.4008C144.724 16.4008 144.197 16.5162 143.738 16.7448C143.278 16.9745 142.876 17.3097 142.531 17.7493V28.2528H138.596L138.594 28.2517ZM53.6733 28.2517V8.16248H63.4974C64.5116 8.16248 65.4455 8.31525 66.298 8.62188C67.1494 8.92851 67.882 9.35383 68.4947 9.89895C69.1074 10.4441 69.5859 11.1002 69.9313 11.8651C70.2756 12.63 70.4483 13.4719 70.4483 14.3907C70.4483 15.6535 70.0886 16.7822 69.3714 17.7768C68.6531 18.7714 67.7005 19.5089 66.5136 19.9869L70.9664 28.2528H66.3134L62.3787 20.5617H57.8401V28.2528H53.6744L53.6733 28.2517ZM63.1234 11.7497H57.8379V17.1449H63.1234C64.0617 17.1449 64.813 16.8965 65.3784 16.3986C65.9427 15.9008 66.2254 15.2512 66.2254 14.4467C66.2254 13.6422 65.9427 12.9927 65.3784 12.4949C64.813 11.997 64.0617 11.7486 63.1234 11.7486V11.7497ZM95.7252 28.9407L95.9551 28.3956L90.124 13.2993H94.4613L98.1672 23.4874L102.419 13.2993H106.669L99.7754 29.4287C99.0098 31.2267 98.1188 32.5093 97.1046 33.2742C96.0893 34.0392 94.7682 34.4227 93.1413 34.4227C92.7959 34.4227 92.4659 34.4084 92.1502 34.3799C91.8345 34.3513 91.5804 34.3084 91.389 34.2502V30.864C91.5804 30.9025 91.7817 30.9311 91.9918 30.9509C92.2019 30.9696 92.4604 30.9795 92.7673 30.9795C93.4757 30.9795 94.0741 30.8069 94.5625 30.4629C95.0509 30.1189 95.4381 29.6112 95.7263 28.9418L95.7252 28.9407ZM86.7349 14.6775C85.6239 13.5686 84.2071 13.0125 82.4834 13.0125C81.6595 13.0125 80.8994 13.1378 80.1998 13.3862C79.5002 13.6346 78.8644 13.9983 78.2891 14.4764V7.30194L78.2726 7.30524C75.6502 7.94487 74.361 9.06149 74.3533 11.2167V28.2528H78.2891V17.8922C78.6334 17.4141 79.069 17.0459 79.5959 16.7877C80.1228 16.5294 80.7113 16.4008 81.3625 16.4008C82.2997 16.4008 83.0521 16.6877 83.6175 17.2614C84.1818 17.835 84.4656 18.5912 84.4656 19.5287V28.2528H88.4003V18.9539C88.4003 17.213 87.8448 15.7876 86.7338 14.6775H86.7349ZM133.54 14.6775C132.429 13.5686 131.012 13.0125 129.288 13.0125C128.465 13.0125 127.704 13.1378 127.005 13.3862C126.305 13.6346 125.669 13.9983 125.094 14.4764V7.30194L125.078 7.30524C122.455 7.94487 121.165 9.06149 121.158 11.2167V28.2517H125.094V17.8911C125.438 17.413 125.874 17.0448 126.401 16.7866C126.928 16.5283 127.516 16.3997 128.168 16.3997C129.105 16.3997 129.857 16.6866 130.423 17.2603C130.987 17.8339 131.271 18.5901 131.271 19.5276V28.2517H135.205V18.9528C135.205 17.2119 134.65 15.7865 133.539 14.6764L133.54 14.6775ZM117.857 16.6008V13.3004H113.606V8.5933L113.557 8.60429C110.953 9.24722 109.672 10.3638 109.67 12.519V13.2993H108.502L107.092 16.5997H109.671V24.0325C109.671 25.4865 110.097 26.5921 110.949 27.3472C111.801 28.1033 113.06 28.4814 114.727 28.4814C115.148 28.4814 115.655 28.4385 116.249 28.3517C116.842 28.2659 117.35 28.156 117.771 28.022V24.8073C117.388 24.9414 117.034 25.0326 116.709 25.0799C116.383 25.1282 116.038 25.1513 115.675 25.1513C114.909 25.1513 114.372 25.0084 114.067 24.7205C113.76 24.4336 113.607 23.9358 113.607 23.228V16.5986H117.858L117.857 16.6008Z" fill="#171640"></path><path d="M183.079 28.2517H185.272L177.517 17.8625L184.669 8.16251H182.685C180.049 8.1702 179.84 8.35484 178.155 10.554L175.132 14.7633L172.039 10.4815C170.405 8.35154 170.171 8.1702 167.565 8.16251H165.395L172.633 17.8625L164.992 28.2517H167.016C169.603 28.2418 169.829 28.0506 171.482 25.8943L175.045 20.9332L178.575 25.8481C180.261 28.0495 180.47 28.2418 183.077 28.2517H183.079Z" fill="#5852F3"></path></g><defs><clipPath id="clip0_20_17593"><rect width="220" height="36.8824" fill="white"></rect></clipPath></defs></svg> 