<?xml version="1.0" encoding="UTF-8"?>
<svg id="Layer_1" data-name="Layer 1" xmlns="http://www.w3.org/2000/svg" xmlns:xlink="http://www.w3.org/1999/xlink" version="1.1" viewBox="0 0 324 49">
  <defs>
    <style>
      .cls-1 {
        clip-path: url(#clippath);
      }

      .cls-2, .cls-3, .cls-4, .cls-5 {
        fill: #ff4c15;
      }

      .cls-2, .cls-6, .cls-7, .cls-4, .cls-8, .cls-9 {
        stroke-width: 0px;
      }

      .cls-6, .cls-10, .cls-9, .cls-11 {
        fill: #fff;
      }

      .cls-6, .cls-7, .cls-4 {
        clip-rule: evenodd;
      }

      .cls-7, .cls-8, .cls-12, .cls-13 {
        fill: #c0421a;
      }

      .cls-14 {
        clip-path: url(#clippath-1);
      }

      .cls-15 {
        clip-path: url(#clippath-4);
      }

      .cls-16 {
        clip-path: url(#clippath-3);
      }

      .cls-17 {
        clip-path: url(#clippath-2);
      }

      .cls-18 {
        clip-path: url(#clippath-7);
      }

      .cls-19 {
        clip-path: url(#clippath-6);
      }

      .cls-20 {
        clip-path: url(#clippath-5);
      }

      .cls-5, .cls-11, .cls-13 {
        fill-rule: evenodd;
      }
    </style>
    <clipPath id="clippath">
      <path class="cls-6" d="M315.3,37.1c0,.6.1,1.1.3,1.6.2.5.5.9.9,1.3.4.4.8.7,1.3.9.5.2,1,.3,1.6.3s1.1-.1,1.6-.3c.5-.2.9-.5,1.3-.9.4-.4.7-.8.9-1.3.2-.5.3-1.1.3-1.6s-.1-1.1-.3-1.6-.5-.9-.9-1.3c-.4-.4-.8-.7-1.3-.9-.5-.2-1-.3-1.6-.3s-1.1.1-1.6.3c-.5.2-.9.5-1.3.9-.4.4-.7.8-.9,1.3s-.3,1-.3,1.6ZM316,37.1c0-.5,0-.9.3-1.4.2-.4.4-.8.7-1.1.3-.3.7-.6,1.1-.7s.9-.3,1.3-.3.9,0,1.3.3.8.4,1.1.7c.3.3.5.7.7,1.1.2.4.3.9.3,1.4s0,1-.3,1.4-.4.8-.7,1.1c-.3.3-.7.6-1.1.7s-.9.3-1.3.3-.9,0-1.3-.3-.8-.4-1.1-.7c-.3-.3-.5-.7-.7-1.1s-.3-.9-.3-1.4ZM317.8,34.7v4.8h.7v-2.1h.8l1.3,2.1h.8l-1.4-2.1c.4,0,.7-.2.9-.4.2-.2.4-.5.4-1s-.1-.8-.4-1c-.3-.2-.7-.3-1.3-.3h-1.9ZM318.6,36.8v-1.5h1c.1,0,.3,0,.4,0,.1,0,.2,0,.3.1s.2.1.2.2c0,0,0,.2,0,.4s0,.3-.1.4-.2.2-.3.2c-.1,0-.3,0-.4,0-.2,0-.3,0-.5,0h-.8Z"/>
    </clipPath>
    <clipPath id="clippath-1">
      <rect class="cls-9" x="-94" y="-101" width="1024" height="658"/>
    </clipPath>
    <clipPath id="clippath-2">
      <path class="cls-6" d="M278,41h6.1v-19.7s.1,0,.1,0l10.1,10.2,10.1-10.2h.2v19.7s6.1,0,6.1,0V7.2l-16.3,16.1h0l-16.3-16.1v33.8ZM272.8,8.8h-6.1v21c0,3.8-2.9,6.4-6.8,6.4s-6.8-2.6-6.8-6.4V8.8h-6.1v21c0,7.4,5.4,12,12.9,12s12.9-4.5,12.9-12V8.8ZM235.8,41h6.1V8.8h-6.1v32.2ZM225.2,19.8c0,2.8-2.2,5.2-5,5.2h-8.1v-10.3h8.1c2.8,0,5,2.3,5,5.2ZM231.5,19.8c0-6.3-5.1-11-11.4-11h-14.2v32.2h6.1v-10.2h6.6l5.1,10.2h6.8l-5.6-11.3c3.8-1.7,6.5-5.3,6.5-10ZM184.3,35.2v-7.4h14.6v-5.8h-14.6v-7.3h17.6v-5.8h-23.7v32.2h23.7v-5.8h-17.6ZM167.7,19.8c0,2.8-2.2,5.2-5,5.2h-8.1v-10.3h8.1c2.8,0,5,2.3,5,5.2ZM174.1,19.8c0-6.3-5.1-11-11.4-11h-14.2v32.2h6.1v-10.2h8.1c6.3,0,11.4-4.7,11.4-11ZM110.7,41h6.1v-19.7s.1,0,.1,0l10.1,10.2,10.1-10.2h.2v19.7s6.1,0,6.1,0V7.2l-16.3,16.1h0l-16.3-16.1v33.8ZM99.5,41h6.1V8.8h-6.1v32.2ZM69.5,14.6h15.8s0,0,0,0l-17.8,26.4h26.9v-5.8h-15.8s0,0,0,0l17.8-26.4h-26.9v5.8Z"/>
    </clipPath>
    <clipPath id="clippath-3">
      <rect class="cls-9" x="-94" y="-101" width="1024" height="658"/>
    </clipPath>
    <clipPath id="clippath-4">
      <path class="cls-7" d="M33.2,7.6s18.5,5.8,24.3,7.8c1.1.4,2.1,1.1,2.1,1.1,0,0-13.8,6.3-23.5,12.2-5.4,3.3-9.6,7.6-9.6,7.6l-15.2-3.5s3.1-5.6,8.2-11.4c5.8-6.6,13.6-13.7,13.6-13.7"/>
    </clipPath>
    <clipPath id="clippath-5">
      <rect class="cls-8" x="-94" y="-101" width="1024" height="658"/>
    </clipPath>
    <clipPath id="clippath-6">
      <path class="cls-4" d="M59.6,16.5l-10.2-14s-9.8-1.7-19.6-1.7-19.6,1.7-19.6,1.7L0,16.5s14.9-3.5,29.8-3.5,29.8,3.5,29.8,3.5M11.4,32.7l18.3,16.1,18.3-16.1s-9.2,1.7-18.3,1.7-18.3-1.7-18.3-1.7"/>
    </clipPath>
    <clipPath id="clippath-7">
      <rect class="cls-2" x="-94" y="-101" width="1024" height="658"/>
    </clipPath>
  </defs>
  <g>
    <path class="cls-11" d="M315.3,37.1c0,.6.1,1.1.3,1.6.2.5.5.9.9,1.3.4.4.8.7,1.3.9.5.2,1,.3,1.6.3s1.1-.1,1.6-.3c.5-.2.9-.5,1.3-.9.4-.4.7-.8.9-1.3.2-.5.3-1.1.3-1.6s-.1-1.1-.3-1.6-.5-.9-.9-1.3c-.4-.4-.8-.7-1.3-.9-.5-.2-1-.3-1.6-.3s-1.1.1-1.6.3c-.5.2-.9.5-1.3.9-.4.4-.7.8-.9,1.3s-.3,1-.3,1.6ZM316,37.1c0-.5,0-.9.3-1.4.2-.4.4-.8.7-1.1.3-.3.7-.6,1.1-.7s.9-.3,1.3-.3.9,0,1.3.3.8.4,1.1.7c.3.3.5.7.7,1.1.2.4.3.9.3,1.4s0,1-.3,1.4-.4.8-.7,1.1c-.3.3-.7.6-1.1.7s-.9.3-1.3.3-.9,0-1.3-.3-.8-.4-1.1-.7c-.3-.3-.5-.7-.7-1.1s-.3-.9-.3-1.4ZM317.8,34.7v4.8h.7v-2.1h.8l1.3,2.1h.8l-1.4-2.1c.4,0,.7-.2.9-.4.2-.2.4-.5.4-1s-.1-.8-.4-1c-.3-.2-.7-.3-1.3-.3h-1.9ZM318.6,36.8v-1.5h1c.1,0,.3,0,.4,0,.1,0,.2,0,.3.1s.2.1.2.2c0,0,0,.2,0,.4s0,.3-.1.4-.2.2-.3.2c-.1,0-.3,0-.4,0-.2,0-.3,0-.5,0h-.8Z"/>
    <g class="cls-1">
      <g>
        <rect class="cls-10" x="-94" y="-101" width="1024" height="658"/>
        <g class="cls-14">
          <rect class="cls-9" x="310.3" y="28" width="18.3" height="18.2"/>
        </g>
      </g>
    </g>
  </g>
  <g>
    <path class="cls-11" d="M278,41h6.1v-19.7s.1,0,.1,0l10.1,10.2,10.1-10.2h.2v19.7s6.1,0,6.1,0V7.2l-16.3,16.1h0l-16.3-16.1v33.8ZM272.8,8.8h-6.1v21c0,3.8-2.9,6.4-6.8,6.4s-6.8-2.6-6.8-6.4V8.8h-6.1v21c0,7.4,5.4,12,12.9,12s12.9-4.5,12.9-12V8.8ZM235.8,41h6.1V8.8h-6.1v32.2ZM225.2,19.8c0,2.8-2.2,5.2-5,5.2h-8.1v-10.3h8.1c2.8,0,5,2.3,5,5.2ZM231.5,19.8c0-6.3-5.1-11-11.4-11h-14.2v32.2h6.1v-10.2h6.6l5.1,10.2h6.8l-5.6-11.3c3.8-1.7,6.5-5.3,6.5-10ZM184.3,35.2v-7.4h14.6v-5.8h-14.6v-7.3h17.6v-5.8h-23.7v32.2h23.7v-5.8h-17.6ZM167.7,19.8c0,2.8-2.2,5.2-5,5.2h-8.1v-10.3h8.1c2.8,0,5,2.3,5,5.2ZM174.1,19.8c0-6.3-5.1-11-11.4-11h-14.2v32.2h6.1v-10.2h8.1c6.3,0,11.4-4.7,11.4-11ZM110.7,41h6.1v-19.7s.1,0,.1,0l10.1,10.2,10.1-10.2h.2v19.7s6.1,0,6.1,0V7.2l-16.3,16.1h0l-16.3-16.1v33.8ZM99.5,41h6.1V8.8h-6.1v32.2ZM69.5,14.6h15.8s0,0,0,0l-17.8,26.4h26.9v-5.8h-15.8s0,0,0,0l17.8-26.4h-26.9v5.8Z"/>
    <g class="cls-17">
      <g>
        <rect class="cls-10" x="-94" y="-101" width="1024" height="658"/>
        <g class="cls-16">
          <rect class="cls-9" x="62.5" y="2.2" width="253.1" height="44.5"/>
        </g>
      </g>
    </g>
  </g>
  <g>
    <path class="cls-13" d="M33.2,7.6s18.5,5.8,24.3,7.8c1.1.4,2.1,1.1,2.1,1.1,0,0-13.8,6.3-23.5,12.2-5.4,3.3-9.6,7.6-9.6,7.6l-15.2-3.5s3.1-5.6,8.2-11.4c5.8-6.6,13.6-13.7,13.6-13.7"/>
    <g class="cls-15">
      <g>
        <rect class="cls-12" x="-94" y="-101" width="1024" height="658"/>
        <g class="cls-20">
          <rect class="cls-8" x="6.4" y="2.6" width="58.2" height="38.6"/>
        </g>
      </g>
    </g>
  </g>
  <g>
    <path class="cls-5" d="M59.6,16.5l-10.2-14s-9.8-1.7-19.6-1.7-19.6,1.7-19.6,1.7L0,16.5s14.9-3.5,29.8-3.5,29.8,3.5,29.8,3.5M11.4,32.7l18.3,16.1,18.3-16.1s-9.2,1.7-18.3,1.7-18.3-1.7-18.3-1.7"/>
    <g class="cls-19">
      <g>
        <rect class="cls-3" x="-94" y="-101" width="1024" height="658"/>
        <g class="cls-18">
          <rect class="cls-2" x="-5" y="-4.2" width="69.6" height="58"/>
        </g>
      </g>
    </g>
  </g>
</svg>