<?xml version="1.0" encoding="UTF-8"?>
<svg fill="#D1DBB9" id="Layer_1" data-name="Layer 1" xmlns="http://www.w3.org/2000/svg" viewBox="0 0 864.27 251.51">
  <defs>
    <style>
      .cls-1 {
        stroke: #D1DBB9;
      }

      .cls-1, .cls-2 {
        fill: none;
        stroke-width: 2px;
      }

      .cls-2 {
        stroke: #D1DBB9;
      }

      .cls-3 {
        fill: #D1DBB9;
      }

      .cls-4 {
        fill: #D1DBB9;
      }

      .cls-5 {
        fill: #D1DBB9;
      }
    </style>
  </defs>
  <g>
    <path class="cls-1" d="M125.61,78.1c.07,0,.11-.02.12-.06,1.25-38.21,2.02-63.7,2.33-76.46,0-.2-.14-.38-.34-.41-.69-.11-1.41-.17-2.16-.17s-1.47.06-2.15.17c-.21.03-.36.21-.35.42.34,12.75,1.18,38.24,2.51,76.45,0,.04.02.06.04.06" vector-effect="non-scaling-stroke"/>
    <path class="cls-1" d="M112.6,1.65c-2.32.25-4.61.57-6.87.98-.19.03-.31.21-.28.4,0,0,0,0,0,.01,5.07,28.7,11.06,62.52,17.99,101.46,0,.07.06.09.17.08.07,0,.1-.04.09-.11-1.44-39.53-2.71-73.85-3.81-102.97,0-.19-.16-.35-.35-.34,0,0,0,0-.01,0-2.29.08-4.6.24-6.93.49" vector-effect="non-scaling-stroke"/>
    <path class="cls-1" d="M134.36,1.31c-.93-.07-1.94-.12-3.03-.15-.31,0-.56.23-.57.53-1.01,35.81-1.81,64.31-2.39,85.5,0,.06.03.09.08.1.07,0,.11-.03.12-.09,2.32-21.07,5.42-49.41,9.31-85.02.03-.3-.19-.57-.49-.61,0,0,0,0,0,0-1.09-.11-2.09-.2-3.02-.26" vector-effect="non-scaling-stroke"/>
    <path class="cls-1" d="M132.81,77.35s.03,0,.04-.05c6.49-37.06,10.77-61.78,12.83-74.16.04-.21-.09-.4-.28-.46-.65-.2-1.34-.35-2.07-.45-.74-.11-1.45-.15-2.13-.14-.2,0-.37.16-.39.36-1.43,12.47-4.14,37.42-8.11,74.83,0,.04.03.06.11.07" vector-effect="non-scaling-stroke"/>
    <path class="cls-1" d="M120.11,101.58s.05-.01.07-.03c.06-.04.08-.1.07-.15L102.54,3.6c-.04-.24-.26-.4-.5-.36-1.8.29-3.61.66-5.43,1.11-1.83.44-3.61.94-5.34,1.51-.23.07-.36.31-.29.54l29.03,95.06s.06.09.13.1c.03,0,.02.01-.03.02" vector-effect="non-scaling-stroke"/>
    <path class="cls-1" d="M155.53,4.7c-2.23-.55-4.45-1.01-6.67-1.38-.18-.03-.35.09-.39.27,0,0,0,0,0,0-4.87,28.14-10.59,61.31-17.15,99.51-.01.06.03.1.13.13.06.01.1,0,.12-.07,11.81-36.92,22.05-68.98,30.72-96.19.06-.18-.03-.37-.21-.43,0,0,0,0-.01,0-2.14-.69-4.32-1.31-6.54-1.85" vector-effect="non-scaling-stroke"/>
    <path class="cls-1" d="M112.09,85.79c.09-.03.11-.09.08-.2-7.24-23.8-15.2-49.95-23.89-78.44-.07-.22-.3-.34-.51-.27,0,0,0,0,0,0-.77.25-1.62.54-2.56.86-.94.33-1.79.63-2.54.9-.21.07-.33.3-.26.52,0,0,0,.01,0,.02,10.72,27.79,20.56,53.29,29.53,76.5.03.1.08.14.15.11" vector-effect="non-scaling-stroke"/>
    <path class="cls-1" d="M135.5,100.36s.04.02.07.01c.06,0,.12-.03.14-.07L175.65,11.68c.09-.21,0-.46-.2-.56-1.62-.76-3.28-1.47-4.99-2.13-1.71-.65-3.43-1.23-5.14-1.74-.22-.07-.46.06-.53.28l-29.31,92.68s0,.1.05.15c.02.02,0,.02-.03,0" vector-effect="non-scaling-stroke"/>
    <path class="cls-1" d="M72.79,12.69c-2.13,1.01-4.2,2.08-6.22,3.21-.17.09-.23.3-.14.47,0,0,0,0,0,.01,14.28,25.66,31.14,55.9,50.57,90.71.03.05.08.07.14.04.09-.04.13-.09.1-.15-14.4-37.18-26.92-69.46-37.56-96.83-.07-.18-.27-.27-.44-.21,0,0-.01,0-.02,0-2.16.83-4.31,1.74-6.44,2.74" vector-effect="non-scaling-stroke"/>
    <path class="cls-1" d="M182.79,14.74c-1.43-.73-2.84-1.41-4.25-2.04-.23-.11-.5,0-.61.23,0,0,0,0,0,0-12.88,28.81-25.79,57.71-38.73,86.71-.04.09-.04.15,0,.17.06.03.11,0,.16-.08,15.97-27.45,31.88-54.82,47.73-82.11.12-.22.05-.49-.16-.62-1.34-.78-2.72-1.53-4.14-2.26" vector-effect="non-scaling-stroke"/>
    <path class="cls-1" d="M101.8,86.08c.07-.04.09-.08.07-.11-18.94-33.9-31.62-56.48-38.04-67.74-.1-.18-.32-.25-.51-.18-.65.27-1.31.6-1.97.99-.65.39-1.25.82-1.78,1.28-.16.14-.19.36-.08.54,6.98,10.92,21.06,32.65,42.25,65.19.02.03.04.04.06.03" vector-effect="non-scaling-stroke"/>
    <path class="cls-1" d="M138.45,107.22l62.24-80.4c.22-.29.16-.7-.13-.92,0,0-.01-.01-.02-.02l-10.23-7.09c-.31-.22-.73-.14-.95.17-.01.02-.02.03-.03.05l-50.91,88.19s0,.02.02.02c0,0,0,0,.01,0" vector-effect="non-scaling-stroke"/>
    <path class="cls-1" d="M52.72,24.86c-1.32.96-2.59,1.94-3.81,2.93-.19.16-.23.45-.07.65,20.25,24.98,40.58,50.03,60.98,75.15.07.08.12.11.15.08.05-.04.05-.1,0-.19-17.59-27.16-35.14-54.23-52.64-81.21-.14-.21-.43-.27-.65-.13-1.32.86-2.64,1.77-3.96,2.72" vector-effect="non-scaling-stroke"/>
    <path class="cls-1" d="M145.81,102.4s.1.02.17-.05c23.63-25.12,44.89-47.75,63.78-67.9.21-.22.21-.57,0-.79-.89-.95-1.86-1.87-2.92-2.78-1.05-.9-2.12-1.71-3.19-2.44-.25-.18-.6-.12-.79.12-16.95,21.8-35.99,46.33-57.11,73.59-.06.08-.04.16.06.25" vector-effect="non-scaling-stroke"/>
    <path class="cls-1" d="M43.09,31.88c-.72.63-1.49,1.34-2.32,2.12-.23.22-.24.58-.02.81,25.64,26.81,46.05,48.14,61.24,63.99.05.05.09.05.13.02.06-.05.07-.1.03-.15-13.83-17.05-32.45-39.96-55.86-68.75-.2-.24-.55-.27-.8-.08-.87.72-1.67,1.4-2.4,2.04" vector-effect="non-scaling-stroke"/>
    <path class="cls-1" d="M159.55,92.18s.04.02.07,0c27.92-26.12,46.5-43.58,55.75-52.37.15-.14.17-.37.05-.54-.41-.56-.88-1.11-1.41-1.64s-1.08-1-1.64-1.41c-.17-.12-.4-.1-.54.05-8.79,9.25-26.23,27.85-52.32,55.8-.03.03-.01.07.04.12" vector-effect="non-scaling-stroke"/>
    <path class="cls-1" d="M105.29,106.41s-.05.03-.04.01c.02-.06.01-.13-.02-.16L39.21,37.09c-.16-.16-.42-.17-.59-.02-1.29,1.19-2.55,2.44-3.78,3.76-1.23,1.32-2.4,2.67-3.49,4.04-.14.18-.11.44.06.59l73.66,60.98s.09.03.15.01c.03,0,.05-.02.07-.04" vector-effect="non-scaling-stroke"/>
    <path class="cls-1" d="M156.27,99.16c.06.07.13.07.22,0,19.73-16.03,41.41-33.64,65.02-52.83.18-.15.2-.41.06-.59,0,0,0,0,0,0-.53-.63-1.12-1.32-1.79-2.09-.67-.76-1.28-1.45-1.84-2.06-.16-.17-.42-.18-.59-.02-22.17,20.85-42.51,39.98-61.02,57.4-.08.08-.1.15-.05.2" vector-effect="non-scaling-stroke"/>
    <path class="cls-1" d="M23.57,54.35c-1.81,2.6-3.35,5-4.62,7.2-.3.52-.12,1.18.39,1.48,0,0,0,0,0,0l92.74,53.09s.05,0,.08-.02c.01,0,.02-.01.03-.02,0-.01,0-.03,0-.04,0-.03,0-.07,0-.08L30.25,47.38c-.46-.38-1.14-.33-1.52.13,0,0,0,0,0,0-1.62,1.95-3.34,4.23-5.15,6.83" vector-effect="non-scaling-stroke"/>
    <path class="cls-1" d="M226.04,51.43c-.73-.99-1.46-1.93-2.19-2.82-.2-.23-.53-.26-.76-.07-14.53,11.78-34.9,28.31-61.11,49.6-5.87,4.76-8.77,7.18-8.72,7.25.05.07,3.21-2.01,9.47-6.24,27.99-18.9,49.73-33.59,65.22-44.06.25-.16.31-.5.15-.75-.64-.96-1.33-1.93-2.06-2.91" vector-effect="non-scaling-stroke"/>
    <path class="cls-1" d="M146.46,113.47s.03.04.06.06c.06.04.12.05.16.02l89.1-45.92c.21-.11.29-.37.19-.59-.81-1.65-1.7-3.29-2.66-4.92-.97-1.63-1.98-3.19-3.03-4.7-.14-.19-.41-.24-.61-.11l-83.12,56.02s-.06.09-.05.16c0,.03-.01.02-.04-.02" vector-effect="non-scaling-stroke"/>
    <path class="cls-2" d="M94.1,109.03c.31.66.89,1.08,1.76,1.27.06.02.12,0,.14-.07.02-.06,0-.12-.06-.14l-1.84-1.06" vector-effect="non-scaling-stroke"/>
    <path class="cls-1" d="M94.1,109.03L17.08,65.1c-.09-.05-.2-.02-.25.06,0,0,0,0,0,0l-3.39,6.37c-.06.12-.02.26.1.32,0,0,0,0,.01,0l79.98,37.37c.12.06.26.04.36-.04.07-.06.14-.12.21-.17" vector-effect="non-scaling-stroke"/>
    <path class="cls-1" d="M240.74,76.86c-.92-2.17-1.91-4.29-2.98-6.36-.09-.17-.3-.23-.47-.14,0,0,0,0,0,0-26.24,13.37-57.16,29.15-92.75,47.34-.05.03-.07.07-.05.13.05.09.1.13.16.11,37.77-13.06,70.57-24.42,98.39-34.08.18-.06.28-.25.23-.43,0,0,0-.01,0-.02-.75-2.19-1.59-4.38-2.52-6.55" vector-effect="non-scaling-stroke"/>
    <path class="cls-2" d="M302.75,98.18c5.03.01,7.84.02,8.45.03.37,0,.7.22.85.56l3.53,7.82c.17.37.54.61.96.61h3.76c.21.01.38-.15.39-.36,0-.06-.01-.11-.04-.17l-15.45-34.26c-.15-.33-.46-.56-.82-.6-.51-.06-1.03-.09-1.56-.09s-1.05.03-1.56.08c-.36.04-.68.27-.83.6l-15.62,34.18c-.09.19,0,.42.18.5.05.02.11.04.17.04l3.77.02c.42,0,.79-.24.96-.61l3.56-7.81c.16-.34.49-.55.86-.55.61,0,3.42,0,8.44,0" vector-effect="non-scaling-stroke"/>
    <path class="cls-2" d="M504.09,98.19c5.04,0,7.86.01,8.47.02.37,0,.71.22.86.56l3.55,7.84c.17.37.55.61.96.61h3.77c.21,0,.38-.16.39-.37,0-.06-.01-.11-.04-.17l-15.54-34.33c-.15-.33-.47-.56-.83-.6-.51-.06-1.03-.09-1.56-.09s-1.05.03-1.56.08c-.37.04-.68.27-.83.61l-15.61,34.29c-.09.19,0,.42.18.5.05.02.11.04.17.04h3.77c.41.01.79-.23.96-.6l3.57-7.83c.15-.34.49-.56.86-.56h8.46" vector-effect="non-scaling-stroke"/>
    <path class="cls-2" d="M670.08,98.19c5.04,0,7.86.01,8.47.01.37,0,.71.23.86.57l3.55,7.84c.17.37.55.61.96.61h3.78c.21,0,.38-.16.39-.37,0-.06-.01-.11-.04-.17l-15.55-34.34c-.15-.33-.47-.56-.83-.6-.51-.06-1.03-.09-1.56-.09s-1.05.03-1.56.08c-.36.04-.68.27-.83.6l-15.62,34.31c-.09.19,0,.42.18.5.05.02.11.04.17.04h3.78c.41.01.79-.23.96-.6l3.56-7.83c.15-.34.49-.56.87-.56.61,0,3.43,0,8.46,0" vector-effect="non-scaling-stroke"/>
    <path class="cls-2" d="M451.05,89.83c.04,2.99.64,5.59,1.8,7.8,4.22,8.05,11.01,11.24,20.36,9.56,3.33-.59,6.46-2.43,9.37-5.52.26-.27.25-.7-.03-.96-.01-.01-.03-.03-.04-.04l-2.64-2.04c-.22-.17-.52-.15-.72.04-3.29,3.13-7.14,4.88-11.52,4.56-6.94-.5-11.72-6.77-11.82-13.47-.09-6.7,4.51-13.1,11.42-13.8,4.38-.45,8.27,1.19,11.65,4.22.2.18.51.19.72.02l2.58-2.12c.29-.24.33-.67.09-.96-.01-.01-.02-.03-.04-.04-3.01-3-6.18-4.75-9.53-5.24-9.4-1.41-16.09,1.97-20.08,10.14-1.09,2.23-1.62,4.85-1.57,7.85" vector-effect="non-scaling-stroke"/>
    <path class="cls-2" d="M596.64,98.19c5.03,0,7.84,0,8.45.01.37,0,.71.22.86.56l3.54,7.83c.17.37.55.61.96.61h3.77c.21,0,.38-.16.39-.37,0-.06-.01-.11-.04-.17l-15.51-34.28c-.15-.34-.47-.57-.83-.61-.51-.05-1.03-.08-1.56-.08s-1.05.03-1.56.08c-.36.04-.68.27-.83.6l-15.59,34.25c-.09.19,0,.42.18.5.05.02.11.04.17.04h3.76c.42.01.8-.22.97-.6l3.56-7.82c.15-.34.49-.56.86-.56.61,0,3.42,0,8.45,0" vector-effect="non-scaling-stroke"/>
    <path class="cls-2" d="M617.08,89.87c.05,2.99.65,5.59,1.81,7.8,4.23,8.07,11.02,11.26,20.39,9.57,3.33-.59,6.46-2.44,9.38-5.53.26-.27.25-.7-.03-.96-.01-.01-.03-.03-.04-.04l-2.65-2.04c-.22-.17-.53-.15-.72.04-3.29,3.13-7.14,4.88-11.53,4.56-6.95-.49-11.74-6.76-11.84-13.48-.1-6.71,4.51-13.12,11.43-13.82,4.38-.45,8.28,1.19,11.67,4.22.2.18.5.19.72.02l2.58-2.12c.29-.24.32-.67.08-.96-.01-.01-.02-.03-.04-.04-3.01-3-6.19-4.75-9.54-5.25-9.41-1.41-16.11,1.98-20.1,10.17-1.09,2.24-1.61,4.86-1.57,7.86" vector-effect="non-scaling-stroke"/>
    <path class="cls-2" d="M343.4,97.68c.23,0,.41-.11.56-.33,2.79-4.11,6.58-9.6,11.38-16.47.06-.08.18-.09.25-.03.04.03.06.08.07.13v25.73c0,.28.22.51.5.51h3.54c.3,0,.55-.25.55-.55v-34.01c0-.36-.29-.65-.65-.65h-3.3c-.37,0-.71.18-.92.49-2.71,4.08-6.58,9.86-11.61,17.35-.06.09-.18.13-.37.13-.16,0-.27-.04-.33-.13-4.99-7.51-8.84-13.31-11.53-17.4-.2-.31-.54-.49-.91-.5h-3.3c-.36-.02-.65.27-.66.63h0s-.15,34.01-.15,34.01c0,.3.24.55.54.56,0,0,0,0,.01,0h3.54c.28,0,.5-.22.5-.5l.12-25.73c.01-.1.1-.17.2-.16.05,0,.09.03.12.07,4.77,6.89,8.53,12.4,11.3,16.52.15.22.33.33.55.33" vector-effect="non-scaling-stroke"/>
    <path class="cls-2" d="M369.99,89.55c.02,11.3.03,16.97.04,17.01.03.36.33.65.7.65l24.61-.05c.29,0,.53-.24.53-.53v-3.29c0-.27-.23-.49-.5-.49h0l-19.96.06c-.35,0-.64-.29-.64-.64l-.03-9.81c0-.33.27-.6.6-.61l17.2-.05c.36,0,.66-.27.71-.63.03-.23.04-.79.03-1.66,0-.88-.01-1.44-.04-1.67-.05-.36-.35-.63-.71-.63l-17.2.02c-.34,0-.61-.27-.61-.61h0v-9.81c0-.35.28-.63.63-.64h19.97c.27-.01.49-.23.49-.5v-3.29c0-.29-.24-.53-.53-.53,0,0,0,0-.01,0l-24.61.04c-.37,0-.67.29-.7.65,0,.05,0,5.72.03,17.01" vector-effect="non-scaling-stroke"/>
    <path class="cls-2" d="M431.83,106.38l-10.03-12.82c-.21-.26-.17-.65.1-.86.08-.06.17-.11.27-.12,6.95-1.34,10.63-8.65,7.17-14.89-2.07-3.73-6.18-5.45-10.33-5.66-3.02-.16-8.39-.19-16.12-.08-.25,0-.45.21-.45.45v34.41c0,.22.18.4.4.4h4.08c.23,0,.42-.19.42-.42v-12.58c0-.23.18-.41.41-.41h7.86c.3,0,.58.14.76.37l9.64,12.31c.36.46.91.73,1.49.73h3.92c.29,0,.52-.23.52-.52,0-.11-.04-.22-.11-.31" vector-effect="non-scaling-stroke"/>
    <path class="cls-2" d="M443.03,72.42c0-.28-.23-.51-.51-.51h-3.56c-.28,0-.51.23-.51.51h0v34.28c0,.28.23.51.51.51h3.56c.28,0,.51-.23.51-.51v-34.28" vector-effect="non-scaling-stroke"/>
    <path class="cls-2" d="M527.74,106.9c0,.17.13.3.3.3h4.3c.17,0,.3-.13.3-.3v-26.18c0-.17.13-.3.3-.3.09,0,.18.04.24.12l20.75,26.52c.06.08.15.12.24.12h3.17c.17,0,.3-.13.3-.3v-34.64c0-.17-.13-.3-.3-.3h-3.6c-.17,0-.3.13-.3.3v25.93c0,.17-.13.3-.3.3-.09,0-.18-.04-.24-.12l-20.6-26.33c-.06-.08-.15-.12-.24-.12h-4.02c-.17,0-.3.13-.3.3v34.7" vector-effect="non-scaling-stroke"/>
    <path class="cls-2" d="M693.79,72.18l-.12,34.66c0,.15.13.28.28.28l12.69.04c9.97.04,18.08-7.47,18.11-16.77h0v-1.56c.03-9.29-8.02-16.85-17.99-16.89l-12.69-.04c-.15,0-.28.13-.28.28h0" vector-effect="non-scaling-stroke"/>
    <path class="cls-2" d="M732.79,89.51c-.01,11.3-.02,16.97-.01,17.02.03.36.33.65.7.65l24.62.02c.29,0,.53-.24.53-.53h0v-3.29c0-.27-.22-.49-.49-.49h-19.97c-.35,0-.64-.29-.64-.64h0v-9.81c0-.34.27-.61.61-.61h17.2c.36,0,.66-.27.71-.63.03-.23.04-.78.04-1.66,0-.88,0-1.44-.04-1.67-.05-.36-.35-.63-.71-.63l-17.2-.03c-.34,0-.61-.28-.6-.62h0s.02-9.81.02-9.81c0-.35.29-.63.64-.63l19.97.04c.27,0,.49-.22.49-.49v-3.29c.01-.29-.23-.53-.52-.53h0l-24.62-.03c-.37,0-.67.28-.71.64,0,.05,0,5.72-.02,17.02" vector-effect="non-scaling-stroke"/>
    <path class="cls-2" d="M782.15,97.68c.23,0,.41-.11.56-.33,2.77-4.13,6.55-9.64,11.32-16.54.06-.08.18-.09.25-.03.04.03.06.08.07.13l.11,25.76c0,.28.23.5.5.5h3.55c.3-.02.54-.26.54-.56l-.14-34.05c0-.36-.29-.65-.65-.65h-3.3c-.37.01-.72.2-.92.51-2.69,4.09-6.54,9.9-11.55,17.42-.06.09-.19.13-.38.13-.15,0-.26-.04-.32-.13-5.03-7.5-8.91-13.29-11.62-17.38-.21-.31-.55-.49-.92-.49h-3.3c-.36,0-.65.29-.65.65l-.02,34.05c0,.3.25.55.55.55,0,0,0,0,.01,0h3.54c.28,0,.5-.23.5-.51v-25.76c.02-.1.1-.17.2-.17.05,0,.1.03.13.07,4.8,6.89,8.59,12.39,11.38,16.5.15.22.34.33.56.33" vector-effect="non-scaling-stroke"/>
    <path class="cls-2" d="M821.32,107.14c.98,0,1.56,0,1.75-.03.32-.03.56-.3.56-.61l-.04-11.59c0-1,.3-1.99.87-2.82l13.42-19.53c.14-.19.09-.45-.1-.59-.07-.05-.16-.08-.25-.08l-4.14.02c-.49,0-.96.25-1.23.66-3.35,5.11-6.85,10.33-10.5,15.67-.08.12-.22.18-.42.18-.16,0-.28-.06-.36-.18-3.69-5.31-7.22-10.52-10.59-15.61-.28-.41-.74-.65-1.23-.65h-4.14c-.24.01-.43.2-.43.44,0,.09.03.17.08.24l13.53,19.45c.58.83.89,1.81.89,2.81l.02,11.6c0,.31.25.57.57.6.18.02.76.03,1.74.02" vector-effect="non-scaling-stroke"/>
    <path class="cls-1" d="M10,79.23c-.61,1.51-1.16,3-1.67,4.49-.09.24.04.51.29.6,0,0,0,0,0,0,30.36,10.33,60.82,20.69,91.37,31.06.09.03.15.03.17,0,.02-.06-.01-.11-.1-.16-29.27-13.59-58.46-27.12-87.55-40.61-.23-.1-.5,0-.61.23-.66,1.43-1.29,2.89-1.9,4.4" vector-effect="non-scaling-stroke"/>
    <path class="cls-2" d="M132.18,79.27c0,.05.08.17.23.36.07.1.21.11.31.04.03-.03.06-.06.07-.1.06-.17.08-.29.06-.38-.05-.18-.23-.29-.41-.25-.15.04-.26.17-.26.33" vector-effect="non-scaling-stroke"/>
    <path class="cls-1" d="M245.36,90.03c-.27-.9-.59-1.87-.94-2.92-.1-.29-.41-.45-.7-.36-34.3,11.73-61.59,21.08-81.87,28.05-.06.02-.08.07-.06.14.01.05.05.07.12.05,20.79-5.27,48.74-12.37,83.87-21.31.3-.08.48-.39.4-.69-.28-1.07-.55-2.05-.82-2.96" vector-effect="non-scaling-stroke"/>
    <path class="cls-1" d="M100.15,118.59s-.02.06-.03.03c0-.06-.04-.11-.09-.13L7.9,87.08c-.22-.07-.46.04-.54.26-.61,1.68-1.16,3.4-1.65,5.17-.49,1.77-.9,3.54-1.25,5.29-.04.23.11.45.34.5l95.17,20.42s.1-.01.14-.06c.02-.02.03-.04.04-.07" vector-effect="non-scaling-stroke"/>
    <path class="cls-2" d="M128.56,88.12c-.12.16-.18.27-.19.32-.02.1.04.19.14.21.07.02.15-.02.19-.08.02-.03.05-.14.1-.33.01-.08-.04-.15-.11-.16-.05,0-.09,0-.13.04" vector-effect="non-scaling-stroke"/>
    <path class="cls-1" d="M143.08,122.98c.03.16.28.22.77.19,35.39-2.28,70.8-4.55,106.23-6.81.16-.01.28-.15.27-.31,0,0,0,0,0-.01-.33-3.27-.76-6.57-1.29-9.88-.52-3.31-1.13-6.57-1.83-9.79-.03-.16-.19-.26-.34-.22,0,0-.01,0-.02,0-34.39,8.82-68.76,17.62-103.11,26.41-.47.12-.7.26-.68.42" vector-effect="non-scaling-stroke"/>
    <path class="cls-1" d="M2.48,107.7c-.33,2.29-.57,4.56-.74,6.82-.02.19.12.35.31.37,0,0,0,0,.01,0,28.69,2.17,62.5,4.7,101.43,7.59.06,0,.09-.02.1-.08.02-.11,0-.17-.07-.18-38.15-8.28-71.29-15.45-99.4-21.52-.18-.04-.37.07-.41.25,0,0,0,0,0,0-.49,2.21-.9,4.46-1.23,6.74" vector-effect="non-scaling-stroke"/>
    <path class="cls-2" d="M135.05,101.07c-.05.09-.08.2-.11.31-.02.08.02.17.1.19s.17-.02.19-.1h0c.07-.21.08-.34.04-.41-.04-.06-.12-.07-.18-.03-.02.01-.03.03-.04.04" vector-effect="non-scaling-stroke"/>
    <path class="cls-1" d="M1.02,123.14c-.03,1.65-.03,3.26.02,4.85,0,.26.22.47.48.46,0,0,0,0,.01,0,32.49-1.01,65.09-2.04,97.78-3.09.11,0,.16-.03.16-.1,0-.05-.05-.08-.15-.09-32.62-2.46-65.14-4.9-97.56-7.32-.26-.02-.49.17-.51.43,0,0,0,0,0,0-.11,1.59-.19,3.21-.23,4.86" vector-effect="non-scaling-stroke"/>
    <path class="cls-1" d="M150.91,125.85c0,.07.03.13.08.18.04.03.1.05.19.05.45.01,33.36,2.12,98.73,6.33.24.01.45-.16.47-.4.24-2.05.36-4.1.36-6.15s-.12-4.1-.35-6.15c-.02-.24-.23-.42-.48-.4-65.37,4.19-98.28,6.29-98.73,6.3-.09,0-.15.02-.19.05-.05.05-.08.12-.08.19" vector-effect="non-scaling-stroke"/>
    <path class="cls-2" d="M141.57,123.62c.21-.02.39-.08.54-.18.13-.09.17-.27.08-.4-.05-.08-.14-.12-.23-.13-.21,0-.41.07-.6.23-.12.09-.14.26-.05.38.06.08.16.12.26.1" vector-effect="non-scaling-stroke"/>
    <path class="cls-2" d="M80.48,128.47c-.55-.03-.86-.02-.93.03-.12.08-.16.24-.08.36.03.05.07.08.12.1.16.07.47.03.94-.12.1-.03.15-.14.12-.24-.02-.07-.09-.13-.17-.13" vector-effect="non-scaling-stroke"/>
    <path class="cls-1" d="M77.62,129.12c0-.08-.02-.12-.07-.11-37.78,1.21-62.97,2.08-75.58,2.59-.21,0-.37.17-.39.37-.07.68-.07,1.39-.02,2.13.05.75.15,1.45.3,2.12.04.2.23.33.44.31,12.56-1.15,37.65-3.61,75.26-7.37.04,0,.06-.02.06-.04" vector-effect="non-scaling-stroke"/>
    <path class="cls-1" d="M3.27,147.91c.49,2.69,1.06,5.34,1.73,7.97.07.3.38.48.68.41,0,0,0,0,0,0,33.39-8.86,67.28-17.88,101.66-27.05.05-.01.07-.05.06-.11-.01-.06-.04-.09-.09-.08-35.42,3.42-70.32,6.81-104.7,10.18-.31.03-.53.31-.5.61,0,0,0,0,0,0,.29,2.69.68,5.38,1.16,8.06" vector-effect="non-scaling-stroke"/>
    <path class="cls-2" d="M159.21,129.67c-.16-.11-.3-.17-.41-.16-.12,0-.2.11-.2.22,0,.09.06.16.15.19.24.06.36.09.37.09.1-.01.18-.11.16-.21,0-.05-.03-.1-.07-.13" vector-effect="non-scaling-stroke"/>
    <path class="cls-1" d="M160.99,129.58c-.01.13.03.2.13.21,32.38,5.17,61.54,9.81,87.48,13.91.29.05.57-.13.63-.42.27-1.21.47-2.47.62-3.78.15-1.31.22-2.59.22-3.82,0-.29-.22-.53-.51-.55-26.21-1.69-55.68-3.57-88.41-5.63-.1,0-.15.02-.16.08" vector-effect="non-scaling-stroke"/>
    <path class="cls-1" d="M247.99,151.92c.35-1.62.65-3.22.91-4.8.04-.26-.14-.51-.4-.55,0,0,0,0,0,0-32.29-5.17-64.69-10.34-97.19-15.52-.11-.01-.17.01-.18.08,0,.05.04.08.14.11,31.76,8.63,63.42,17.21,94.99,25.76.25.06.51-.08.58-.33.42-1.55.8-3.13,1.15-4.75" vector-effect="non-scaling-stroke"/>
    <path class="cls-1" d="M243.08,168.37c.94-2.59,1.79-5.21,2.55-7.84.08-.3-.1-.62-.4-.7,0,0,0,0,0,0-33.66-9.26-67.84-18.64-102.53-28.13-.05-.01-.08,0-.1.07-.02.05,0,.09.04.11,32.67,15.05,64.87,29.85,96.6,44.41.28.13.62,0,.75-.28,1.11-2.51,2.14-5.05,3.09-7.64" vector-effect="non-scaling-stroke"/>
    <path class="cls-1" d="M233.92,188.07c1.32-2.29,2.82-5.17,4.49-8.65.08-.15.02-.34-.14-.42l-98.06-45.14s-.08-.01-.12.02c-.01.01-.02.03-.03.04-.01.01-.02.03-.02.05-.01.05,0,.1.04.12l88.17,62.28c.15.09.34.06.43-.08,2.18-3.2,3.93-5.94,5.24-8.22" vector-effect="non-scaling-stroke"/>
    <path class="cls-1" d="M7.14,163.89c.5,1.54,1.03,3.04,1.58,4.51.09.24.36.36.6.27,0,0,0,0,0,0,29.87-11.39,59.84-22.83,89.89-34.32.1-.03.14-.08.12-.14-.02-.05-.08-.06-.17-.04-31.11,8.21-62.13,16.4-93.04,24.57-.24.07-.39.32-.32.57.4,1.51.85,3.04,1.34,4.58" vector-effect="non-scaling-stroke"/>
    <path class="cls-1" d="M103.35,135.84s-.03-.04-.05-.06c-.05-.05-.12-.06-.16-.04L10.29,171.17c-.23.08-.34.33-.26.56.62,1.72,1.32,3.43,2.09,5.14.77,1.71,1.59,3.37,2.47,4.97.11.21.37.28.58.18l88.08-46.05s.07-.08.07-.15c0-.03.01-.02.03.02" vector-effect="non-scaling-stroke"/>
    <path class="cls-2" d="M307.15,137.67c-9.65-2.42-19.45,3.48-21.89,13.19s3.41,19.55,13.06,21.97h0c9.65,2.42,19.45-3.48,21.89-13.19h0c2.44-9.71-3.41-19.55-13.06-21.97h0" vector-effect="non-scaling-stroke"/>
    <path class="cls-2" d="M394.26,137.52c-9.67-2.2-19.31,3.97-21.54,13.78-2.23,9.81,3.8,19.54,13.47,21.73h0c9.67,2.2,19.31-3.97,21.54-13.78,2.23-9.81-3.8-19.54-13.47-21.73h0" vector-effect="non-scaling-stroke"/>
    <path class="cls-2" d="M695.56,155.26c0-9.99-8.09-18.08-18.08-18.08h0c-9.99,0-18.08,8.09-18.08,18.08h0c0,9.99,8.09,18.08,18.08,18.08h0c9.99,0,18.08-8.09,18.08-18.08h0" vector-effect="non-scaling-stroke"/>
    <path class="cls-2" d="M751.52,137.72c-9.56-2.65-19.5,3.06-22.19,12.76-2.69,9.7,2.88,19.71,12.45,22.36,9.56,2.65,19.5-3.06,22.19-12.75,2.69-9.7-2.88-19.71-12.45-22.36" vector-effect="non-scaling-stroke"/>
    <path class="cls-2" d="M798.36,144.9l1.83-2.37c.3-.39.24-.95-.15-1.25h0c-3.69-2.92-7.95-4.3-12.76-4.14-20.48.69-24.19,30.2-4.76,35.54,6.58,1.81,12.85.05,18.35-3.69.72-.49,1.16-1.3,1.16-2.18v-12.81c0-.22-.18-.39-.4-.39h-14.21c-.38,0-.68.3-.68.67h0v2.85c0,.38.3.68.68.68h9.36c.36,0,.66.3.66.66h0v5.82c0,1.1-.62,2.1-1.6,2.58-4.47,2.22-8.66,2.66-12.58,1.32-8.12-2.78-10.8-12.91-6.83-20.03,4.38-7.85,14.53-8.9,20.57-3.16.37.35.95.34,1.3-.03.02-.02.04-.04.06-.07" vector-effect="non-scaling-stroke"/>
    <path class="cls-2" d="M351.03,153.98c0-.19-.16-.35-.35-.35h-17.71c-.19,0-.35-.16-.35-.35h0v-10.73c0-.19.16-.35.35-.35h20.01c.19,0,.35-.16.35-.35v-3.89c0-.19-.16-.35-.35-.35h-24.89c-.19,0-.35.16-.35.35v34.49c0,.19.16.35.35.35h4.21c.19,0,.35-.16.35-.35v-14.29c0-.19.16-.35.35-.35h17.68c.19,0,.35-.16.35-.35v-3.48" vector-effect="non-scaling-stroke"/>
    <path class="cls-2" d="M419.65,172.72v-11.34c0-.33.27-.6.6-.6,0,0,.01,0,.02,0,6.32.15,12.07.56,16.98-2.9,3.23-2.28,5.02-6.62,4.23-10.72-1.52-7.95-8.25-9.91-15.8-9.57-.53.03-3.92.03-10.17.01-.25,0-.46.21-.46.47v34.4c0,.2.16.37.36.37h4.12c.07,0,.12-.05.12-.12" vector-effect="non-scaling-stroke"/>
    <path class="cls-2" d="M461.54,157.27c5.49,0,8.45.02,8.9.05.35.02.62.31.62.66v14.38c0,.2.16.37.36.37h3.98c.18,0,.33-.15.33-.33h0v-34.24c0-.29-.24-.53-.53-.53h-3.6c-.3,0-.55.25-.55.55v14.46c0,.17-.14.31-.32.32-1.05.02-4.12.03-9.19.03s-8.14-.01-9.19-.03c-.18,0-.32-.15-.32-.32v-14.46c0-.3-.25-.55-.55-.55h-3.6c-.29,0-.53.24-.53.53v34.24c0,.18.15.33.33.33h3.98c.2,0,.36-.17.36-.37h0v-14.38c0-.35.27-.64.62-.66.45-.03,3.41-.05,8.9-.05" vector-effect="non-scaling-stroke"/>
    <path class="cls-2" d="M495.21,137.61c-8.85,0-13.28,0-13.3,0-.24-.01-.45.18-.46.42,0,0,0,0,0,.01l-.07,3.59c0,.31.25.57.56.58,0,0,0,0,.01,0h10.21c.32,0,.58.26.58.57h0v29.28c0,.34.24.63.58.68.39.06,1.01.09,1.87.09s1.48-.03,1.87-.09c.34-.05.58-.34.58-.68l.03-29.28c0-.31.26-.57.58-.57h0l10.21.02c.31,0,.57-.26.57-.57,0,0,0,0,0-.01l-.06-3.59c0-.24-.2-.44-.44-.44,0,0-.01,0-.02,0h-13.3" vector-effect="non-scaling-stroke"/>
    <path class="cls-2" d="M528.75,157.25c5.52,0,8.51.03,8.96.06.35.03.62.32.62.67v14.47c0,.2.15.37.35.37h4.01c.18.01.33-.14.33-.32,0,0,0,0,0-.01l.03-34.46c0-.29-.24-.53-.53-.53h-3.63c-.3-.01-.55.24-.55.54,0,0,0,0,0,.01v14.55c-.01.17-.15.31-.33.32-1.07.02-4.15.03-9.26.02-5.1,0-8.18-.02-9.25-.04-.18,0-.32-.15-.32-.32l.02-14.55c0-.3-.24-.55-.54-.56,0,0-.01,0-.02,0h-3.62c-.29,0-.53.24-.53.53l-.04,34.47c0,.18.15.33.33.33h4.01c.2,0,.36-.17.36-.37l.02-14.47c0-.35.27-.64.62-.67.45-.03,3.44-.05,8.96-.04" vector-effect="non-scaling-stroke"/>
    <path class="cls-2" d="M566.02,163.87c5.03,0,7.84.01,8.45.02.37,0,.71.22.86.56l3.54,7.83c.17.37.55.61.96.61h3.77c.21,0,.38-.16.39-.37,0-.06-.01-.11-.04-.17l-15.51-34.29c-.15-.33-.47-.56-.83-.6-.51-.06-1.03-.09-1.56-.09s-1.05.03-1.56.08c-.36.04-.68.27-.83.6l-15.6,34.25c-.09.19,0,.42.18.5.05.02.11.04.17.04h3.77c.41.01.79-.23.96-.6l3.56-7.82c.15-.34.49-.56.86-.56.61,0,3.43,0,8.46.01" vector-effect="non-scaling-stroke"/>
    <path class="cls-2" d="M589.86,137.65c-.28,0-.5.22-.5.5v34.15c0,.28.22.5.5.5h23.01c.28,0,.5-.22.5-.5v-3.19c0-.28-.22-.5-.5-.5h-18.27c-.28,0-.5-.22-.5-.5v-29.96c0-.28-.22-.5-.5-.5h-3.74" vector-effect="non-scaling-stroke"/>
    <path class="cls-2" d="M635.6,163.35c.23,0,.41-.11.56-.34,2.78-4.13,6.56-9.66,11.35-16.58.06-.08.18-.09.25-.03.04.03.06.08.07.13l.11,25.82c0,.28.22.51.5.51h3.56c.3,0,.55-.26.55-.56h0l-.15-34.14c0-.36-.29-.65-.65-.65l-3.31.02c-.37,0-.72.18-.93.49-2.69,4.11-6.55,9.93-11.57,17.46-.06.09-.19.13-.38.14-.16,0-.27-.04-.32-.13-5.05-7.52-8.93-13.33-11.65-17.42-.21-.31-.55-.49-.92-.49h-3.31c-.36,0-.65.29-.65.65h0s-.02,34.13-.02,34.13c0,.3.25.55.55.55,0,0,0,0,.01,0h3.55c.28,0,.5-.23.5-.51h0v-25.82c.02-.1.1-.17.2-.17.05,0,.1.03.13.07,4.81,6.9,8.62,12.41,11.41,16.54.15.22.34.33.56.33" vector-effect="non-scaling-stroke"/>
    <path class="cls-2" d="M821.35,172.87c.98,0,1.56,0,1.75-.02.32-.03.56-.3.56-.61v-11.63c0-1,.31-1.99.88-2.82l13.52-19.54c.13-.2.08-.46-.12-.6-.07-.05-.15-.07-.23-.07h-4.15c-.49,0-.96.25-1.23.66-3.37,5.11-6.9,10.34-10.58,15.68-.08.11-.22.17-.43.17-.16,0-.28-.06-.36-.17-3.67-5.34-7.2-10.57-10.57-15.69-.27-.41-.74-.66-1.23-.66h-4.15c-.24,0-.43.2-.42.44,0,.08.03.16.07.23l13.51,19.55c.57.84.87,1.82.87,2.82v11.63c-.01.32.24.58.56.61.18.01.76.02,1.75.02" vector-effect="non-scaling-stroke"/>
    <path class="cls-2" d="M702.75,172.83h23.21c.36-.01.65-.3.65-.66h0s-.02-2.87-.02-2.87c0-.38-.3-.68-.68-.68h-18.1c-.29,0-.53-.24-.54-.54h0s-.02-29.96-.02-29.96c0-.3-.23-.54-.53-.55,0,0,0,0-.01,0l-3.66.02c-.29,0-.53.24-.53.53h0v34.48c0,.13.1.23.23.23h0" vector-effect="non-scaling-stroke"/>
    <path class="cls-2" d="M863.27,146.72c0-5.06-4.11-9.17-9.17-9.17s-9.17,4.11-9.17,9.17,4.11,9.17,9.17,9.17,9.17-4.11,9.17-9.17" vector-effect="non-scaling-stroke"/>
    <path class="cls-1" d="M23.05,196.06c.91,1.33,1.83,2.61,2.77,3.85.15.2.44.25.64.09,0,0,0,0,0,0,25.2-19.25,50.48-38.57,75.83-57.95.08-.07.11-.12.08-.15-.04-.05-.1-.06-.18-.01-27.28,16.57-54.47,33.09-81.57,49.56-.21.13-.28.41-.15.63.81,1.33,1.66,2.65,2.57,3.98" vector-effect="non-scaling-stroke"/>
    <path class="cls-1" d="M47.06,222.29c1.8,1.47,3.64,2.86,5.51,4.18.15.11.37.07.47-.08,0,0,0,0,0,0,16.77-23.69,36.52-51.62,59.25-83.8.04-.05.03-.09-.02-.14-.08-.06-.14-.07-.18-.02-26.98,28.7-50.4,53.64-70.25,74.81-.13.13-.13.35,0,.48,0,0,0,0,0,0,1.66,1.57,3.39,3.1,5.2,4.57" vector-effect="non-scaling-stroke"/>
    <path class="cls-1" d="M180.36,238.04c2.47-1.2,4.89-2.48,7.25-3.84.27-.16.36-.5.21-.77-17.64-29.94-35.57-60.32-53.78-91.13-.03-.04-.07-.05-.12-.03-.05.03-.07.06-.06.11,12.93,33.38,25.68,66.27,38.27,98.66.12.29.45.43.74.31,2.53-1.01,5.02-2.12,7.49-3.31" vector-effect="non-scaling-stroke"/>
    <path class="cls-1" d="M223.77,203c1.01-1.28,1.97-2.56,2.88-3.85.15-.21.1-.5-.11-.65-26.24-18.57-52.57-37.2-78.99-55.87-.08-.06-.14-.06-.18-.01-.03.03-.01.09.07.16,24.27,21.39,48.46,42.7,72.59,63.95.19.17.49.15.66-.04,1.04-1.19,2.07-2.42,3.08-3.69" vector-effect="non-scaling-stroke"/>
    <path class="cls-1" d="M196.46,228.36c1.9-1.31,3.74-2.68,5.52-4.1.15-.12.17-.33.05-.48h0c-17.93-22.6-39.07-49.22-63.43-79.86-.04-.05-.09-.05-.14-.02-.09.06-.11.12-.08.17,19.87,33.73,37.13,63.02,51.8,87.85.09.16.3.22.46.12,0,0,0,0,0,0,1.97-1.15,3.9-2.37,5.81-3.68" vector-effect="non-scaling-stroke"/>
    <path class="cls-1" d="M60.41,231.8c2.85,1.76,4.52,2.77,5.03,3.04.3.15.67.04.83-.26l47.73-89.61s0-.02-.01-.03c0,0,0-.01,0-.01,0,0-.01-.01-.01-.01-.01,0-.03,0-.04.01l-58.64,82.88c-.2.28-.13.66.14.86.47.33,2.13,1.38,4.98,3.13" vector-effect="non-scaling-stroke"/>
    <path class="cls-1" d="M131.65,145.14l22.53,101.7c.07.31.38.5.69.43.01,0,.03,0,.04-.01l14.3-4.32c.32-.1.49-.43.39-.74,0-.01,0-.02-.01-.04l-37.63-97.11c-.02-.09-.11-.13-.2-.11-.09.02-.13.11-.11.2" vector-effect="non-scaling-stroke"/>
    <path class="cls-1" d="M36.19,212.02c1.11,1.15,2.22,2.25,3.34,3.3.19.17.48.16.65-.02,21.51-22.98,43.09-46.04,64.72-69.18.07-.07.09-.13.04-.17-.03-.04-.09-.03-.16.04-23.99,20.69-47.89,41.33-71.72,61.91-.18.17-.2.45-.04.64,1.01,1.17,2.06,2.33,3.17,3.48" vector-effect="non-scaling-stroke"/>
    <path class="cls-1" d="M85.4,148.68c-.04-.07-.08-.1-.12-.08-34.31,17.93-57.17,29.94-68.58,36.02-.18.1-.26.32-.19.51.24.66.55,1.32.93,1.98.37.67.78,1.27,1.22,1.82.13.16.36.2.54.09,11.08-6.65,33.13-20.07,66.16-40.28.03-.02.05-.04.04-.06" vector-effect="non-scaling-stroke"/>
    <path class="cls-1" d="M215.79,212.47c.87-.89,1.68-1.78,2.45-2.66.2-.23.18-.58-.05-.78-14.22-12.57-34.17-30.19-59.85-52.87-5.75-5.08-8.65-7.59-8.72-7.52-.06.06,2.55,2.87,7.83,8.44,23.59,24.85,41.92,44.15,54.99,57.91.21.22.55.23.78.02.85-.8,1.7-1.65,2.57-2.54" vector-effect="non-scaling-stroke"/>
    <path class="cls-1" d="M122.21,149.82s-.05,0-.08,0c-.07.02-.11.06-.12.11l-21.03,97.66c-.05.23.1.47.33.52,1.79.42,3.61.77,5.48,1.06,1.86.29,3.71.51,5.54.65.24.02.45-.16.47-.4l9.46-99.45s-.03-.11-.09-.14c-.02-.02,0-.02.04-.01" vector-effect="non-scaling-stroke"/>
    <path class="cls-1" d="M207.67,220.09c.94-.81,1.83-1.62,2.67-2.43.22-.21.22-.55.02-.77-13-13.75-31.24-33.03-54.71-57.84-5.25-5.55-7.91-8.3-7.98-8.24s2.27,3.09,7.02,9.08c21.2,26.77,37.68,47.58,49.43,62.41.19.24.53.28.77.09.91-.72,1.84-1.49,2.78-2.3" vector-effect="non-scaling-stroke"/>
    <path class="cls-1" d="M73.02,238.61c1.45.67,2.89,1.3,4.33,1.89.23.1.5-.02.6-.25,11.86-29.31,23.75-58.71,35.68-88.2.03-.09.02-.15-.04-.18-.04-.02-.08.01-.13.1-15.01,28.05-29.96,56.02-44.86,83.9-.12.22-.04.5.18.62,0,0,0,0,0,0,1.37.73,2.78,1.43,4.23,2.11" vector-effect="non-scaling-stroke"/>
    <path class="cls-2" d="M117.79,155.41c-.13.18-.19.29-.19.34-.01.23.16.43.4.44.06,0,.11,0,.16-.02.31-.11.46-.28.47-.49,0-.25-.19-.46-.45-.47-.16,0-.3.07-.39.2" vector-effect="non-scaling-stroke"/>
    <path class="cls-1" d="M89.28,155.51c-.05-.06-.09-.08-.12-.05-30.65,23.27-51.05,38.82-61.21,46.67-.17.13-.22.36-.11.54.35.6.76,1.19,1.24,1.78.48.59.98,1.12,1.5,1.58.15.14.38.14.54,0,9.75-8.36,29.13-25.18,58.14-50.46.03-.03.03-.05.02-.07" vector-effect="non-scaling-stroke"/>
    <path class="cls-1" d="M126.6,156.97c-.13,0-.2.05-.2.15-.99,34.3-1.85,65.18-2.6,92.65,0,.31.23.56.53.59,1.29.12,2.62.17,4,.14,1.38-.03,2.71-.12,3.99-.29.3-.04.53-.3.51-.61-1.79-27.42-3.84-58.25-6.13-92.48,0-.1-.04-.15-.1-.15" vector-effect="non-scaling-stroke"/>
    <path class="cls-1" d="M117.52,157.15c-.06-.01-.1.03-.13.12-10.33,32.19-19.6,61.17-27.82,86.96-.09.29.06.59.34.7,1.19.47,2.44.88,3.75,1.23,1.31.35,2.6.63,3.85.82.3.05.58-.14.65-.44,5.81-26.43,12.32-56.16,19.51-89.19.03-.1-.02-.17-.15-.2" vector-effect="non-scaling-stroke"/>
    <path class="cls-2" d="M129.59,160.17l.21-.29c.05-.07.03-.17-.04-.22-.05-.03-.12-.04-.17,0-.17.09-.24.25-.23.46.01.07.08.12.15.11.03,0,.06-.02.08-.05" vector-effect="non-scaling-stroke"/>
    <path class="cls-2" d="M113.17,160.56c-.23.31-.4.65-.5,1.03-.04.1.02.22.13.25.1.03.2-.01.24-.1.3-.53.45-.88.46-1.07,0-.1-.07-.18-.17-.19-.06,0-.13.03-.16.08" vector-effect="non-scaling-stroke"/>
    <path class="cls-1" d="M139.68,249.59c1.19-.13,2.35-.29,3.47-.47.29-.05.49-.32.44-.61-2.84-18.16-6.83-43.63-11.97-76.41-1.15-7.34-1.76-11-1.85-10.99-.09,0,.12,3.71.63,11.12,2.23,33.11,3.97,58.84,5.22,77.17.02.29.27.52.57.5,0,0,0,0,0,0,1.13-.07,2.29-.18,3.49-.31" vector-effect="non-scaling-stroke"/>
    <path class="cls-1" d="M83.46,242.86c.87.31,1.81.64,2.83.97.29.09.6-.06.69-.35,0,0,0,0,0,0,10.71-33.65,19.21-60.43,25.52-80.35.02-.06,0-.1-.05-.11-.07-.03-.11-.01-.13.04-7.93,19.33-18.58,45.34-31.95,78.02-.11.28.02.59.3.71,0,0,0,0,0,0,1,.4,1.93.76,2.79,1.07" vector-effect="non-scaling-stroke"/>
    <path class="cls-2" d="M134.93,170.83c.01-.07-.06-.28-.23-.63-.04-.1-.15-.14-.25-.1-.06.03-.1.08-.11.14-.04.18-.02.38.05.61.05.15.2.23.35.18.09-.03.17-.11.19-.2" vector-effect="non-scaling-stroke"/>
    <path class="cls-1" d="M134.77,172.36c-.07.01-.11.04-.1.08,5.73,37.94,9.6,63.23,11.62,75.87.04.21.21.36.42.35.69-.01,1.41-.09,2.15-.23.75-.14,1.45-.33,2.1-.56.19-.07.3-.27.26-.47-2.66-12.53-8.13-37.52-16.4-74.99-.01-.04-.03-.06-.05-.05" vector-effect="non-scaling-stroke"/>
    <path class="cls-1" d="M122.76,175.3s-.03.02-.03.06c-3.55,37.08-5.87,61.81-6.95,74.19-.02.2.11.39.31.43.66.15,1.36.24,2.09.29.73.05,1.43.04,2.1-.03.2-.02.36-.19.36-.39.45-12.42,1.2-37.25,2.23-74.48,0-.04-.03-.06-.11-.07" vector-effect="non-scaling-stroke"/>
    <path class="cls-2" d="M295.89,93.16c-.07.16,0,.34.15.41.04.02.09.03.14.03l13.33.02c.17,0,.31-.14.31-.31,0-.04,0-.09-.03-.13l-6.64-14.73c-.07-.16-.25-.23-.41-.16-.07.03-.13.09-.16.16l-6.69,14.71" vector-effect="non-scaling-stroke"/>
    <path class="cls-2" d="M497.16,93.05c-.09.2,0,.44.21.53.05.02.1.03.15.03h13.04c.22,0,.4-.19.39-.41,0-.05-.01-.11-.03-.15l-6.52-14.53c-.1-.2-.34-.28-.53-.19-.08.04-.15.1-.19.19l-6.52,14.53" vector-effect="non-scaling-stroke"/>
    <path class="cls-2" d="M663.18,93.02c-.09.21,0,.46.21.55.06.02.12.04.18.04h12.94c.23,0,.42-.18.43-.41,0-.06-.01-.12-.04-.18l-6.48-14.52c-.1-.21-.35-.3-.56-.2-.09.04-.16.11-.2.2l-6.48,14.52" vector-effect="non-scaling-stroke"/>
    <path class="cls-2" d="M596.62,93.61c3.64-.01,5.86,0,6.67.07.19.01.35-.13.36-.31,0-.06,0-.12-.03-.18-1.32-2.75-3.36-7.24-6.13-13.45-.43-.97-.74-1.45-.94-1.45s-.5.49-.92,1.46c-2.71,6.24-4.71,10.74-6.01,13.5-.08.17-.02.37.15.46.06.03.12.04.19.03.8-.07,3.02-.11,6.66-.13" vector-effect="non-scaling-stroke"/>
    <path class="cls-2" d="M407.27,76.91l.15,12.38c0,.2.16.36.36.36l10.01-.12c4.43-.06,7.99-2.89,7.95-6.33v-.64c-.04-3.44-3.67-6.18-8.11-6.13,0,0,0,0,0,0l-10.01.12c-.19,0-.35.17-.35.36" vector-effect="non-scaling-stroke"/>
    <path class="cls-2" d="M698.62,76.76v25.64c0,.15.12.27.27.27h8.01c7.26,0,13.14-5.77,13.14-12.89h0v-.4c0-7.12-5.88-12.89-13.14-12.89h-8.01c-.15,0-.27.12-.27.27" vector-effect="non-scaling-stroke"/>
    <path class="cls-2" d="M301.99,141.52c-7.24.37-12.8,6.81-12.42,14.39h0c.38,7.58,6.57,13.43,13.81,13.06,7.24-.37,12.8-6.81,12.42-14.39h0c-.38-7.58-6.57-13.43-13.81-13.06" vector-effect="non-scaling-stroke"/>
    <path class="cls-2" d="M390.51,141.49c-7.23-.16-13.23,5.85-13.4,13.44-.17,7.59,5.55,13.87,12.77,14.03h0c7.23.16,13.23-5.85,13.4-13.44.17-7.59-5.55-13.87-12.77-14.03h0" vector-effect="non-scaling-stroke"/>
    <path class="cls-2" d="M677.07,141.49c-7.22.21-12.88,6.54-12.66,14.13.23,7.59,6.26,13.57,13.47,13.36,7.22-.21,12.88-6.54,12.66-14.13-.23-7.59-6.26-13.57-13.47-13.36" vector-effect="non-scaling-stroke"/>
    <path class="cls-2" d="M746.15,141.51c-7.22.24-12.87,6.58-12.62,14.17.25,7.58,6.31,13.54,13.53,13.3,7.22-.24,12.87-6.58,12.62-14.17-.25-7.58-6.31-13.54-13.53-13.3h0" vector-effect="non-scaling-stroke"/>
    <path class="cls-2" d="M419.59,142.57l.1,13.28c0,.19.16.35.35.35l9.29-.07c4.16-.03,7.51-2.96,7.49-6.55v-.98c-.02-3.59-3.42-6.48-7.58-6.45,0,0,0,0,0,0l-9.29.07c-.19,0-.35.16-.35.35" vector-effect="non-scaling-stroke"/>
    <path class="cls-2" d="M559.04,158.97c-.1.24,0,.51.24.62.06.03.12.04.19.04l13.06-.04c.26,0,.47-.22.46-.48,0-.07-.02-.13-.04-.19l-6.58-14.64c-.11-.23-.39-.33-.63-.22-.1.05-.18.13-.22.23l-6.48,14.68" vector-effect="non-scaling-stroke"/>
    <path class="cls-2" d="M862.45,146.77c0-4.57-3.7-8.27-8.27-8.27-4.57,0-8.27,3.7-8.27,8.27h0c0,4.57,3.7,8.27,8.27,8.27h0c4.57,0,8.27-3.7,8.27-8.27" vector-effect="non-scaling-stroke"/>
    <path class="cls-2" d="M857.81,151.59c.29,0,.53-.24.53-.53,0-.08-.02-.16-.06-.24l-1.27-2.47c-.15-.29-.07-.64.19-.83,1.69-1.27,1.84-2.87.44-4.79-.19-.26-.46-.45-.77-.53-1.91-.55-3.98-.75-6.22-.58-.34.03-.61.31-.61.66v8.58c0,.35.29.64.64.64h1.31c.35,0,.63-.28.63-.63h0v-2.09c0-.25.21-.46.46-.46.05,0,.11,0,.16.03.93.37,1.6,1.04,2.02,2.01.31.75,1.05,1.23,1.86,1.23h.69" vector-effect="non-scaling-stroke"/>
    <path class="cls-2" d="M852.56,145.23c.01,1.12.86,1.6,1.92,1.38,1.25-.26,1.88-.73,1.87-1.42,0-.69-.64-1.15-1.89-1.38-1.07-.2-1.91.29-1.9,1.42" vector-effect="non-scaling-stroke"/>
  </g>
  <rect class="cls-3" x="1.02" y="1" width="862.25" height="249.51"/>
  <path class="cls-3" d="M125.61,78.1c.07,0,.11-.02.12-.06,1.25-38.21,2.02-63.7,2.33-76.46,0-.2-.14-.38-.34-.41-.69-.11-1.41-.17-2.16-.17s-1.47.06-2.15.17c-.21.03-.36.21-.35.42.34,12.75,1.18,38.24,2.51,76.45,0,.04.02.06.04.06Z"/>
  <path class="cls-3" d="M112.6,1.65c-2.32.25-4.61.57-6.87.98-.19.03-.31.21-.28.4,0,0,0,0,0,.01,5.07,28.7,11.06,62.52,17.99,101.46,0,.07.06.09.17.08.07,0,.1-.04.09-.11-1.44-39.53-2.71-73.85-3.81-102.97,0-.19-.16-.35-.35-.34,0,0,0,0-.01,0-2.29.08-4.6.24-6.93.49Z"/>
  <path class="cls-3" d="M134.36,1.31c-.93-.07-1.94-.12-3.03-.15-.31,0-.56.23-.57.53-1.01,35.81-1.81,64.31-2.39,85.5,0,.06.03.09.08.1.07,0,.11-.03.12-.09,2.32-21.07,5.42-49.41,9.31-85.02.03-.3-.19-.57-.49-.61,0,0,0,0,0,0-1.09-.11-2.09-.2-3.02-.26Z"/>
  <path class="cls-3" d="M132.81,77.35s.03,0,.04-.05c6.49-37.06,10.77-61.78,12.83-74.16.04-.21-.09-.4-.28-.46-.65-.2-1.34-.35-2.07-.45-.74-.11-1.45-.15-2.13-.14-.2,0-.37.16-.39.36-1.43,12.47-4.14,37.42-8.11,74.83,0,.04.03.06.11.07Z"/>
  <path class="cls-3" d="M120.11,101.58s.05-.01.07-.03c.06-.04.08-.1.07-.15L102.54,3.6c-.04-.24-.26-.4-.5-.36-1.8.29-3.61.66-5.43,1.11-1.83.44-3.61.94-5.34,1.51-.23.07-.36.31-.29.54l29.03,95.06s.06.09.13.1c.03,0,.02.01-.03.02Z"/>
  <path class="cls-3" d="M155.53,4.7c-2.23-.55-4.45-1.01-6.67-1.38-.18-.03-.35.09-.39.27,0,0,0,0,0,0-4.87,28.14-10.59,61.31-17.15,99.51-.01.06.03.1.13.13.06.01.1,0,.12-.07,11.81-36.92,22.05-68.98,30.72-96.19.06-.18-.03-.37-.21-.43,0,0,0,0-.01,0-2.14-.69-4.32-1.31-6.54-1.85Z"/>
  <path class="cls-3" d="M112.09,85.79c.09-.03.11-.09.08-.2-7.24-23.8-15.2-49.95-23.89-78.44-.07-.22-.3-.34-.51-.27,0,0,0,0,0,0-.77.25-1.62.54-2.56.86-.94.33-1.79.63-2.54.9-.21.07-.33.3-.26.52,0,0,0,.01,0,.02,10.72,27.79,20.56,53.29,29.53,76.5.03.1.08.14.15.11Z"/>
  <path class="cls-3" d="M135.5,100.36s.04.02.07.01c.06,0,.12-.03.14-.07L175.65,11.68c.09-.21,0-.46-.2-.56-1.62-.76-3.28-1.47-4.99-2.13-1.71-.65-3.43-1.23-5.14-1.74-.22-.07-.46.06-.53.28l-29.31,92.68s0,.1.05.15c.02.02,0,.02-.03,0Z"/>
  <path class="cls-3" d="M72.79,12.69c-2.13,1.01-4.2,2.08-6.22,3.21-.17.09-.23.3-.14.47,0,0,0,0,0,.01,14.28,25.66,31.14,55.9,50.57,90.71.03.05.08.07.14.04.09-.04.13-.09.1-.15-14.4-37.18-26.92-69.46-37.56-96.83-.07-.18-.27-.27-.44-.21,0,0-.01,0-.02,0-2.16.83-4.31,1.74-6.44,2.74Z"/>
  <path class="cls-3" d="M182.79,14.74c-1.43-.73-2.84-1.41-4.25-2.04-.23-.11-.5,0-.61.23,0,0,0,0,0,0-12.88,28.81-25.79,57.71-38.73,86.71-.04.09-.04.15,0,.17.06.03.11,0,.16-.08,15.97-27.45,31.88-54.82,47.73-82.11.12-.22.05-.49-.16-.62-1.34-.78-2.72-1.53-4.14-2.26Z"/>
  <path class="cls-3" d="M101.8,86.08c.07-.04.09-.08.07-.11-18.94-33.9-31.62-56.48-38.04-67.74-.1-.18-.32-.25-.51-.18-.65.27-1.31.6-1.97.99-.65.39-1.25.82-1.78,1.28-.16.14-.19.36-.08.54,6.98,10.92,21.06,32.65,42.25,65.19.02.03.04.04.06.03Z"/>
  <path class="cls-3" d="M138.45,107.22l62.24-80.4c.22-.29.16-.7-.13-.92,0,0-.01-.01-.02-.02l-10.23-7.09c-.31-.22-.73-.14-.95.17-.01.02-.02.03-.03.05l-50.91,88.19s0,.02.02.02c0,0,0,0,.01,0Z"/>
  <path class="cls-3" d="M52.72,24.86c-1.32.96-2.59,1.94-3.81,2.93-.19.16-.23.45-.07.65,20.25,24.98,40.58,50.03,60.98,75.15.07.08.12.11.15.08.05-.04.05-.1,0-.19-17.59-27.16-35.14-54.23-52.64-81.21-.14-.21-.43-.27-.65-.13-1.32.86-2.64,1.77-3.96,2.72Z"/>
  <path class="cls-3" d="M145.81,102.4s.1.02.17-.05c23.63-25.12,44.89-47.75,63.78-67.9.21-.22.21-.57,0-.79-.89-.95-1.86-1.87-2.92-2.78-1.05-.9-2.12-1.71-3.19-2.44-.25-.18-.6-.12-.79.12-16.95,21.8-35.99,46.33-57.11,73.59-.06.08-.04.16.06.25Z"/>
  <path class="cls-3" d="M43.09,31.88c-.72.63-1.49,1.34-2.32,2.12-.23.22-.24.58-.02.81,25.64,26.81,46.05,48.14,61.24,63.99.05.05.09.05.13.02.06-.05.07-.1.03-.15-13.83-17.05-32.45-39.96-55.86-68.75-.2-.24-.55-.27-.8-.08-.87.72-1.67,1.4-2.4,2.04Z"/>
  <path class="cls-3" d="M159.55,92.18s.04.02.07,0c27.92-26.12,46.5-43.58,55.75-52.37.15-.14.17-.37.05-.54-.41-.56-.88-1.11-1.41-1.64s-1.08-1-1.64-1.41c-.17-.12-.4-.1-.54.05-8.79,9.25-26.23,27.85-52.32,55.8-.03.03-.01.07.04.12Z"/>
  <path class="cls-3" d="M105.29,106.41s-.05.03-.04.01c.02-.06.01-.13-.02-.16L39.21,37.09c-.16-.16-.42-.17-.59-.02-1.29,1.19-2.55,2.44-3.78,3.76-1.23,1.32-2.4,2.67-3.49,4.04-.14.18-.11.44.06.59l73.66,60.98s.09.03.15.01c.03,0,.05-.02.07-.04Z"/>
  <path class="cls-3" d="M156.27,99.16c.06.07.13.07.22,0,19.73-16.03,41.41-33.64,65.02-52.83.18-.15.2-.41.06-.59,0,0,0,0,0,0-.53-.63-1.12-1.32-1.79-2.09-.67-.76-1.28-1.45-1.84-2.06-.16-.17-.42-.18-.59-.02-22.17,20.85-42.51,39.98-61.02,57.4-.08.08-.1.15-.05.2Z"/>
  <path class="cls-3" d="M23.57,54.35c-1.81,2.6-3.35,5-4.62,7.2-.3.52-.12,1.18.39,1.48,0,0,0,0,0,0l92.74,53.09s.05,0,.08-.02c.01,0,.02-.01.03-.02,0-.01,0-.03,0-.04,0-.03,0-.07,0-.08L30.25,47.38c-.46-.38-1.14-.33-1.52.13,0,0,0,0,0,0-1.62,1.95-3.34,4.23-5.15,6.83Z"/>
  <path class="cls-3" d="M226.04,51.43c-.73-.99-1.46-1.93-2.19-2.82-.2-.23-.53-.26-.76-.07-14.53,11.78-34.9,28.31-61.11,49.6-5.87,4.76-8.77,7.18-8.72,7.25.05.07,3.21-2.01,9.47-6.24,27.99-18.9,49.73-33.59,65.22-44.06.25-.16.31-.5.15-.75-.64-.96-1.33-1.93-2.06-2.91Z"/>
  <path class="cls-3" d="M146.46,113.47s.03.04.06.06c.06.04.12.05.16.02l89.1-45.92c.21-.11.29-.37.19-.59-.81-1.65-1.7-3.29-2.66-4.92-.97-1.63-1.98-3.19-3.03-4.7-.14-.19-.41-.24-.61-.11l-83.12,56.02s-.06.09-.05.16c0,.03-.01.02-.04-.02Z"/>
  <path class="cls-3" d="M94.1,109.03c.31.66.89,1.08,1.76,1.27.06.02.12,0,.14-.07.02-.06,0-.12-.06-.14l-1.84-1.06L17.08,65.1c-.09-.05-.2-.02-.25.06,0,0,0,0,0,0l-3.39,6.37c-.06.12-.02.26.1.32,0,0,0,0,.01,0l79.98,37.37c.12.06.26.04.36-.04.07-.06.14-.12.21-.17Z"/>
  <path class="cls-3" d="M240.74,76.86c-.92-2.17-1.91-4.29-2.98-6.36-.09-.17-.3-.23-.47-.14,0,0,0,0,0,0-26.24,13.37-57.16,29.15-92.75,47.34-.05.03-.07.07-.05.13.05.09.1.13.16.11,37.77-13.06,70.57-24.42,98.39-34.08.18-.06.28-.25.23-.43,0,0,0-.01,0-.02-.75-2.19-1.59-4.38-2.52-6.55Z"/>
  <path class="cls-3" d="M302.75,98.18c5.03.01,7.84.02,8.45.03.37,0,.7.22.85.56l3.53,7.82c.17.37.54.61.96.61h3.76c.21.01.38-.15.39-.36,0-.06-.01-.11-.04-.17l-15.45-34.26c-.15-.33-.46-.56-.82-.6-.51-.06-1.03-.09-1.56-.09s-1.05.03-1.56.08c-.36.04-.68.27-.83.6l-15.62,34.18c-.09.19,0,.42.18.5.05.02.11.04.17.04l3.77.02c.42,0,.79-.24.96-.61l3.56-7.81c.16-.34.49-.55.86-.55.61,0,3.42,0,8.44,0Z"/>
  <path class="cls-3" d="M504.09,98.19c5.04,0,7.86.01,8.47.02.37,0,.71.22.86.56l3.55,7.84c.17.37.55.61.96.61h3.77c.21,0,.38-.16.39-.37,0-.06-.01-.11-.04-.17l-15.54-34.33c-.15-.33-.47-.56-.83-.6-.51-.06-1.03-.09-1.56-.09s-1.05.03-1.56.08c-.37.04-.68.27-.83.61l-15.61,34.29c-.09.19,0,.42.18.5.05.02.11.04.17.04h3.77c.41.01.79-.23.96-.6l3.57-7.83c.15-.34.49-.56.86-.56h8.46Z"/>
  <path class="cls-3" d="M670.08,98.19c5.04,0,7.86.01,8.47.01.37,0,.71.23.86.57l3.55,7.84c.17.37.55.61.96.61h3.78c.21,0,.38-.16.39-.37,0-.06-.01-.11-.04-.17l-15.55-34.34c-.15-.33-.47-.56-.83-.6-.51-.06-1.03-.09-1.56-.09s-1.05.03-1.56.08c-.36.04-.68.27-.83.6l-15.62,34.31c-.09.19,0,.42.18.5.05.02.11.04.17.04h3.78c.41.01.79-.23.96-.6l3.56-7.83c.15-.34.49-.56.87-.56.61,0,3.43,0,8.46,0Z"/>
  <path class="cls-3" d="M451.05,89.83c.04,2.99.64,5.59,1.8,7.8,4.22,8.05,11.01,11.24,20.36,9.56,3.33-.59,6.46-2.43,9.37-5.52.26-.27.25-.7-.03-.96-.01-.01-.03-.03-.04-.04l-2.64-2.04c-.22-.17-.52-.15-.72.04-3.29,3.13-7.14,4.88-11.52,4.56-6.94-.5-11.72-6.77-11.82-13.47-.09-6.7,4.51-13.1,11.42-13.8,4.38-.45,8.27,1.19,11.65,4.22.2.18.51.19.72.02l2.58-2.12c.29-.24.33-.67.09-.96-.01-.01-.02-.03-.04-.04-3.01-3-6.18-4.75-9.53-5.24-9.4-1.41-16.09,1.97-20.08,10.14-1.09,2.23-1.62,4.85-1.57,7.85Z"/>
  <path class="cls-3" d="M596.64,98.19c5.03,0,7.84,0,8.45.01.37,0,.71.22.86.56l3.54,7.83c.17.37.55.61.96.61h3.77c.21,0,.38-.16.39-.37,0-.06-.01-.11-.04-.17l-15.51-34.28c-.15-.34-.47-.57-.83-.61-.51-.05-1.03-.08-1.56-.08s-1.05.03-1.56.08c-.36.04-.68.27-.83.6l-15.59,34.25c-.09.19,0,.42.18.5.05.02.11.04.17.04h3.76c.42.01.8-.22.97-.6l3.56-7.82c.15-.34.49-.56.86-.56.61,0,3.42,0,8.45,0Z"/>
  <path class="cls-3" d="M617.08,89.87c.05,2.99.65,5.59,1.81,7.8,4.23,8.07,11.02,11.26,20.39,9.57,3.33-.59,6.46-2.44,9.38-5.53.26-.27.25-.7-.03-.96-.01-.01-.03-.03-.04-.04l-2.65-2.04c-.22-.17-.53-.15-.72.04-3.29,3.13-7.14,4.88-11.53,4.56-6.95-.49-11.74-6.76-11.84-13.48-.1-6.71,4.51-13.12,11.43-13.82,4.38-.45,8.28,1.19,11.67,4.22.2.18.5.19.72.02l2.58-2.12c.29-.24.32-.67.08-.96-.01-.01-.02-.03-.04-.04-3.01-3-6.19-4.75-9.54-5.25-9.41-1.41-16.11,1.98-20.1,10.17-1.09,2.24-1.61,4.86-1.57,7.86Z"/>
  <path class="cls-3" d="M343.4,97.68c.23,0,.41-.11.56-.33,2.79-4.11,6.58-9.6,11.38-16.47.06-.08.18-.09.25-.03.04.03.06.08.07.13v25.73c0,.28.22.51.5.51h3.54c.3,0,.55-.25.55-.55v-34.01c0-.36-.29-.65-.65-.65h-3.3c-.37,0-.71.18-.92.49-2.71,4.08-6.58,9.86-11.61,17.35-.06.09-.18.13-.37.13-.16,0-.27-.04-.33-.13-4.99-7.51-8.84-13.31-11.53-17.4-.2-.31-.54-.49-.91-.5h-3.3c-.36-.02-.65.27-.66.63h0s-.15,34.01-.15,34.01c0,.3.24.55.54.56,0,0,0,0,.01,0h3.54c.28,0,.5-.22.5-.5l.12-25.73c.01-.1.1-.17.2-.16.05,0,.09.03.12.07,4.77,6.89,8.53,12.4,11.3,16.52.15.22.33.33.55.33Z"/>
  <path class="cls-3" d="M369.99,89.55c.02,11.3.03,16.97.04,17.01.03.36.33.65.7.65l24.61-.05c.29,0,.53-.24.53-.53v-3.29c0-.27-.23-.49-.5-.49h0l-19.96.06c-.35,0-.64-.29-.64-.64l-.03-9.81c0-.33.27-.6.6-.61l17.2-.05c.36,0,.66-.27.71-.63.03-.23.04-.79.03-1.66,0-.88-.01-1.44-.04-1.67-.05-.36-.35-.63-.71-.63l-17.2.02c-.34,0-.61-.27-.61-.61h0v-9.81c0-.35.28-.63.63-.64h19.97c.27-.01.49-.23.49-.5v-3.29c0-.29-.24-.53-.53-.53,0,0,0,0-.01,0l-24.61.04c-.37,0-.67.29-.7.65,0,.05,0,5.72.03,17.01Z"/>
  <path class="cls-3" d="M431.83,106.38l-10.03-12.82c-.21-.26-.17-.65.1-.86.08-.06.17-.11.27-.12,6.95-1.34,10.63-8.65,7.17-14.89-2.07-3.73-6.18-5.45-10.33-5.66-3.02-.16-8.39-.19-16.12-.08-.25,0-.45.21-.45.45v34.41c0,.22.18.4.4.4h4.08c.23,0,.42-.19.42-.42v-12.58c0-.23.18-.41.41-.41h7.86c.3,0,.58.14.76.37l9.64,12.31c.36.46.91.73,1.49.73h3.92c.29,0,.52-.23.52-.52,0-.11-.04-.22-.11-.31Z"/>
  <path class="cls-3" d="M443.03,72.42c0-.28-.23-.51-.51-.51h-3.56c-.28,0-.51.23-.51.51h0v34.28c0,.28.23.51.51.51h3.56c.28,0,.51-.23.51-.51v-34.28Z"/>
  <path class="cls-3" d="M527.74,106.9c0,.17.13.3.3.3h4.3c.17,0,.3-.13.3-.3v-26.18c0-.17.13-.3.3-.3.09,0,.18.04.24.12l20.75,26.52c.06.08.15.12.24.12h3.17c.17,0,.3-.13.3-.3v-34.64c0-.17-.13-.3-.3-.3h-3.6c-.17,0-.3.13-.3.3v25.93c0,.17-.13.3-.3.3-.09,0-.18-.04-.24-.12l-20.6-26.33c-.06-.08-.15-.12-.24-.12h-4.02c-.17,0-.3.13-.3.3v34.7Z"/>
  <path class="cls-3" d="M693.79,72.18l-.12,34.66c0,.15.13.28.28.28l12.69.04c9.97.04,18.08-7.47,18.11-16.77h0v-1.56c.03-9.29-8.02-16.85-17.99-16.89l-12.69-.04c-.15,0-.28.13-.28.28h0Z"/>
  <path class="cls-3" d="M732.79,89.51c-.01,11.3-.02,16.97-.01,17.02.03.36.33.65.7.65l24.62.02c.29,0,.53-.24.53-.53h0v-3.29c0-.27-.22-.49-.49-.49h-19.97c-.35,0-.64-.29-.64-.64h0v-9.81c0-.34.27-.61.61-.61h17.2c.36,0,.66-.27.71-.63.03-.23.04-.78.04-1.66,0-.88,0-1.44-.04-1.67-.05-.36-.35-.63-.71-.63l-17.2-.03c-.34,0-.61-.28-.6-.62h0s.02-9.81.02-9.81c0-.35.29-.63.64-.63l19.97.04c.27,0,.49-.22.49-.49v-3.29c.01-.29-.23-.53-.52-.53h0l-24.62-.03c-.37,0-.67.28-.71.64,0,.05,0,5.72-.02,17.02Z"/>
  <path class="cls-3" d="M782.15,97.68c.23,0,.41-.11.56-.33,2.77-4.13,6.55-9.64,11.32-16.54.06-.08.18-.09.25-.03.04.03.06.08.07.13l.11,25.76c0,.28.23.5.5.5h3.55c.3-.02.54-.26.54-.56l-.14-34.05c0-.36-.29-.65-.65-.65h-3.3c-.37.01-.72.2-.92.51-2.69,4.09-6.54,9.9-11.55,17.42-.06.09-.19.13-.38.13-.15,0-.26-.04-.32-.13-5.03-7.5-8.91-13.29-11.62-17.38-.21-.31-.55-.49-.92-.49h-3.3c-.36,0-.65.29-.65.65l-.02,34.05c0,.3.25.55.55.55,0,0,0,0,.01,0h3.54c.28,0,.5-.23.5-.51v-25.76c.02-.1.1-.17.2-.17.05,0,.1.03.13.07,4.8,6.89,8.59,12.39,11.38,16.5.15.22.34.33.56.33Z"/>
  <path class="cls-3" d="M821.32,107.14c.98,0,1.56,0,1.75-.03.32-.03.56-.3.56-.61l-.04-11.59c0-1,.3-1.99.87-2.82l13.42-19.53c.14-.19.09-.45-.1-.59-.07-.05-.16-.08-.25-.08l-4.14.02c-.49,0-.96.25-1.23.66-3.35,5.11-6.85,10.33-10.5,15.67-.08.12-.22.18-.42.18-.16,0-.28-.06-.36-.18-3.69-5.31-7.22-10.52-10.59-15.61-.28-.41-.74-.65-1.23-.65h-4.14c-.24.01-.43.2-.43.44,0,.09.03.17.08.24l13.53,19.45c.58.83.89,1.81.89,2.81l.02,11.6c0,.31.25.57.57.6.18.02.76.03,1.74.02Z"/>
  <path class="cls-3" d="M10,79.23c-.61,1.51-1.16,3-1.67,4.49-.09.24.04.51.29.6,0,0,0,0,0,0,30.36,10.33,60.82,20.69,91.37,31.06.09.03.15.03.17,0,.02-.06-.01-.11-.1-.16-29.27-13.59-58.46-27.12-87.55-40.61-.23-.1-.5,0-.61.23-.66,1.43-1.29,2.89-1.9,4.4Z"/>
  <path class="cls-3" d="M132.18,79.27c0,.05.08.17.23.36.07.1.21.11.31.04.03-.03.06-.06.07-.1.06-.17.08-.29.06-.38-.05-.18-.23-.29-.41-.25-.15.04-.26.17-.26.33Z"/>
  <path class="cls-3" d="M245.36,90.03c-.27-.9-.59-1.87-.94-2.92-.1-.29-.41-.45-.7-.36-34.3,11.73-61.59,21.08-81.87,28.05-.06.02-.08.07-.06.14.01.05.05.07.12.05,20.79-5.27,48.74-12.37,83.87-21.31.3-.08.48-.39.4-.69-.28-1.07-.55-2.05-.82-2.96Z"/>
  <path class="cls-3" d="M100.15,118.59s-.02.06-.03.03c0-.06-.04-.11-.09-.13L7.9,87.08c-.22-.07-.46.04-.54.26-.61,1.68-1.16,3.4-1.65,5.17-.49,1.77-.9,3.54-1.25,5.29-.04.23.11.45.34.5l95.17,20.42s.1-.01.14-.06c.02-.02.03-.04.04-.07Z"/>
  <path class="cls-3" d="M128.56,88.12c-.12.16-.18.27-.19.32-.02.1.04.19.14.21.07.02.15-.02.19-.08.02-.03.05-.14.1-.33.01-.08-.04-.15-.11-.16-.05,0-.09,0-.13.04Z"/>
  <path class="cls-3" d="M143.08,122.98c.03.16.28.22.77.19,35.39-2.28,70.8-4.55,106.23-6.81.16-.01.28-.15.27-.31,0,0,0,0,0-.01-.33-3.27-.76-6.57-1.29-9.88-.52-3.31-1.13-6.57-1.83-9.79-.03-.16-.19-.26-.34-.22,0,0-.01,0-.02,0-34.39,8.82-68.76,17.62-103.11,26.41-.47.12-.7.26-.68.42Z"/>
  <path class="cls-3" d="M2.48,107.7c-.33,2.29-.57,4.56-.74,6.82-.02.19.12.35.31.37,0,0,0,0,.01,0,28.69,2.17,62.5,4.7,101.43,7.59.06,0,.09-.02.1-.08.02-.11,0-.17-.07-.18-38.15-8.28-71.29-15.45-99.4-21.52-.18-.04-.37.07-.41.25,0,0,0,0,0,0-.49,2.21-.9,4.46-1.23,6.74Z"/>
  <path class="cls-3" d="M135.05,101.07c-.05.09-.08.2-.11.31-.02.08.02.17.1.19s.17-.02.19-.1h0c.07-.21.08-.34.04-.41-.04-.06-.12-.07-.18-.03-.02.01-.03.03-.04.04Z"/>
  <path class="cls-3" d="M1.02,123.14c-.03,1.65-.03,3.26.02,4.85,0,.26.22.47.48.46,0,0,0,0,.01,0,32.49-1.01,65.09-2.04,97.78-3.09.11,0,.16-.03.16-.1,0-.05-.05-.08-.15-.09-32.62-2.46-65.14-4.9-97.56-7.32-.26-.02-.49.17-.51.43,0,0,0,0,0,0-.11,1.59-.19,3.21-.23,4.86Z"/>
  <path class="cls-3" d="M150.91,125.85c0,.07.03.13.08.18.04.03.1.05.19.05.45.01,33.36,2.12,98.73,6.33.24.01.45-.16.47-.4.24-2.05.36-4.1.36-6.15s-.12-4.1-.35-6.15c-.02-.24-.23-.42-.48-.4-65.37,4.19-98.28,6.29-98.73,6.3-.09,0-.15.02-.19.05-.05.05-.08.12-.08.19Z"/>
  <path class="cls-3" d="M141.57,123.62c.21-.02.39-.08.54-.18.13-.09.17-.27.08-.4-.05-.08-.14-.12-.23-.13-.21,0-.41.07-.6.23-.12.09-.14.26-.05.38.06.08.16.12.26.1Z"/>
  <path class="cls-3" d="M80.48,128.47c-.55-.03-.86-.02-.93.03-.12.08-.16.24-.08.36.03.05.07.08.12.1.16.07.47.03.94-.12.1-.03.15-.14.12-.24-.02-.07-.09-.13-.17-.13Z"/>
  <path class="cls-3" d="M77.62,129.12c0-.08-.02-.12-.07-.11-37.78,1.21-62.97,2.08-75.58,2.59-.21,0-.37.17-.39.37-.07.68-.07,1.39-.02,2.13.05.75.15,1.45.3,2.12.04.2.23.33.44.31,12.56-1.15,37.65-3.61,75.26-7.37.04,0,.06-.02.06-.04Z"/>
  <path class="cls-3" d="M3.27,147.91c.49,2.69,1.06,5.34,1.73,7.97.07.3.38.48.68.41,0,0,0,0,0,0,33.39-8.86,67.28-17.88,101.66-27.05.05-.01.07-.05.06-.11-.01-.06-.04-.09-.09-.08-35.42,3.42-70.32,6.81-104.7,10.18-.31.03-.53.31-.5.61,0,0,0,0,0,0,.29,2.69.68,5.38,1.16,8.06Z"/>
  <path class="cls-3" d="M159.21,129.67c-.16-.11-.3-.17-.41-.16-.12,0-.2.11-.2.22,0,.09.06.16.15.19.24.06.36.09.37.09.1-.01.18-.11.16-.21,0-.05-.03-.1-.07-.13Z"/>
  <path class="cls-3" d="M160.99,129.58c-.01.13.03.2.13.21,32.38,5.17,61.54,9.81,87.48,13.91.29.05.57-.13.63-.42.27-1.21.47-2.47.62-3.78.15-1.31.22-2.59.22-3.82,0-.29-.22-.53-.51-.55-26.21-1.69-55.68-3.57-88.41-5.63-.1,0-.15.02-.16.08Z"/>
  <path class="cls-3" d="M247.99,151.92c.35-1.62.65-3.22.91-4.8.04-.26-.14-.51-.4-.55,0,0,0,0,0,0-32.29-5.17-64.69-10.34-97.19-15.52-.11-.01-.17.01-.18.08,0,.05.04.08.14.11,31.76,8.63,63.42,17.21,94.99,25.76.25.06.51-.08.58-.33.42-1.55.8-3.13,1.15-4.75Z"/>
  <path class="cls-3" d="M243.08,168.37c.94-2.59,1.79-5.21,2.55-7.84.08-.3-.1-.62-.4-.7,0,0,0,0,0,0-33.66-9.26-67.84-18.64-102.53-28.13-.05-.01-.08,0-.1.07-.02.05,0,.09.04.11,32.67,15.05,64.87,29.85,96.6,44.41.28.13.62,0,.75-.28,1.11-2.51,2.14-5.05,3.09-7.64Z"/>
  <path class="cls-3" d="M233.92,188.07c1.32-2.29,2.82-5.17,4.49-8.65.08-.15.02-.34-.14-.42l-98.06-45.14s-.08-.01-.12.02c-.01.01-.02.03-.03.04-.01.01-.02.03-.02.05-.01.05,0,.1.04.12l88.17,62.28c.15.09.34.06.43-.08,2.18-3.2,3.93-5.94,5.24-8.22Z"/>
  <path class="cls-3" d="M7.14,163.89c.5,1.54,1.03,3.04,1.58,4.51.09.24.36.36.6.27,0,0,0,0,0,0,29.87-11.39,59.84-22.83,89.89-34.32.1-.03.14-.08.12-.14-.02-.05-.08-.06-.17-.04-31.11,8.21-62.13,16.4-93.04,24.57-.24.07-.39.32-.32.57.4,1.51.85,3.04,1.34,4.58Z"/>
  <path class="cls-3" d="M103.35,135.84s-.03-.04-.05-.06c-.05-.05-.12-.06-.16-.04L10.29,171.17c-.23.08-.34.33-.26.56.62,1.72,1.32,3.43,2.09,5.14.77,1.71,1.59,3.37,2.47,4.97.11.21.37.28.58.18l88.08-46.05s.07-.08.07-.15c0-.03.01-.02.03.02Z"/>
  <path class="cls-3" d="M307.15,137.67c-9.65-2.42-19.45,3.48-21.89,13.19s3.41,19.55,13.06,21.97h0c9.65,2.42,19.45-3.48,21.89-13.19h0c2.44-9.71-3.41-19.55-13.06-21.97h0Z"/>
  <path class="cls-3" d="M394.26,137.52c-9.67-2.2-19.31,3.97-21.54,13.78-2.23,9.81,3.8,19.54,13.47,21.73h0c9.67,2.2,19.31-3.97,21.54-13.78,2.23-9.81-3.8-19.54-13.47-21.73h0Z"/>
  <path class="cls-3" d="M695.56,155.26c0-9.99-8.09-18.08-18.08-18.08h0c-9.99,0-18.08,8.09-18.08,18.08h0c0,9.99,8.09,18.08,18.08,18.08h0c9.99,0,18.08-8.09,18.08-18.08h0Z"/>
  <ellipse class="cls-3" cx="746.65" cy="155.28" rx="18.22" ry="17.97" transform="translate(397.51 833.29) rotate(-74.5)"/>
  <path class="cls-3" d="M798.36,144.9l1.83-2.37c.3-.39.24-.95-.15-1.25h0c-3.69-2.92-7.95-4.3-12.76-4.14-20.48.69-24.19,30.2-4.76,35.54,6.58,1.81,12.85.05,18.35-3.69.72-.49,1.16-1.3,1.16-2.18v-12.81c0-.22-.18-.39-.4-.39h-14.21c-.38,0-.68.3-.68.67h0v2.85c0,.38.3.68.68.68h9.36c.36,0,.66.3.66.66h0v5.82c0,1.1-.62,2.1-1.6,2.58-4.47,2.22-8.66,2.66-12.58,1.32-8.12-2.78-10.8-12.91-6.83-20.03,4.38-7.85,14.53-8.9,20.57-3.16.37.35.95.34,1.3-.03.02-.02.04-.04.06-.07Z"/>
  <path class="cls-3" d="M351.03,153.98c0-.19-.16-.35-.35-.35h-17.71c-.19,0-.35-.16-.35-.35h0v-10.73c0-.19.16-.35.35-.35h20.01c.19,0,.35-.16.35-.35v-3.89c0-.19-.16-.35-.35-.35h-24.89c-.19,0-.35.16-.35.35v34.49c0,.19.16.35.35.35h4.21c.19,0,.35-.16.35-.35v-14.29c0-.19.16-.35.35-.35h17.68c.19,0,.35-.16.35-.35v-3.48Z"/>
  <path class="cls-3" d="M419.65,172.72v-11.34c0-.33.27-.6.6-.6,0,0,.01,0,.02,0,6.32.15,12.07.56,16.98-2.9,3.23-2.28,5.02-6.62,4.23-10.72-1.52-7.95-8.25-9.91-15.8-9.57-.53.03-3.92.03-10.17.01-.25,0-.46.21-.46.47v34.4c0,.2.16.37.36.37h4.12c.07,0,.12-.05.12-.12Z"/>
  <path class="cls-3" d="M461.54,157.27c5.49,0,8.45.02,8.9.05.35.02.62.31.62.66v14.38c0,.2.16.37.36.37h3.98c.18,0,.33-.15.33-.33h0v-34.24c0-.29-.24-.53-.53-.53h-3.6c-.3,0-.55.25-.55.55v14.46c0,.17-.14.31-.32.32-1.05.02-4.12.03-9.19.03s-8.14-.01-9.19-.03c-.18,0-.32-.15-.32-.32v-14.46c0-.3-.25-.55-.55-.55h-3.6c-.29,0-.53.24-.53.53v34.24c0,.18.15.33.33.33h3.98c.2,0,.36-.17.36-.37h0v-14.38c0-.35.27-.64.62-.66.45-.03,3.41-.05,8.9-.05Z"/>
  <path class="cls-3" d="M495.21,137.61c-8.85,0-13.28,0-13.3,0-.24-.01-.45.18-.46.42,0,0,0,0,0,.01l-.07,3.59c0,.31.25.57.56.58,0,0,0,0,.01,0h10.21c.32,0,.58.26.58.57h0v29.28c0,.34.24.63.58.68.39.06,1.01.09,1.87.09s1.48-.03,1.87-.09c.34-.05.58-.34.58-.68l.03-29.28c0-.31.26-.57.58-.57h0l10.21.02c.31,0,.57-.26.57-.57,0,0,0,0,0-.01l-.06-3.59c0-.24-.2-.44-.44-.44,0,0-.01,0-.02,0h-13.3Z"/>
  <path class="cls-3" d="M528.75,157.25c5.52,0,8.51.03,8.96.06.35.03.62.32.62.67v14.47c0,.2.15.37.35.37h4.01c.18.01.33-.14.33-.32,0,0,0,0,0-.01l.03-34.46c0-.29-.24-.53-.53-.53h-3.63c-.3-.01-.55.24-.55.54,0,0,0,0,0,.01v14.55c-.01.17-.15.31-.33.32-1.07.02-4.15.03-9.26.02-5.1,0-8.18-.02-9.25-.04-.18,0-.32-.15-.32-.32l.02-14.55c0-.3-.24-.55-.54-.56,0,0-.01,0-.02,0h-3.62c-.29,0-.53.24-.53.53l-.04,34.47c0,.18.15.33.33.33h4.01c.2,0,.36-.17.36-.37l.02-14.47c0-.35.27-.64.62-.67.45-.03,3.44-.05,8.96-.04Z"/>
  <path class="cls-3" d="M566.02,163.87c5.03,0,7.84.01,8.45.02.37,0,.71.22.86.56l3.54,7.83c.17.37.55.61.96.61h3.77c.21,0,.38-.16.39-.37,0-.06-.01-.11-.04-.17l-15.51-34.29c-.15-.33-.47-.56-.83-.6-.51-.06-1.03-.09-1.56-.09s-1.05.03-1.56.08c-.36.04-.68.27-.83.6l-15.6,34.25c-.09.19,0,.42.18.5.05.02.11.04.17.04h3.77c.41.01.79-.23.96-.6l3.56-7.82c.15-.34.49-.56.86-.56.61,0,3.43,0,8.46.01Z"/>
  <path class="cls-3" d="M589.86,137.65c-.28,0-.5.22-.5.5v34.15c0,.28.22.5.5.5h23.01c.28,0,.5-.22.5-.5v-3.19c0-.28-.22-.5-.5-.5h-18.27c-.28,0-.5-.22-.5-.5v-29.96c0-.28-.22-.5-.5-.5h-3.74Z"/>
  <path class="cls-3" d="M635.6,163.35c.23,0,.41-.11.56-.34,2.78-4.13,6.56-9.66,11.35-16.58.06-.08.18-.09.25-.03.04.03.06.08.07.13l.11,25.82c0,.28.22.51.5.51h3.56c.3,0,.55-.26.55-.56h0l-.15-34.14c0-.36-.29-.65-.65-.65l-3.31.02c-.37,0-.72.18-.93.49-2.69,4.11-6.55,9.93-11.57,17.46-.06.09-.19.13-.38.14-.16,0-.27-.04-.32-.13-5.05-7.52-8.93-13.33-11.65-17.42-.21-.31-.55-.49-.92-.49h-3.31c-.36,0-.65.29-.65.65h0s-.02,34.13-.02,34.13c0,.3.25.55.55.55,0,0,0,0,.01,0h3.55c.28,0,.5-.23.5-.51h0v-25.82c.02-.1.1-.17.2-.17.05,0,.1.03.13.07,4.81,6.9,8.62,12.41,11.41,16.54.15.22.34.33.56.33Z"/>
  <path class="cls-3" d="M821.35,172.87c.98,0,1.56,0,1.75-.02.32-.03.56-.3.56-.61v-11.63c0-1,.31-1.99.88-2.82l13.52-19.54c.13-.2.08-.46-.12-.6-.07-.05-.15-.07-.23-.07h-4.15c-.49,0-.96.25-1.23.66-3.37,5.11-6.9,10.34-10.58,15.68-.08.11-.22.17-.43.17-.16,0-.28-.06-.36-.17-3.67-5.34-7.2-10.57-10.57-15.69-.27-.41-.74-.66-1.23-.66h-4.15c-.24,0-.43.2-.42.44,0,.08.03.16.07.23l13.51,19.55c.57.84.87,1.82.87,2.82v11.63c-.01.32.24.58.56.61.18.01.76.02,1.75.02Z"/>
  <path class="cls-3" d="M702.75,172.83h23.21c.36-.01.65-.3.65-.66h0s-.02-2.87-.02-2.87c0-.38-.3-.68-.68-.68h-18.1c-.29,0-.53-.24-.54-.54h0s-.02-29.96-.02-29.96c0-.3-.23-.54-.53-.55,0,0,0,0-.01,0l-3.66.02c-.29,0-.53.24-.53.53h0v34.48c0,.13.1.23.23.23h0Z"/>
  <circle class="cls-3" cx="854.1" cy="146.72" r="9.17" transform="translate(-12.47 138.71) rotate(-9.22)"/>
  <path class="cls-3" d="M23.05,196.06c.91,1.33,1.83,2.61,2.77,3.85.15.2.44.25.64.09,0,0,0,0,0,0,25.2-19.25,50.48-38.57,75.83-57.95.08-.07.11-.12.08-.15-.04-.05-.1-.06-.18-.01-27.28,16.57-54.47,33.09-81.57,49.56-.21.13-.28.41-.15.63.81,1.33,1.66,2.65,2.57,3.98Z"/>
  <path class="cls-3" d="M47.06,222.29c1.8,1.47,3.64,2.86,5.51,4.18.15.11.37.07.47-.08,0,0,0,0,0,0,16.77-23.69,36.52-51.62,59.25-83.8.04-.05.03-.09-.02-.14-.08-.06-.14-.07-.18-.02-26.98,28.7-50.4,53.64-70.25,74.81-.13.13-.13.35,0,.48,0,0,0,0,0,0,1.66,1.57,3.39,3.1,5.2,4.57Z"/>
  <path class="cls-3" d="M180.36,238.04c2.47-1.2,4.89-2.48,7.25-3.84.27-.16.36-.5.21-.77-17.64-29.94-35.57-60.32-53.78-91.13-.03-.04-.07-.05-.12-.03-.05.03-.07.06-.06.11,12.93,33.38,25.68,66.27,38.27,98.66.12.29.45.43.74.31,2.53-1.01,5.02-2.12,7.49-3.31Z"/>
  <path class="cls-3" d="M223.77,203c1.01-1.28,1.97-2.56,2.88-3.85.15-.21.1-.5-.11-.65-26.24-18.57-52.57-37.2-78.99-55.87-.08-.06-.14-.06-.18-.01-.03.03-.01.09.07.16,24.27,21.39,48.46,42.7,72.59,63.95.19.17.49.15.66-.04,1.04-1.19,2.07-2.42,3.08-3.69Z"/>
  <path class="cls-3" d="M196.46,228.36c1.9-1.31,3.74-2.68,5.52-4.1.15-.12.17-.33.05-.48h0c-17.93-22.6-39.07-49.22-63.43-79.86-.04-.05-.09-.05-.14-.02-.09.06-.11.12-.08.17,19.87,33.73,37.13,63.02,51.8,87.85.09.16.3.22.46.12,0,0,0,0,0,0,1.97-1.15,3.9-2.37,5.81-3.68Z"/>
  <path class="cls-3" d="M60.41,231.8c2.85,1.76,4.52,2.77,5.03,3.04.3.15.67.04.83-.26l47.73-89.61s0-.02-.01-.03c0,0,0-.01,0-.01,0,0-.01-.01-.01-.01-.01,0-.03,0-.04.01l-58.64,82.88c-.2.28-.13.66.14.86.47.33,2.13,1.38,4.98,3.13Z"/>
  <path class="cls-3" d="M131.65,145.14l22.53,101.7c.07.31.38.5.69.43.01,0,.03,0,.04-.01l14.3-4.32c.32-.1.49-.43.39-.74,0-.01,0-.02-.01-.04l-37.63-97.11c-.02-.09-.11-.13-.2-.11-.09.02-.13.11-.11.2Z"/>
  <path class="cls-3" d="M36.19,212.02c1.11,1.15,2.22,2.25,3.34,3.3.19.17.48.16.65-.02,21.51-22.98,43.09-46.04,64.72-69.18.07-.07.09-.13.04-.17-.03-.04-.09-.03-.16.04-23.99,20.69-47.89,41.33-71.72,61.91-.18.17-.2.45-.04.64,1.01,1.17,2.06,2.33,3.17,3.48Z"/>
  <path class="cls-3" d="M85.4,148.68c-.04-.07-.08-.1-.12-.08-34.31,17.93-57.17,29.94-68.58,36.02-.18.1-.26.32-.19.51.24.66.55,1.32.93,1.98.37.67.78,1.27,1.22,1.82.13.16.36.2.54.09,11.08-6.65,33.13-20.07,66.16-40.28.03-.02.05-.04.04-.06Z"/>
  <path class="cls-3" d="M215.79,212.47c.87-.89,1.68-1.78,2.45-2.66.2-.23.18-.58-.05-.78-14.22-12.57-34.17-30.19-59.85-52.87-5.75-5.08-8.65-7.59-8.72-7.52-.06.06,2.55,2.87,7.83,8.44,23.59,24.85,41.92,44.15,54.99,57.91.21.22.55.23.78.02.85-.8,1.7-1.65,2.57-2.54Z"/>
  <path class="cls-3" d="M122.21,149.82s-.05,0-.08,0c-.07.02-.11.06-.12.11l-21.03,97.66c-.05.23.1.47.33.52,1.79.42,3.61.77,5.48,1.06,1.86.29,3.71.51,5.54.65.24.02.45-.16.47-.4l9.46-99.45s-.03-.11-.09-.14c-.02-.02,0-.02.04-.01Z"/>
  <path class="cls-3" d="M207.67,220.09c.94-.81,1.83-1.62,2.67-2.43.22-.21.22-.55.02-.77-13-13.75-31.24-33.03-54.71-57.84-5.25-5.55-7.91-8.3-7.98-8.24s2.27,3.09,7.02,9.08c21.2,26.77,37.68,47.58,49.43,62.41.19.24.53.28.77.09.91-.72,1.84-1.49,2.78-2.3Z"/>
  <path class="cls-3" d="M73.02,238.61c1.45.67,2.89,1.3,4.33,1.89.23.1.5-.02.6-.25,11.86-29.31,23.75-58.71,35.68-88.2.03-.09.02-.15-.04-.18-.04-.02-.08.01-.13.1-15.01,28.05-29.96,56.02-44.86,83.9-.12.22-.04.5.18.62,0,0,0,0,0,0,1.37.73,2.78,1.43,4.23,2.11Z"/>
  <path class="cls-3" d="M117.79,155.41c-.13.18-.19.29-.19.34-.01.23.16.43.4.44.06,0,.11,0,.16-.02.31-.11.46-.28.47-.49,0-.25-.19-.46-.45-.47-.16,0-.3.07-.39.2Z"/>
  <path class="cls-3" d="M89.28,155.51c-.05-.06-.09-.08-.12-.05-30.65,23.27-51.05,38.82-61.21,46.67-.17.13-.22.36-.11.54.35.6.76,1.19,1.24,1.78.48.59.98,1.12,1.5,1.58.15.14.38.14.54,0,9.75-8.36,29.13-25.18,58.14-50.46.03-.03.03-.05.02-.07Z"/>
  <path class="cls-3" d="M126.6,156.97c-.13,0-.2.05-.2.15-.99,34.3-1.85,65.18-2.6,92.65,0,.31.23.56.53.59,1.29.12,2.62.17,4,.14,1.38-.03,2.71-.12,3.99-.29.3-.04.53-.3.51-.61-1.79-27.42-3.84-58.25-6.13-92.48,0-.1-.04-.15-.1-.15Z"/>
  <path class="cls-3" d="M117.52,157.15c-.06-.01-.1.03-.13.12-10.33,32.19-19.6,61.17-27.82,86.96-.09.29.06.59.34.7,1.19.47,2.44.88,3.75,1.23,1.31.35,2.6.63,3.85.82.3.05.58-.14.65-.44,5.81-26.43,12.32-56.16,19.51-89.19.03-.1-.02-.17-.15-.2Z"/>
  <path class="cls-3" d="M129.59,160.17l.21-.29c.05-.07.03-.17-.04-.22-.05-.03-.12-.04-.17,0-.17.09-.24.25-.23.46.01.07.08.12.15.11.03,0,.06-.02.08-.05Z"/>
  <path class="cls-3" d="M113.17,160.56c-.23.31-.4.65-.5,1.03-.04.1.02.22.13.25.1.03.2-.01.24-.1.3-.53.45-.88.46-1.07,0-.1-.07-.18-.17-.19-.06,0-.13.03-.16.08Z"/>
  <path class="cls-3" d="M139.68,249.59c1.19-.13,2.35-.29,3.47-.47.29-.05.49-.32.44-.61-2.84-18.16-6.83-43.63-11.97-76.41-1.15-7.34-1.76-11-1.85-10.99-.09,0,.12,3.71.63,11.12,2.23,33.11,3.97,58.84,5.22,77.17.02.29.27.52.57.5,0,0,0,0,0,0,1.13-.07,2.29-.18,3.49-.31Z"/>
  <path class="cls-3" d="M83.46,242.86c.87.31,1.81.64,2.83.97.29.09.6-.06.69-.35,0,0,0,0,0,0,10.71-33.65,19.21-60.43,25.52-80.35.02-.06,0-.1-.05-.11-.07-.03-.11-.01-.13.04-7.93,19.33-18.58,45.34-31.95,78.02-.11.28.02.59.3.71,0,0,0,0,0,0,1,.4,1.93.76,2.79,1.07Z"/>
  <path class="cls-3" d="M134.93,170.83c.01-.07-.06-.28-.23-.63-.04-.1-.15-.14-.25-.1-.06.03-.1.08-.11.14-.04.18-.02.38.05.61.05.15.2.23.35.18.09-.03.17-.11.19-.2Z"/>
  <path class="cls-3" d="M134.77,172.36c-.07.01-.11.04-.1.08,5.73,37.94,9.6,63.23,11.62,75.87.04.21.21.36.42.35.69-.01,1.41-.09,2.15-.23.75-.14,1.45-.33,2.1-.56.19-.07.3-.27.26-.47-2.66-12.53-8.13-37.52-16.4-74.99-.01-.04-.03-.06-.05-.05Z"/>
  <path class="cls-3" d="M122.76,175.3s-.03.02-.03.06c-3.55,37.08-5.87,61.81-6.95,74.19-.02.2.11.39.31.43.66.15,1.36.24,2.09.29.73.05,1.43.04,2.1-.03.2-.02.36-.19.36-.39.45-12.42,1.2-37.25,2.23-74.48,0-.04-.03-.06-.11-.07Z"/>
  <path class="cls-5" d="M125.61,78.1s-.03-.02-.04-.06c-1.33-38.21-2.17-63.7-2.51-76.45,0-.21.14-.39.35-.42.68-.11,1.4-.17,2.15-.17s1.47.06,2.16.17c.2.03.34.21.34.41-.31,12.76-1.08,38.25-2.33,76.46,0,.04-.05.06-.12.06Z"/>
  <path class="cls-5" d="M112.6,1.65c2.33-.25,4.64-.41,6.93-.49.19-.01.35.14.36.33,0,0,0,0,0,.01,1.1,29.12,2.37,63.44,3.81,102.97,0,.07-.02.1-.09.11-.11.01-.16-.01-.17-.08-6.93-38.94-12.92-72.76-17.99-101.46-.04-.19.08-.37.27-.41,0,0,0,0,.01,0,2.26-.41,4.55-.73,6.87-.98Z"/>
  <path class="cls-5" d="M134.36,1.31c.93.06,1.93.15,3.02.26.31.03.53.3.5.6,0,0,0,0,0,0-3.89,35.61-6.99,63.95-9.31,85.02,0,.06-.05.09-.12.09-.05,0-.08-.04-.08-.1.58-21.19,1.38-49.69,2.39-85.5.01-.3.26-.54.57-.53,1.09.03,2.1.08,3.03.15Z"/>
  <path class="cls-5" d="M132.81,77.35c-.08,0-.12-.03-.11-.07,3.97-37.41,6.68-62.36,8.11-74.83.02-.2.19-.36.39-.36.68-.01,1.39.03,2.13.14.73.1,1.42.25,2.07.45.19.06.32.25.28.46-2.06,12.38-6.34,37.1-12.83,74.16,0,.04-.02.06-.04.05Z"/>
  <path class="cls-5" d="M120.11,101.58s.06-.01.03-.02c-.07-.01-.12-.05-.13-.1L90.98,6.4c-.07-.23.06-.47.29-.54,1.73-.57,3.51-1.07,5.34-1.51,1.82-.45,3.63-.82,5.43-1.11.24-.04.46.12.5.36l17.71,97.8s-.01.11-.07.15c-.02.02-.04.03-.07.03Z"/>
  <path class="cls-5" d="M155.53,4.7c2.22.54,4.4,1.16,6.54,1.85.18.05.28.24.22.42,0,0,0,0,0,.01-8.67,27.21-18.91,59.27-30.72,96.19-.02.06-.06.08-.12.07-.1-.03-.14-.07-.13-.13,6.56-38.2,12.28-71.37,17.15-99.51.03-.19.2-.31.38-.28,0,0,0,0,0,0,2.22.37,4.44.83,6.67,1.38Z"/>
  <path class="cls-5" d="M112.09,85.79c-.07.03-.12-.01-.15-.11-8.97-23.21-18.81-48.71-29.53-76.5-.08-.21.02-.45.23-.53,0,0,.01,0,.02,0,.75-.27,1.6-.57,2.54-.9.94-.32,1.79-.61,2.56-.86.22-.07.45.05.52.26,0,0,0,0,0,0,8.69,28.49,16.65,54.64,23.89,78.44.03.11,0,.17-.08.2Z"/>
  <path class="cls-5" d="M135.5,100.36s.05.02.03,0c-.05-.05-.07-.1-.05-.15L164.79,7.53c.07-.22.31-.35.53-.28,1.71.51,3.43,1.09,5.14,1.74,1.71.66,3.37,1.37,4.99,2.13.21.1.29.35.2.56l-39.94,88.62s-.08.07-.14.07c-.03,0-.05,0-.07-.01Z"/>
  <path class="cls-5" d="M72.79,12.69c2.13-1,4.28-1.91,6.44-2.74.17-.08.37,0,.45.18,0,0,0,.01,0,.02,10.64,27.37,23.16,59.65,37.56,96.83.03.06,0,.11-.1.15-.06.03-.11.01-.14-.04-19.43-34.81-36.29-65.05-50.57-90.71-.1-.17-.04-.38.12-.47,0,0,0,0,.01,0,2.02-1.13,4.09-2.2,6.22-3.21Z"/>
  <path class="cls-5" d="M182.79,14.74c1.42.73,2.8,1.48,4.14,2.26.21.13.28.4.16.62-15.85,27.29-31.76,54.66-47.73,82.11-.05.09-.1.11-.16.08-.04-.02-.04-.08,0-.17,12.94-29,25.85-57.9,38.73-86.71.1-.23.38-.34.61-.23,0,0,0,0,0,0,1.41.63,2.82,1.31,4.25,2.04Z"/>
  <path class="cls-5" d="M101.8,86.08s-.04,0-.06-.03c-21.19-32.54-35.27-54.27-42.25-65.19-.11-.18-.08-.4.08-.54.53-.46,1.13-.89,1.78-1.28.66-.39,1.32-.72,1.97-.99.19-.07.41,0,.51.18,6.42,11.26,19.1,33.84,38.04,67.74.02.03,0,.07-.07.11Z"/>
  <path class="cls-5" d="M138.42,107.2l50.91-88.19c.19-.33.6-.44.93-.25.02.01.04.02.05.03l10.23,7.09c.3.21.37.62.17.92,0,0-.01.01-.02.02l-62.24,80.4s-.02,0-.03,0c0,0,0,0,0-.01Z"/>
  <path class="cls-5" d="M52.72,24.86c1.32-.95,2.64-1.86,3.96-2.72.22-.14.51-.08.65.13,17.5,26.98,35.05,54.05,52.64,81.21.05.09.05.15,0,.19-.03.03-.08,0-.15-.08-20.4-25.12-40.73-50.17-60.98-75.15-.16-.2-.12-.49.07-.65,1.22-.99,2.49-1.97,3.81-2.93Z"/>
  <path class="cls-5" d="M206.84,30.88c1.06.91,2.03,1.83,2.92,2.78.21.22.21.57,0,.79-18.89,20.15-40.15,42.78-63.78,67.9-.07.07-.12.09-.17.05-.1-.09-.12-.17-.06-.25,21.12-27.26,40.16-51.79,57.11-73.59.19-.24.54-.3.79-.12,1.07.73,2.14,1.54,3.19,2.44Z"/>
  <path class="cls-5" d="M102.12,98.82s-.08.03-.13-.02c-15.19-15.85-35.6-37.18-61.24-63.99-.22-.23-.21-.59.02-.81.83-.78,1.6-1.49,2.32-2.12.73-.64,1.53-1.32,2.4-2.04.25-.19.6-.16.8.08,23.41,28.79,42.03,51.7,55.86,68.75.04.05.03.1-.03.15Z"/>
  <path class="cls-5" d="M214.01,37.62c.53.53,1,1.08,1.41,1.64.12.17.1.4-.05.54-9.25,8.79-27.83,26.25-55.75,52.37-.03.03-.06.03-.07,0-.05-.05-.07-.09-.04-.12,26.09-27.95,43.53-46.55,52.32-55.8.14-.15.37-.17.54-.05.56.41,1.11.88,1.64,1.41Z"/>
  <path class="cls-5" d="M105.29,106.41s-.04.03-.07.04c-.06.02-.11.02-.15-.01L31.41,45.46c-.17-.15-.2-.41-.06-.59,1.09-1.37,2.26-2.72,3.49-4.04,1.23-1.32,2.49-2.57,3.78-3.76.17-.15.43-.14.59.02l66.02,69.17s.04.1.02.16c0,.02,0,.02.04-.01Z"/>
  <path class="cls-5" d="M219.77,43.64c.67.77,1.26,1.46,1.79,2.09.15.18.13.44-.04.59,0,0,0,0,0,0-23.61,19.19-45.29,36.8-65.02,52.83-.09.07-.16.07-.22,0-.05-.05-.03-.12.05-.2,18.51-17.42,38.85-36.55,61.02-57.4.17-.16.43-.15.59.02.56.61,1.17,1.3,1.84,2.06Z"/>
  <path class="cls-5" d="M112.2,116.08s-.02.01-.03.02c-.03.02-.06.03-.08.02L19.35,63.03c-.52-.3-.7-.95-.4-1.47,0,0,0,0,0,0,1.27-2.2,2.81-4.6,4.62-7.2,1.81-2.6,3.53-4.88,5.15-6.83.38-.46,1.06-.53,1.52-.15,0,0,0,0,0,0l81.95,68.58s.02.05,0,.08c0,.01,0,.03,0,.04Z"/>
  <path class="cls-5" d="M226.04,51.43c.73.98,1.42,1.95,2.06,2.91.16.25.1.59-.15.75-15.49,10.47-37.23,25.16-65.22,44.06-6.26,4.23-9.42,6.31-9.47,6.24-.05-.07,2.85-2.49,8.72-7.25,26.21-21.29,46.58-37.82,61.11-49.6.23-.19.56-.16.76.07.73.89,1.46,1.83,2.19,2.82Z"/>
  <path class="cls-5" d="M233.31,62.12c.96,1.63,1.85,3.27,2.66,4.92.1.22.02.48-.19.59l-89.1,45.92s-.1.02-.16-.02c-.03-.02-.05-.04-.06-.06.03.04.04.05.04.02-.01-.07,0-.13.05-.16l83.12-56.02c.2-.13.47-.08.61.11,1.05,1.51,2.06,3.07,3.03,4.7Z"/>
  <path class="cls-5" d="M94.1,109.03c-.07.05-.14.11-.21.17-.1.08-.24.1-.36.04L13.55,71.87c-.12-.06-.17-.2-.12-.32,0,0,0,0,0-.01l3.39-6.37c.05-.09.16-.12.24-.07,0,0,0,0,0,0l77.02,43.93Z"/>
  <path class="cls-5" d="M240.74,76.86c.93,2.17,1.77,4.36,2.52,6.55.07.17-.02.37-.2.44,0,0-.01,0-.02,0-27.82,9.66-60.62,21.02-98.39,34.08-.06.02-.11-.02-.16-.11-.02-.06,0-.1.05-.13,35.59-18.19,66.51-33.97,92.75-47.34.17-.09.38-.03.47.14,0,0,0,0,0,0,1.07,2.07,2.06,4.19,2.98,6.36Z"/>
  <path class="cls-4" d="M302.75,98.18c-5.02-.01-7.83-.02-8.44,0-.37,0-.7.21-.86.55l-3.56,7.81c-.17.37-.54.61-.96.61l-3.77-.02c-.21,0-.38-.16-.39-.37,0-.06.01-.11.04-.17l15.62-34.18c.15-.33.47-.56.83-.6.51-.05,1.03-.08,1.56-.08s1.05.03,1.56.09c.36.04.67.27.82.6l15.45,34.26c.09.19,0,.42-.18.5-.05.02-.11.04-.17.04h-3.76c-.42,0-.79-.25-.96-.62l-3.53-7.82c-.15-.34-.48-.56-.85-.56-.61,0-3.42-.02-8.45-.03ZM295.89,93.16c-.07.16,0,.34.15.41.04.02.09.03.14.03l13.33.02c.17,0,.31-.14.31-.31,0-.04,0-.09-.03-.13l-6.64-14.73c-.07-.16-.25-.23-.41-.16-.07.03-.13.09-.16.16l-6.69,14.71Z"/>
  <path class="cls-4" d="M504.09,98.19h-8.46c-.37,0-.71.22-.86.56l-3.57,7.83c-.17.37-.55.61-.96.61h-3.77c-.21,0-.38-.17-.39-.38,0-.06.01-.11.04-.17l15.61-34.29c.15-.34.46-.57.83-.61.51-.05,1.03-.08,1.56-.08s1.05.03,1.56.09c.36.04.68.27.83.6l15.54,34.33c.09.19,0,.42-.18.5-.05.02-.11.04-.17.04h-3.77c-.41,0-.79-.24-.96-.61l-3.55-7.84c-.15-.34-.49-.56-.86-.56-.61,0-3.43-.01-8.47-.02ZM497.16,93.05c-.09.2,0,.44.21.53.05.02.1.03.15.03h13.04c.22,0,.4-.19.39-.41,0-.05-.01-.11-.03-.15l-6.52-14.53c-.1-.2-.34-.28-.53-.19-.08.04-.15.1-.19.19l-6.52,14.53Z"/>
  <path class="cls-4" d="M670.08,98.19c-5.03,0-7.85,0-8.46,0-.38,0-.72.22-.87.56l-3.56,7.83c-.17.37-.55.61-.96.61h-3.78c-.21,0-.38-.17-.39-.38,0-.06.01-.11.04-.17l15.62-34.31c.15-.33.47-.56.83-.6.51-.05,1.03-.08,1.56-.08s1.05.03,1.56.09c.36.04.68.27.83.6l15.55,34.34c.09.19,0,.42-.18.5-.05.02-.11.04-.17.04h-3.78c-.41,0-.79-.24-.96-.61l-3.55-7.84c-.15-.34-.49-.57-.86-.57-.61,0-3.43,0-8.47-.01ZM663.18,93.02c-.09.21,0,.46.21.55.06.02.12.04.18.04h12.94c.23,0,.42-.18.43-.41,0-.06-.01-.12-.04-.18l-6.48-14.52c-.1-.21-.35-.3-.56-.2-.09.04-.16.11-.2.2l-6.48,14.52Z"/>
  <path class="cls-4" d="M455.81,89.76c.1,6.7,4.88,12.97,11.82,13.47,4.38.32,8.23-1.43,11.52-4.56.2-.19.5-.21.72-.04l2.64,2.04c.29.23.34.66.11.96-.01.02-.03.03-.04.04-2.91,3.09-6.04,4.93-9.37,5.52-9.35,1.68-16.14-1.51-20.36-9.56-1.16-2.21-1.76-4.81-1.8-7.8-.05-3,.48-5.62,1.57-7.85,3.99-8.17,10.68-11.55,20.08-10.14,3.35.49,6.52,2.24,9.53,5.24.26.27.26.7,0,.96-.01.01-.03.03-.04.04l-2.58,2.12c-.21.17-.52.16-.72-.02-3.38-3.03-7.27-4.67-11.65-4.22-6.91.7-11.51,7.1-11.42,13.8Z"/>
  <path class="cls-4" d="M596.64,98.19c-5.03,0-7.84,0-8.45,0-.37,0-.71.22-.86.56l-3.56,7.82c-.17.38-.55.61-.97.61h-3.76c-.21,0-.38-.17-.39-.38,0-.06.01-.11.04-.17l15.59-34.25c.15-.33.47-.56.83-.6.51-.05,1.03-.08,1.56-.08s1.05.03,1.56.08c.36.04.68.27.83.61l15.51,34.28c.09.19,0,.42-.18.5-.05.02-.11.04-.17.04h-3.77c-.41,0-.79-.24-.96-.61l-3.54-7.83c-.15-.34-.49-.56-.86-.56-.61,0-3.42-.01-8.45-.01ZM596.62,93.61c3.64-.01,5.86,0,6.67.07.19.01.35-.13.36-.31,0-.06,0-.12-.03-.18-1.32-2.75-3.36-7.24-6.13-13.45-.43-.97-.74-1.45-.94-1.45s-.5.49-.92,1.46c-2.71,6.24-4.71,10.74-6.01,13.5-.08.17-.02.37.15.46.06.03.12.04.19.03.8-.07,3.02-.11,6.66-.13Z"/>
  <path class="cls-4" d="M617.08,89.87c-.04-3,.48-5.62,1.57-7.86,3.99-8.19,10.69-11.58,20.1-10.17,3.35.5,6.53,2.25,9.54,5.25.27.27.27.7,0,.96-.01.01-.03.03-.04.04l-2.58,2.12c-.22.17-.52.16-.72-.02-3.39-3.03-7.29-4.67-11.67-4.22-6.92.7-11.53,7.11-11.43,13.82.1,6.72,4.89,12.99,11.84,13.48,4.39.32,8.24-1.43,11.53-4.56.19-.19.5-.21.72-.04l2.65,2.04c.29.23.34.66.11.96-.01.02-.03.03-.04.04-2.92,3.09-6.05,4.94-9.38,5.53-9.37,1.69-16.16-1.5-20.39-9.57-1.16-2.21-1.76-4.81-1.81-7.8Z"/>
  <path class="cls-4" d="M343.4,89.98c.19,0,.31-.04.37-.13,5.03-7.49,8.9-13.27,11.61-17.35.21-.31.55-.49.92-.49h3.3c.36,0,.65.29.65.65v34.01c0,.3-.25.55-.55.55h-3.54c-.28,0-.5-.23-.5-.51v-25.73c0-.1-.09-.17-.19-.17-.05,0-.1.03-.13.07-4.8,6.87-8.59,12.36-11.38,16.47-.15.22-.33.33-.56.33-.22,0-.4-.11-.55-.33-2.77-4.12-6.53-9.63-11.3-16.52-.06-.08-.17-.09-.25-.03-.04.03-.06.07-.07.12l-.12,25.73c0,.28-.22.51-.5.51h-3.54c-.3,0-.55-.26-.55-.56,0,0,0,0,0-.01l.15-34.01c0-.36.3-.65.66-.64h3.3c.37.02.71.2.91.51,2.69,4.09,6.54,9.89,11.53,17.4.06.09.17.13.33.13Z"/>
  <path class="cls-4" d="M369.99,89.55c-.03-11.29-.04-16.96-.03-17.01.03-.36.33-.65.7-.65l24.61-.04c.29,0,.53.23.54.52,0,0,0,0,0,.01v3.29c0,.27-.22.49-.49.49h-19.97c-.35.02-.63.3-.63.65v9.81c0,.34.27.61.61.61h0l17.2-.02c.36,0,.66.27.71.63.03.23.04.79.04,1.67,0,.87,0,1.43-.03,1.66-.05.36-.35.63-.71.63l-17.2.05c-.33,0-.6.28-.6.61l.03,9.81c0,.35.29.64.64.64l19.96-.06c.27,0,.49.22.49.49h0s0,3.29,0,3.29c0,.29-.24.53-.53.53l-24.61.05c-.37,0-.67-.29-.7-.65,0-.04-.02-5.71-.04-17.01Z"/>
  <path class="cls-4" d="M431.83,106.38c.18.22.14.54-.09.72-.09.07-.2.11-.32.11h-3.92c-.58,0-1.13-.27-1.49-.73l-9.64-12.31c-.18-.23-.46-.37-.76-.37h-7.86c-.23,0-.41.18-.41.41h0v12.58c0,.23-.19.42-.42.42h-4.08c-.22,0-.4-.18-.4-.4v-34.41c0-.24.2-.44.45-.45,7.73-.11,13.1-.08,16.12.08,4.15.21,8.26,1.93,10.33,5.66,3.46,6.24-.22,13.55-7.17,14.89-.33.06-.55.38-.49.71.02.1.06.19.12.27l10.03,12.82ZM407.27,76.91l.15,12.38c0,.2.16.36.36.36l10.01-.12c4.43-.06,7.99-2.89,7.95-6.33v-.64c-.04-3.44-3.67-6.18-8.11-6.13,0,0,0,0,0,0l-10.01.12c-.19,0-.35.17-.35.36Z"/>
  <rect class="cls-4" x="438.45" y="71.91" width="4.58" height="35.3" rx=".51" ry=".51"/>
  <path class="cls-4" d="M527.74,106.9v-34.7c0-.17.13-.3.3-.3h4.02c.09,0,.18.04.24.12l20.6,26.33c.1.13.29.16.42.06.08-.06.12-.15.12-.24v-25.93c0-.17.13-.3.3-.3h3.6c.17,0,.3.13.3.3v34.64c0,.17-.13.3-.3.3h-3.17c-.09,0-.18-.04-.24-.12l-20.75-26.52c-.1-.13-.29-.16-.42-.06-.08.06-.12.15-.12.24v26.18c0,.17-.13.3-.3.3h-4.3c-.17,0-.3-.13-.3-.3Z"/>
  <path class="cls-4" d="M693.79,72.18c0-.15.13-.28.28-.28h0l12.69.04c9.97.04,18.02,7.6,17.99,16.89v1.56c-.03,9.29-8.14,16.8-18.11,16.77,0,0,0,0,0,0l-12.69-.04c-.15,0-.28-.13-.28-.28l.12-34.66ZM698.62,76.76v25.64c0,.15.12.27.27.27h8.01c7.26,0,13.14-5.77,13.14-12.89h0v-.4c0-7.12-5.88-12.89-13.14-12.89h-8.01c-.15,0-.27.12-.27.27Z"/>
  <path class="cls-4" d="M756.09,89.54c0,.88-.01,1.43-.04,1.66-.05.36-.35.63-.71.63h-17.2c-.34,0-.61.27-.61.61v9.81c0,.35.29.64.64.64h19.97c.27,0,.49.22.49.49h0v3.29c0,.29-.24.53-.53.53h0l-24.62-.02c-.37,0-.67-.29-.7-.65,0-.05,0-5.72.01-17.02.01-11.3.02-16.97.02-17.02.04-.36.34-.64.71-.64l24.62.03c.29,0,.53.24.53.53h0s-.01,3.29-.01,3.29c0,.27-.22.49-.49.49l-19.97-.04c-.35,0-.63.28-.64.63l-.02,9.81c0,.34.26.61.6.62h0l17.2.03c.36,0,.66.27.71.63.03.23.05.79.04,1.67Z"/>
  <path class="cls-4" d="M782.15,97.68c-.22,0-.41-.11-.56-.33-2.79-4.11-6.58-9.61-11.38-16.5-.06-.08-.18-.09-.25-.03-.04.03-.06.08-.07.13v25.76c0,.28-.23.51-.51.51h-3.54c-.3,0-.55-.24-.56-.54,0,0,0,0,0-.01l.02-34.05c0-.36.29-.65.65-.65h3.3c.37,0,.71.18.92.49,2.71,4.09,6.59,9.88,11.62,17.38.06.09.17.13.32.13.19,0,.32-.04.38-.13,5.01-7.52,8.86-13.33,11.55-17.42.2-.31.55-.5.92-.5h3.3c.36-.01.65.28.65.64h0s.14,34.05.14,34.05c0,.3-.24.54-.54.55h-3.55c-.27.01-.49-.21-.5-.49l-.11-25.76c0-.1-.09-.17-.19-.17-.05,0-.1.03-.13.07-4.77,6.9-8.55,12.41-11.32,16.54-.15.22-.33.33-.56.33Z"/>
  <path class="cls-4" d="M821.32,107.14c-.98,0-1.56,0-1.74-.02-.32-.03-.57-.29-.57-.6l-.02-11.6c0-1-.31-1.98-.89-2.81l-13.53-19.45c-.14-.19-.09-.45.1-.59.07-.05.16-.08.25-.08h4.14c.49-.01.95.23,1.23.64,3.37,5.09,6.9,10.3,10.59,15.61.08.12.2.18.36.18.2,0,.34-.06.42-.18,3.65-5.34,7.15-10.56,10.5-15.67.27-.41.74-.66,1.23-.66l4.14-.02c.24,0,.43.19.43.43,0,.09-.03.17-.08.24l-13.42,19.53c-.57.83-.87,1.82-.87,2.82l.04,11.59c0,.31-.24.58-.56.61-.19.02-.77.03-1.75.03Z"/>
  <path class="cls-5" d="M10,79.23c.61-1.51,1.24-2.97,1.9-4.4.11-.23.38-.33.61-.23,29.09,13.49,58.28,27.02,87.55,40.61.09.05.12.1.1.16-.02.04-.08.04-.17,0-30.55-10.37-61.01-20.73-91.37-31.06-.25-.08-.38-.35-.29-.6,0,0,0,0,0,0,.51-1.49,1.06-2.98,1.67-4.49Z"/>
  <path class="cls-3" d="M407.27,76.91c0-.19.16-.35.35-.36l10.01-.12c4.43-.06,8.07,2.69,8.11,6.13,0,0,0,0,0,0v.64c.04,3.44-3.52,6.27-7.95,6.33l-10.01.12c-.2,0-.36-.16-.36-.36l-.15-12.38Z"/>
  <path class="cls-3" d="M698.62,76.76c0-.15.12-.27.27-.27h8.01c7.26,0,13.14,5.77,13.14,12.89h0v.4c0,7.12-5.88,12.89-13.14,12.89h-8.01c-.15,0-.27-.12-.27-.27v-25.64Z"/>
  <path class="cls-3" d="M295.89,93.16l6.69-14.71c.07-.16.25-.23.41-.16.07.03.13.09.16.16l6.64,14.73c.07.16,0,.34-.15.41-.04.02-.08.03-.13.03l-13.33-.02c-.17,0-.31-.13-.32-.3,0-.05,0-.1.03-.14Z"/>
  <path class="cls-3" d="M497.16,93.05l6.52-14.53c.1-.2.34-.28.53-.19.08.04.15.1.19.19l6.52,14.53c.09.2,0,.44-.21.53-.05.02-.1.03-.15.03h-13.04c-.22,0-.4-.19-.39-.41,0-.05.01-.11.03-.15Z"/>
  <path class="cls-3" d="M596.55,78.29c.2,0,.51.48.94,1.45,2.77,6.21,4.81,10.7,6.13,13.45.08.17.01.37-.15.46-.05.03-.12.04-.18.03-.81-.06-3.03-.08-6.67-.07-3.64.02-5.86.06-6.66.13-.19.02-.35-.12-.37-.3,0-.06,0-.13.03-.19,1.3-2.76,3.3-7.26,6.01-13.5.42-.97.73-1.46.92-1.46Z"/>
  <path class="cls-3" d="M663.18,93.02l6.48-14.52c.1-.21.35-.3.56-.2.09.04.16.11.2.2l6.48,14.52c.09.21,0,.46-.21.55-.06.02-.12.04-.18.04h-12.94c-.23,0-.42-.18-.43-.41,0-.06.01-.12.04-.18Z"/>
  <path class="cls-4" d="M132.85,79.19c.02.09,0,.21-.06.38-.04.11-.17.17-.28.13-.04-.01-.07-.04-.1-.07-.15-.19-.23-.31-.23-.36,0-.19.15-.34.34-.34.16,0,.29.11.33.26Z"/>
  <path class="cls-5" d="M245.36,90.03c.27.91.54,1.89.82,2.96.08.3-.1.61-.4.69-35.13,8.94-63.08,16.04-83.87,21.31-.07.02-.11,0-.12-.05-.02-.07,0-.12.06-.14,20.28-6.97,47.57-16.32,81.87-28.05.29-.09.6.07.7.36.35,1.05.67,2.02.94,2.92Z"/>
  <path class="cls-5" d="M100.15,118.59s-.02.05-.04.07c-.04.05-.1.07-.14.06L4.8,98.3c-.23-.05-.38-.27-.34-.5.35-1.75.76-3.52,1.25-5.29.49-1.77,1.04-3.49,1.65-5.17.08-.22.32-.33.54-.26l92.13,31.41s.08.07.09.13c0,.03.02.02.03-.03Z"/>
  <path class="cls-4" d="M128.56,88.12c.05-.06.14-.06.2,0,.03.03.05.08.04.13-.05.19-.08.3-.1.33-.05.08-.16.11-.25.06-.06-.04-.1-.12-.08-.19,0-.05.07-.16.19-.32Z"/>
  <path class="cls-5" d="M249.06,106.16c.53,3.31.96,6.61,1.29,9.88.02.16-.1.3-.26.32,0,0,0,0-.01,0-35.43,2.26-70.84,4.53-106.23,6.81-.49.03-.74-.03-.77-.19-.02-.16.21-.3.68-.42,34.35-8.79,68.72-17.59,103.11-26.41.15-.04.31.05.36.2,0,0,0,.01,0,.02.7,3.22,1.31,6.48,1.83,9.79Z"/>
  <path class="cls-5" d="M2.48,107.7c.33-2.28.74-4.53,1.23-6.74.04-.18.22-.3.4-.26,0,0,0,0,0,0,28.11,6.07,61.25,13.24,99.4,21.52.07.01.09.07.07.18,0,.06-.04.09-.1.08-38.93-2.89-72.74-5.42-101.43-7.59-.19-.01-.33-.17-.32-.36,0,0,0,0,0-.01.17-2.26.41-4.53.74-6.82Z"/>
  <path class="cls-4" d="M135.27,101.06c.04.07.03.2-.04.41-.02.08-.11.12-.19.1s-.12-.11-.1-.19h0c.03-.11.06-.22.11-.31.04-.06.11-.08.18-.05.02,0,.03.02.04.04Z"/>
  <path class="cls-4" d="M94.1,109.03l1.84,1.06c.06.02.09.09.06.14-.02.06-.09.09-.14.07-.87-.19-1.45-.61-1.76-1.27Z"/>
  <path class="cls-5" d="M1.02,123.14c.04-1.65.12-3.27.23-4.86.02-.26.25-.45.51-.43,0,0,0,0,0,0,32.42,2.42,64.94,4.86,97.56,7.32.1.01.15.04.15.09,0,.07-.05.1-.16.1-32.69,1.05-65.29,2.08-97.78,3.09-.26.01-.48-.19-.49-.45,0,0,0,0,0-.01-.05-1.59-.05-3.2-.02-4.85Z"/>
  <path class="cls-5" d="M250.74,125.86c0,2.05-.12,4.1-.36,6.15-.02.24-.23.41-.47.4-65.37-4.21-98.28-6.32-98.73-6.33-.09,0-.15-.02-.19-.05-.05-.05-.08-.11-.08-.18,0-.07.03-.14.08-.19.04-.03.1-.05.19-.05.45-.01,33.36-2.11,98.73-6.3.25-.02.46.16.48.4.23,2.05.35,4.1.35,6.15Z"/>
  <path class="cls-4" d="M141.36,123.14c.19-.16.39-.24.6-.23.16,0,.28.14.28.3,0,.09-.05.18-.13.23-.15.1-.33.16-.54.18-.15.02-.29-.07-.31-.22-.02-.1.02-.2.1-.26Z"/>
  <path class="cls-4" d="M80.53,128.84c-.47.15-.78.19-.94.12-.13-.05-.2-.21-.14-.34.02-.05.06-.09.1-.12.07-.05.38-.06.93-.03.1,0,.19.09.18.2,0,.08-.06.15-.13.17Z"/>
  <path class="cls-5" d="M77.62,129.12s-.02.03-.06.04c-37.61,3.76-62.7,6.22-75.26,7.37-.21.02-.4-.11-.44-.31-.15-.67-.25-1.37-.3-2.12-.05-.74-.05-1.45.02-2.13.02-.2.18-.36.39-.37,12.61-.51,37.8-1.38,75.58-2.59.05,0,.07.03.07.11Z"/>
  <path class="cls-5" d="M3.27,147.91c-.48-2.68-.87-5.37-1.16-8.06-.03-.31.19-.58.49-.62,0,0,0,0,0,0,34.38-3.37,69.28-6.76,104.7-10.18.05,0,.08.02.09.08,0,.06-.01.1-.06.11-34.38,9.17-68.27,18.19-101.66,27.05-.3.08-.6-.11-.68-.41,0,0,0,0,0,0-.67-2.63-1.24-5.28-1.73-7.97Z"/>
  <path class="cls-4" d="M159.21,129.67c.08.06.1.18.04.27-.03.04-.08.07-.13.07,0,0-.13-.03-.37-.09-.11-.03-.17-.15-.14-.26.03-.08.1-.14.19-.15.11,0,.25.05.41.16Z"/>
  <path class="cls-5" d="M160.99,129.58c0-.06.06-.09.16-.08,32.73,2.06,62.2,3.94,88.41,5.63.29.02.51.26.51.55,0,1.23-.07,2.51-.22,3.82-.15,1.31-.35,2.57-.62,3.78-.06.29-.34.47-.63.42-25.94-4.1-55.1-8.74-87.48-13.91-.1-.01-.14-.08-.13-.21Z"/>
  <path class="cls-5" d="M247.99,151.92c-.35,1.62-.73,3.2-1.15,4.75-.07.25-.33.39-.58.33-31.57-8.55-63.23-17.13-94.99-25.76-.1-.03-.15-.06-.14-.11.01-.07.07-.09.18-.08,32.5,5.18,64.9,10.35,97.19,15.52.26.04.44.29.4.55,0,0,0,0,0,0-.26,1.58-.56,3.18-.91,4.8Z"/>
  <path class="cls-5" d="M243.08,168.37c-.95,2.59-1.98,5.13-3.09,7.64-.13.28-.47.41-.75.28-31.73-14.56-63.93-29.36-96.6-44.41-.05-.02-.06-.06-.04-.11.02-.06.05-.08.1-.07,34.69,9.49,68.87,18.87,102.53,28.13.3.08.48.4.4.7,0,0,0,0,0,0-.76,2.63-1.61,5.25-2.55,7.84Z"/>
  <path class="cls-5" d="M233.92,188.07c-1.31,2.28-3.06,5.02-5.24,8.22-.09.14-.28.17-.43.08l-88.17-62.28s-.05-.07-.04-.12c0-.02,0-.04.02-.05,0-.01.02-.03.03-.04.04-.03.08-.04.12-.02l98.06,45.14c.16.08.22.27.14.42-1.67,3.48-3.17,6.36-4.49,8.65Z"/>
  <path class="cls-5" d="M7.14,163.89c-.49-1.54-.94-3.07-1.34-4.58-.07-.25.08-.5.32-.57,30.91-8.17,61.93-16.36,93.04-24.57.09-.02.15,0,.17.04.02.06-.02.11-.12.14-30.05,11.49-60.02,22.93-89.89,34.32-.24.09-.5-.03-.6-.27,0,0,0,0,0,0-.55-1.47-1.08-2.97-1.58-4.51Z"/>
  <path class="cls-5" d="M103.35,135.84s-.03-.05-.03-.02c0,.07-.03.13-.07.15L15.17,182.02c-.21.1-.47.03-.58-.18-.88-1.6-1.7-3.26-2.47-4.97-.77-1.71-1.47-3.42-2.09-5.14-.08-.23.03-.48.26-.56l92.85-35.43s.11,0,.16.04c.02.02.04.04.05.06Z"/>
  <path class="cls-4" d="M307.15,137.67c9.65,2.42,15.5,12.26,13.06,21.97h0c-2.44,9.71-12.24,15.62-21.89,13.19h0c-9.65-2.42-15.5-12.26-13.06-21.97h0c2.44-9.71,12.24-15.62,21.89-13.19ZM301.99,141.52c-7.24.37-12.8,6.81-12.42,14.39h0c.38,7.58,6.57,13.43,13.81,13.06,7.24-.37,12.8-6.81,12.42-14.39h0c-.38-7.58-6.57-13.43-13.81-13.06Z"/>
  <path class="cls-4" d="M394.26,137.52c9.67,2.2,15.7,11.93,13.47,21.73h0c-2.23,9.81-11.87,15.98-21.54,13.78-9.67-2.2-15.7-11.93-13.47-21.73h0c2.23-9.81,11.87-15.98,21.54-13.78ZM390.51,141.49c-7.23-.16-13.23,5.85-13.4,13.44-.17,7.59,5.55,13.87,12.77,14.03h0c7.23.16,13.23-5.85,13.4-13.44.17-7.59-5.55-13.87-12.77-14.03h0Z"/>
  <path class="cls-4" d="M695.56,155.26c0,9.99-8.09,18.08-18.08,18.08h0c-9.99,0-18.08-8.09-18.08-18.08h0c0-9.99,8.09-18.08,18.08-18.08h0c9.99,0,18.08,8.09,18.08,18.08h0ZM677.07,141.49c-7.22.21-12.88,6.54-12.66,14.13.23,7.59,6.26,13.57,13.47,13.36,7.22-.21,12.88-6.54,12.66-14.13-.23-7.59-6.26-13.57-13.47-13.36Z"/>
  <path class="cls-4" d="M751.52,137.72c9.56,2.65,15.14,12.66,12.45,22.36-2.69,9.7-12.62,15.41-22.19,12.75-9.56-2.65-15.14-12.66-12.45-22.36,2.69-9.7,12.62-15.41,22.19-12.76ZM746.15,141.51c-7.22.24-12.87,6.58-12.62,14.17.25,7.58,6.31,13.54,13.53,13.3,7.22-.24,12.87-6.58,12.62-14.17-.25-7.58-6.31-13.54-13.53-13.3h0Z"/>
  <path class="cls-4" d="M797,145c-6.04-5.74-16.19-4.69-20.57,3.16-3.97,7.12-1.29,17.25,6.83,20.03,3.92,1.34,8.11.9,12.58-1.32.98-.48,1.6-1.48,1.6-2.58v-5.82c0-.36-.3-.66-.66-.66h-9.36c-.38,0-.68-.3-.68-.68v-2.85c0-.37.3-.67.68-.67h14.21c.22,0,.4.17.4.39v12.81c0,.88-.44,1.69-1.16,2.18-5.5,3.74-11.77,5.5-18.35,3.69-19.43-5.34-15.72-34.85,4.76-35.54,4.81-.16,9.07,1.22,12.76,4.14.39.3.45.86.15,1.25,0,0,0,0,0,0l-1.83,2.37c-.31.4-.89.47-1.29.16-.02-.02-.05-.04-.07-.06Z"/>
  <path class="cls-4" d="M351.03,153.98v3.48c0,.19-.16.35-.35.35h-17.68c-.19,0-.35.16-.35.35h0v14.29c0,.19-.16.35-.35.35h-4.21c-.19,0-.35-.16-.35-.35v-34.49c0-.19.16-.35.35-.35h24.89c.19,0,.35.16.35.35h0v3.89c0,.19-.16.35-.35.35h-20.01c-.19,0-.35.16-.35.35h0v10.73c0,.19.16.35.35.35h17.71c.19,0,.35.16.35.35Z"/>
  <path class="cls-4" d="M419.65,172.72c0,.07-.05.12-.12.12h-4.12c-.2,0-.36-.17-.36-.37v-34.4c0-.26.21-.47.46-.47,6.25.02,9.64.02,10.17-.01,7.55-.34,14.28,1.62,15.8,9.57.79,4.1-1,8.44-4.23,10.72-4.91,3.46-10.66,3.05-16.98,2.9-.33-.01-.61.25-.62.58,0,0,0,.01,0,.02v11.34ZM419.59,142.57l.1,13.28c0,.19.16.35.35.35l9.29-.07c4.16-.03,7.51-2.96,7.49-6.55v-.98c-.02-3.59-3.42-6.48-7.58-6.45,0,0,0,0,0,0l-9.29.07c-.19,0-.35.16-.35.35Z"/>
  <path class="cls-4" d="M461.54,152.99c5.07,0,8.14-.01,9.19-.03.18,0,.32-.15.32-.32v-14.46c0-.3.25-.55.55-.55h3.6c.29,0,.53.24.53.53v34.24c0,.18-.15.33-.33.33h-3.98c-.2,0-.36-.17-.36-.37h0v-14.38c0-.35-.27-.64-.62-.66-.45-.03-3.41-.05-8.9-.05s-8.45.02-8.9.05c-.35.02-.62.31-.62.66v14.38c0,.2-.16.37-.36.37h-3.98c-.18,0-.33-.15-.33-.33h0v-34.24c0-.29.24-.53.53-.53h3.6c.3,0,.55.25.55.55v14.46c0,.17.14.31.32.32,1.05.02,4.12.03,9.19.03Z"/>
  <path class="cls-4" d="M495.19,172.82c-.86,0-1.48-.03-1.87-.09-.34-.05-.58-.34-.58-.68v-29.28c0-.31-.26-.57-.58-.57h-10.21c-.31,0-.57-.26-.57-.57,0,0,0,0,0-.01l.07-3.59c0-.24.21-.44.45-.43,0,0,0,0,.01,0,.02,0,4.45,0,13.3,0h13.3c.24-.01.45.18.46.42,0,0,0,.01,0,.02l.06,3.59c0,.31-.25.57-.56.58,0,0,0,0-.01,0l-10.21-.02c-.32,0-.58.26-.58.57h0s-.03,29.28-.03,29.28c0,.34-.24.63-.58.68-.39.06-1.01.09-1.87.09Z"/>
  <path class="cls-4" d="M528.75,157.25c-5.52,0-8.51,0-8.96.04-.35.03-.62.32-.62.67l-.02,14.47c0,.2-.16.37-.36.37h-4.01c-.18,0-.33-.15-.33-.33h0l.04-34.47c0-.29.24-.53.53-.53h3.62c.3,0,.55.24.56.54,0,0,0,.01,0,.02l-.02,14.55c0,.17.14.31.32.32,1.07.02,4.15.03,9.25.04,5.11,0,8.19,0,9.26-.02.18,0,.32-.15.32-.32v-14.55c0-.3.25-.55.55-.56,0,0,0,0,.01,0h3.63c.29,0,.53.25.53.54h0s-.03,34.46-.03,34.46c0,.18-.14.33-.32.34,0,0,0,0-.01,0h-4.01c-.2,0-.36-.18-.36-.38h0v-14.47c.01-.35-.26-.64-.61-.67-.45-.03-3.44-.05-8.96-.06Z"/>
  <path class="cls-4" d="M566.05,137.37c.53,0,1.05.03,1.56.09.36.04.68.27.83.6l15.51,34.29c.09.19,0,.42-.18.5-.05.02-.11.04-.17.04h-3.77c-.41,0-.79-.24-.96-.61l-3.54-7.83c-.15-.34-.49-.56-.86-.56-.61,0-3.42-.01-8.45-.02-5.03,0-7.85-.01-8.46-.01-.37,0-.71.22-.86.56l-3.56,7.82c-.17.37-.55.61-.96.61h-3.77c-.21,0-.38-.17-.39-.38,0-.06.01-.11.04-.17l15.6-34.25c.15-.33.47-.56.83-.6.51-.05,1.03-.08,1.56-.08ZM559.04,158.97c-.1.24,0,.51.24.62.06.03.12.04.19.04l13.06-.04c.26,0,.47-.22.46-.48,0-.07-.02-.13-.04-.19l-6.58-14.64c-.11-.23-.39-.33-.63-.22-.1.05-.18.13-.22.23l-6.48,14.68Z"/>
  <path class="cls-4" d="M589.86,137.65h3.74c.28,0,.5.22.5.5v29.96c0,.28.22.5.5.5h18.27c.28,0,.5.22.5.5v3.19c0,.28-.22.5-.5.5h-23.01c-.28,0-.5-.22-.5-.5v-34.15c0-.28.22-.5.5-.5Z"/>
  <path class="cls-4" d="M635.6,163.35c-.22,0-.41-.11-.56-.33-2.79-4.13-6.6-9.64-11.41-16.54-.06-.08-.18-.09-.25-.03-.04.03-.06.08-.07.13v25.82c-.01.28-.23.51-.51.51h-3.55c-.3,0-.55-.24-.56-.54,0,0,0,0,0-.01l.02-34.13c0-.36.29-.65.65-.65h3.31c.37,0,.71.18.92.49,2.72,4.09,6.6,9.9,11.65,17.42.05.09.16.13.32.13.19,0,.32-.05.38-.14,5.02-7.53,8.88-13.35,11.57-17.46.21-.31.56-.49.93-.49l3.31-.02c.36,0,.65.29.65.65l.15,34.14c0,.3-.25.55-.55.55h-3.56c-.28,0-.5-.22-.5-.5l-.11-25.82c0-.1-.09-.17-.19-.17-.05,0-.1.03-.13.07-4.79,6.92-8.57,12.45-11.35,16.58-.15.23-.33.34-.56.34Z"/>
  <path class="cls-4" d="M821.32,154.09c.21,0,.35-.06.43-.17,3.68-5.34,7.21-10.57,10.58-15.68.27-.41.74-.66,1.23-.66h4.15c.24,0,.43.2.42.44,0,.08-.03.16-.07.23l-13.52,19.54c-.57.83-.88,1.82-.88,2.82v11.63c0,.31-.24.58-.56.61-.19.01-.77.02-1.75.02s-1.57,0-1.75-.02c-.32-.03-.57-.29-.57-.61v-11.63c.01-1-.29-1.98-.86-2.82l-13.51-19.55c-.13-.2-.08-.46.12-.6.07-.05.15-.07.23-.07h4.15c.49,0,.96.25,1.23.66,3.37,5.12,6.9,10.35,10.57,15.69.08.11.2.17.36.17Z"/>
  <path class="cls-4" d="M702.75,172.83c-.13,0-.23-.1-.23-.23h0v-34.48c0-.29.24-.53.53-.53h0l3.66-.02c.3,0,.54.24.54.54,0,0,0,0,0,.01l.02,29.96c0,.3.25.54.54.53h18.1c.38.01.68.31.68.69l.02,2.87c0,.36-.29.65-.65.65h-23.21Z"/>
  <path class="cls-4" d="M863.27,146.72c0,5.06-4.11,9.17-9.17,9.17s-9.17-4.11-9.17-9.17,4.11-9.17,9.17-9.17,9.17,4.11,9.17,9.17ZM862.45,146.77c0-4.57-3.7-8.27-8.27-8.27-4.57,0-8.27,3.7-8.27,8.27h0c0,4.57,3.7,8.27,8.27,8.27h0c4.57,0,8.27-3.7,8.27-8.27Z"/>
  <path class="cls-3" d="M862.45,146.77c0,4.57-3.7,8.27-8.27,8.27-4.57,0-8.27-3.7-8.27-8.27h0c0-4.57,3.7-8.27,8.27-8.27h0c4.57,0,8.27,3.7,8.27,8.27ZM857.81,151.59c.29,0,.53-.24.53-.53,0-.08-.02-.16-.06-.24l-1.27-2.47c-.15-.29-.07-.64.19-.83,1.69-1.27,1.84-2.87.44-4.79-.19-.26-.46-.45-.77-.53-1.91-.55-3.98-.75-6.22-.58-.34.03-.61.31-.61.66v8.58c0,.35.29.64.64.64h1.31c.35,0,.63-.28.63-.63h0v-2.09c0-.25.21-.46.46-.46.05,0,.11,0,.16.03.93.37,1.6,1.04,2.02,2.01.31.75,1.05,1.23,1.86,1.23h.69Z"/>
  <ellipse class="cls-3" cx="302.68" cy="155.24" rx="13.13" ry="13.74" transform="translate(-7.47 15.51) rotate(-2.9)"/>
  <ellipse class="cls-3" cx="390.2" cy="155.23" rx="13.74" ry="13.09" transform="translate(226.16 541.81) rotate(-88.7)"/>
  <ellipse class="cls-3" cx="677.48" cy="155.23" rx="13.07" ry="13.75" transform="translate(-4.31 20.17) rotate(-1.7)"/>
  <ellipse class="cls-3" cx="746.6" cy="155.24" rx="13.08" ry="13.74" transform="translate(-4.74 24.84) rotate(-1.9)"/>
  <path class="cls-4" d="M857.81,151.59h-.69c-.81,0-1.55-.48-1.86-1.23-.42-.97-1.09-1.64-2.02-2.01-.24-.09-.5.03-.59.27-.02.05-.03.1-.03.16v2.09c0,.35-.28.63-.63.63h-1.31c-.35,0-.64-.29-.64-.64h0v-8.58c0-.35.27-.63.61-.66,2.24-.17,4.31.03,6.22.58.31.08.58.27.77.53,1.4,1.92,1.25,3.52-.44,4.79-.26.19-.34.54-.19.83l1.27,2.47c.13.26.03.58-.23.71-.07.04-.15.06-.24.06ZM852.56,145.23c.01,1.12.86,1.6,1.92,1.38,1.25-.26,1.88-.73,1.87-1.42,0-.69-.64-1.15-1.89-1.38-1.07-.2-1.91.29-1.9,1.42Z"/>
  <path class="cls-5" d="M23.05,196.06c-.91-1.33-1.76-2.65-2.57-3.98-.13-.22-.06-.5.15-.63,27.1-16.47,54.29-32.99,81.57-49.56.08-.05.14-.04.18.01.03.03,0,.08-.08.15-25.35,19.38-50.63,38.7-75.83,57.95-.2.16-.49.12-.65-.08,0,0,0,0,0,0-.94-1.24-1.86-2.52-2.77-3.85Z"/>
  <path class="cls-5" d="M112.28,142.44c.05.05.06.09.02.14-22.73,32.18-42.48,60.11-59.25,83.8-.1.16-.31.2-.47.1,0,0,0,0,0,0-1.87-1.32-3.71-2.71-5.51-4.18-1.81-1.47-3.54-3-5.2-4.57-.14-.13-.15-.34-.02-.48,0,0,0,0,0,0,19.85-21.17,43.27-46.11,70.25-74.81.04-.05.1-.04.18.02Z"/>
  <path class="cls-5" d="M133.92,142.27c.05-.02.09,0,.12.03,18.21,30.81,36.14,61.19,53.78,91.13.15.27.06.61-.21.77-2.36,1.36-4.78,2.64-7.25,3.84-2.47,1.19-4.96,2.3-7.49,3.31-.29.12-.62-.02-.74-.31-12.59-32.39-25.34-65.28-38.27-98.66-.01-.05,0-.08.06-.11Z"/>
  <path class="cls-3" d="M419.59,142.57c0-.19.16-.35.35-.35l9.29-.07c4.16-.03,7.56,2.85,7.59,6.44,0,0,0,0,0,0v.98c.02,3.59-3.33,6.52-7.49,6.55l-9.29.07c-.19,0-.35-.16-.35-.35l-.1-13.28Z"/>
  <path class="cls-5" d="M223.77,203c-1.01,1.27-2.04,2.5-3.08,3.69-.17.19-.47.21-.66.04-24.13-21.25-48.32-42.56-72.59-63.95-.08-.07-.1-.13-.07-.16.04-.05.1-.05.18.01,26.42,18.67,52.75,37.3,78.99,55.87.21.15.26.44.11.65-.91,1.29-1.87,2.57-2.88,3.85Z"/>
  <path class="cls-5" d="M196.46,228.36c-1.91,1.31-3.84,2.53-5.81,3.68-.16.1-.37.05-.47-.11,0,0,0,0,0,0-14.67-24.83-31.93-54.12-51.8-87.85-.03-.05,0-.11.08-.17.05-.03.1-.03.14.02,24.36,30.64,45.5,57.26,63.43,79.86.12.15.1.36-.05.48h0c-1.78,1.42-3.62,2.79-5.52,4.1Z"/>
  <path class="cls-3" d="M856.35,145.19c0,.69-.62,1.16-1.87,1.42-1.06.22-1.91-.26-1.92-1.38-.01-1.13.83-1.62,1.9-1.42,1.25.23,1.88.69,1.89,1.38Z"/>
  <path class="cls-3" d="M559.04,158.97l6.48-14.68c.11-.24.39-.34.62-.23.1.05.18.12.23.22l6.58,14.64c.11.23,0,.51-.23.63-.06.03-.13.04-.19.04l-13.06.04c-.26,0-.47-.21-.47-.47,0-.07.01-.13.04-.19Z"/>
  <path class="cls-5" d="M113.98,144.93s0,0,0,.01c0,0,.01.02.01.03l-47.73,89.61c-.16.3-.53.41-.83.26-.51-.27-2.18-1.28-5.03-3.04-2.85-1.75-4.51-2.8-4.98-3.13-.27-.2-.34-.58-.14-.86l58.64-82.88s.03-.02.04-.01c0,0,0,0,.01.01Z"/>
  <path class="cls-5" d="M131.96,145.05l37.63,97.11c.12.3-.04.65-.34.77-.01,0-.02,0-.04.01l-14.3,4.32c-.31.09-.63-.08-.72-.38,0-.01,0-.03-.01-.04l-22.53-101.7c-.02-.09.02-.18.11-.2.09-.02.18.02.2.11Z"/>
  <path class="cls-5" d="M36.19,212.02c-1.11-1.15-2.16-2.31-3.17-3.48-.16-.19-.14-.47.04-.64,23.83-20.58,47.73-41.22,71.72-61.91.07-.07.13-.08.16-.04.05.04.03.1-.04.17-21.63,23.14-43.21,46.2-64.72,69.18-.17.18-.46.19-.65.02-1.12-1.05-2.23-2.15-3.34-3.3Z"/>
  <path class="cls-5" d="M85.4,148.68s0,.04-.04.06c-33.03,20.21-55.08,33.63-66.16,40.28-.18.11-.41.07-.54-.09-.44-.55-.85-1.15-1.22-1.82-.38-.66-.69-1.32-.93-1.98-.07-.19,0-.41.19-.51,11.41-6.08,34.27-18.09,68.58-36.02.04-.02.08,0,.12.08Z"/>
  <path class="cls-5" d="M215.79,212.47c-.87.89-1.72,1.74-2.57,2.54-.23.21-.57.2-.78-.02-13.07-13.76-31.4-33.06-54.99-57.91-5.28-5.57-7.89-8.38-7.83-8.44.07-.07,2.97,2.44,8.72,7.52,25.68,22.68,45.63,40.3,59.85,52.87.23.2.25.55.05.78-.77.88-1.58,1.77-2.45,2.66Z"/>
  <path class="cls-5" d="M122.21,149.82s-.06,0-.04.01c.06.03.09.09.09.14l-9.46,99.45c-.02.24-.23.42-.47.4-1.83-.14-3.68-.36-5.54-.65-1.87-.29-3.69-.64-5.48-1.06-.23-.05-.38-.29-.33-.52l21.03-97.66s.05-.09.12-.11c.03,0,.05,0,.08,0Z"/>
  <path class="cls-5" d="M207.67,220.09c-.94.81-1.87,1.58-2.78,2.3-.24.19-.58.15-.77-.09-11.75-14.83-28.23-35.64-49.43-62.41-4.75-5.99-7.09-9.02-7.02-9.08s2.73,2.69,7.98,8.24c23.47,24.81,41.71,44.09,54.71,57.84.2.22.2.56-.02.77-.84.81-1.73,1.62-2.67,2.43Z"/>
  <path class="cls-5" d="M73.02,238.61c-1.45-.68-2.86-1.38-4.23-2.11-.23-.12-.31-.4-.2-.62,0,0,0,0,0,0,14.9-27.88,29.85-55.85,44.86-83.9.05-.09.09-.12.13-.1.06.03.07.09.04.18-11.93,29.49-23.82,58.89-35.68,88.2-.1.23-.37.35-.6.25-1.44-.59-2.88-1.22-4.33-1.89Z"/>
  <path class="cls-4" d="M118.63,155.68c0,.21-.16.38-.47.49-.22.08-.46-.04-.54-.26-.02-.05-.03-.11-.02-.16,0-.05.06-.16.19-.34.14-.21.43-.26.64-.12.13.09.2.24.2.39Z"/>
  <path class="cls-5" d="M89.28,155.51s0,.04-.02.07c-29.01,25.28-48.39,42.1-58.14,50.46-.16.13-.39.13-.54,0-.52-.46-1.02-.99-1.5-1.58-.48-.59-.89-1.18-1.24-1.78-.11-.18-.06-.41.11-.54,10.16-7.85,30.56-23.4,61.21-46.67.03-.03.07-.01.12.05Z"/>
  <path class="cls-5" d="M126.6,156.97c.06,0,.09.05.1.15,2.29,34.23,4.34,65.06,6.13,92.48.02.31-.21.57-.51.61-1.28.17-2.61.26-3.99.29-1.38.03-2.71-.02-4-.14-.3-.03-.54-.28-.53-.59.75-27.47,1.61-58.35,2.6-92.65,0-.1.07-.15.2-.15Z"/>
  <path class="cls-5" d="M117.52,157.15c.13.03.18.1.15.2-7.19,33.03-13.7,62.76-19.51,89.19-.07.3-.35.49-.65.44-1.25-.19-2.54-.47-3.85-.82-1.31-.35-2.56-.76-3.75-1.23-.28-.11-.43-.41-.34-.7,8.22-25.79,17.49-54.77,27.82-86.96.03-.09.07-.13.13-.12Z"/>
  <path class="cls-4" d="M129.36,160.11c-.01-.21.06-.37.23-.46.08-.04.17-.02.22.06.03.05.03.12,0,.17l-.21.29c-.04.06-.13.07-.18.02-.03-.02-.04-.05-.05-.08Z"/>
  <path class="cls-4" d="M113.5,160.67c0,.19-.16.54-.46,1.07-.05.1-.17.14-.27.09-.09-.04-.14-.15-.1-.24.1-.38.27-.72.5-1.03.05-.08.17-.11.25-.05.05.04.08.1.08.16Z"/>
  <path class="cls-5" d="M139.68,249.59c-1.2.13-2.36.24-3.49.31-.3.02-.55-.21-.57-.5,0,0,0,0,0,0-1.25-18.33-2.99-44.06-5.22-77.17-.51-7.41-.72-11.11-.63-11.12.09-.01.7,3.65,1.85,10.99,5.14,32.78,9.13,58.25,11.97,76.41.05.29-.15.56-.44.61-1.12.18-2.28.34-3.47.47Z"/>
  <path class="cls-5" d="M83.46,242.86c-.86-.31-1.79-.67-2.79-1.07-.28-.12-.41-.43-.3-.71,0,0,0,0,0,0,13.37-32.68,24.02-58.69,31.95-78.02.02-.05.06-.07.13-.04.05.01.07.05.05.11-6.31,19.92-14.81,46.7-25.52,80.35-.09.28-.4.44-.69.35,0,0,0,0,0,0-1.02-.33-1.96-.66-2.83-.97Z"/>
  <path class="cls-4" d="M134.39,170.85c-.07-.23-.09-.43-.05-.61.02-.1.12-.17.22-.15.06.01.11.05.14.11.17.35.24.56.23.63-.04.15-.19.24-.34.21-.1-.02-.17-.09-.2-.19Z"/>
  <path class="cls-5" d="M134.77,172.36s.04.01.05.05c8.27,37.47,13.74,62.46,16.4,74.99.04.2-.07.4-.26.47-.65.23-1.35.42-2.1.56-.74.14-1.46.22-2.15.23-.21,0-.38-.14-.42-.35-2.02-12.64-5.89-37.93-11.62-75.87,0-.04.03-.07.1-.08Z"/>
  <path class="cls-5" d="M122.76,175.3c.08,0,.12.03.11.07-1.03,37.23-1.78,62.06-2.23,74.48,0,.2-.16.37-.36.39-.67.07-1.37.08-2.1.03-.73-.05-1.43-.14-2.09-.29-.2-.04-.33-.23-.31-.43,1.08-12.38,3.4-37.11,6.95-74.19,0-.04,0-.06.03-.06Z"/>
</svg>