<?xml version="1.0" encoding="UTF-8"?>
<svg fill="#D1DBB9" id="Layer_1" data-name="Layer 1" xmlns="http://www.w3.org/2000/svg" viewBox="0 0 862.27 249.51">
  <defs>
    <style>
      .cls-1 {
        fill: #D1DBB9;
      }

      .cls-2 {
        fill: #D1DBB9;
      }

      .cls-3 {
        fill: #D1DBB9;
      }
    </style>
  </defs>
  <path class="cls-3" d="M124.61,77.1s-.03-.02-.04-.06c-1.33-38.21-2.17-63.7-2.51-76.45,0-.21.14-.39.35-.42.68-.11,1.4-.17,2.15-.17s1.47.06,2.16.17c.2.03.34.21.34.41-.31,12.76-1.08,38.25-2.33,76.46,0,.04-.05.06-.12.06Z"/>
  <path class="cls-3" d="M111.6.65c2.33-.25,4.64-.41,6.93-.49.19-.01.35.14.36.33,0,0,0,0,0,.01,1.1,29.12,2.37,63.44,3.81,102.97,0,.07-.02.1-.09.11-.11.01-.16-.01-.17-.08-6.93-38.94-12.92-72.76-17.99-101.46-.04-.19.08-.37.27-.41,0,0,0,0,.01,0,2.26-.41,4.55-.73,6.87-.98Z"/>
  <path class="cls-3" d="M133.36.31c.93.06,1.93.15,3.02.26.31.03.53.3.5.6,0,0,0,0,0,0-3.89,35.61-6.99,63.95-9.31,85.02,0,.06-.05.09-.12.09-.05,0-.08-.04-.08-.1.58-21.19,1.38-49.69,2.39-85.5.01-.3.26-.54.57-.53,1.09.03,2.1.08,3.03.15Z"/>
  <path class="cls-3" d="M131.81,76.35c-.08,0-.12-.03-.11-.07,3.97-37.41,6.68-62.36,8.11-74.83.02-.2.19-.36.39-.36.68-.01,1.39.03,2.13.14.73.1,1.42.25,2.07.45.19.06.32.25.28.46-2.06,12.38-6.34,37.1-12.83,74.16,0,.04-.02.06-.04.05Z"/>
  <path class="cls-3" d="M119.11,100.58s.06-.01.03-.02c-.07-.01-.12-.05-.13-.1L89.98,5.4c-.07-.23.06-.47.29-.54,1.73-.57,3.51-1.07,5.34-1.51,1.82-.45,3.63-.82,5.43-1.11.24-.04.46.12.5.36l17.71,97.8s-.01.11-.07.15c-.02.02-.04.03-.07.03Z"/>
  <path class="cls-3" d="M154.53,3.7c2.22.54,4.4,1.16,6.54,1.85.18.05.28.24.22.42,0,0,0,0,0,.01-8.67,27.21-18.91,59.27-30.72,96.19-.02.06-.06.08-.12.07-.1-.03-.14-.07-.13-.13,6.56-38.2,12.28-71.37,17.15-99.51.03-.19.2-.31.38-.28,0,0,0,0,0,0,2.22.37,4.44.83,6.67,1.38Z"/>
  <path class="cls-3" d="M111.09,84.79c-.07.03-.12-.01-.15-.11-8.97-23.21-18.81-48.71-29.53-76.5-.08-.21.02-.45.23-.53,0,0,.01,0,.02,0,.75-.27,1.6-.57,2.54-.9.94-.32,1.79-.61,2.56-.86.22-.07.45.05.52.26,0,0,0,0,0,0,8.69,28.49,16.65,54.64,23.89,78.44.03.11,0,.17-.08.2Z"/>
  <path class="cls-3" d="M134.5,99.36s.05.02.03,0c-.05-.05-.07-.1-.05-.15L163.79,6.53c.07-.22.31-.35.53-.28,1.71.51,3.43,1.09,5.14,1.74,1.71.66,3.37,1.37,4.99,2.13.21.1.29.35.2.56l-39.94,88.62s-.08.07-.14.07c-.03,0-.05,0-.07-.01Z"/>
  <path class="cls-3" d="M71.79,11.69c2.13-1,4.28-1.91,6.44-2.74.17-.08.37,0,.45.18,0,0,0,.01,0,.02,10.64,27.37,23.16,59.65,37.56,96.83.03.06,0,.11-.1.15-.06.03-.11.01-.14-.04-19.43-34.81-36.29-65.05-50.57-90.71-.1-.17-.04-.38.12-.47,0,0,0,0,.01,0,2.02-1.13,4.09-2.2,6.22-3.21Z"/>
  <path class="cls-3" d="M181.79,13.74c1.42.73,2.8,1.48,4.14,2.26.21.13.28.4.16.62-15.85,27.29-31.76,54.66-47.73,82.11-.05.09-.1.11-.16.08-.04-.02-.04-.08,0-.17,12.94-29,25.85-57.9,38.73-86.71.1-.23.38-.34.61-.23,0,0,0,0,0,0,1.41.63,2.82,1.31,4.25,2.04Z"/>
  <path class="cls-3" d="M100.8,85.08s-.04,0-.06-.03c-21.19-32.54-35.27-54.27-42.25-65.19-.11-.18-.08-.4.08-.54.53-.46,1.13-.89,1.78-1.28.66-.39,1.32-.72,1.97-.99.19-.07.41,0,.51.18,6.42,11.26,19.1,33.84,38.04,67.74.02.03,0,.07-.07.11Z"/>
  <path class="cls-3" d="M137.42,106.2l50.91-88.19c.19-.33.6-.44.93-.25.02.01.04.02.05.03l10.23,7.09c.3.21.37.62.17.92,0,0-.01.01-.02.02l-62.24,80.4s-.02,0-.03,0c0,0,0,0,0-.01Z"/>
  <path class="cls-3" d="M51.72,23.86c1.32-.95,2.64-1.86,3.96-2.72.22-.14.51-.08.65.13,17.5,26.98,35.05,54.05,52.64,81.21.05.09.05.15,0,.19-.03.03-.08,0-.15-.08-20.4-25.12-40.73-50.17-60.98-75.15-.16-.2-.12-.49.07-.65,1.22-.99,2.49-1.97,3.81-2.93Z"/>
  <path class="cls-3" d="M205.84,29.88c1.06.91,2.03,1.83,2.92,2.78.21.22.21.57,0,.79-18.89,20.15-40.15,42.78-63.78,67.9-.07.07-.12.09-.17.05-.1-.09-.12-.17-.06-.25,21.12-27.26,40.16-51.79,57.11-73.59.19-.24.54-.3.79-.12,1.07.73,2.14,1.54,3.19,2.44Z"/>
  <path class="cls-3" d="M101.12,97.82s-.08.03-.13-.02c-15.19-15.85-35.6-37.18-61.24-63.99-.22-.23-.21-.59.02-.81.83-.78,1.6-1.49,2.32-2.12.73-.64,1.53-1.32,2.4-2.04.25-.19.6-.16.8.08,23.41,28.79,42.03,51.7,55.86,68.75.04.05.03.1-.03.15Z"/>
  <path class="cls-3" d="M213.01,36.62c.53.53,1,1.08,1.41,1.64.12.17.1.4-.05.54-9.25,8.79-27.83,26.25-55.75,52.37-.03.03-.06.03-.07,0-.05-.05-.07-.09-.04-.12,26.09-27.95,43.53-46.55,52.32-55.8.14-.15.37-.17.54-.05.56.41,1.11.88,1.64,1.41Z"/>
  <path class="cls-3" d="M104.29,105.41s-.04.03-.07.04c-.06.02-.11.02-.15-.01L30.41,44.46c-.17-.15-.2-.41-.06-.59,1.09-1.37,2.26-2.72,3.49-4.04,1.23-1.32,2.49-2.57,3.78-3.76.17-.15.43-.14.59.02l66.02,69.17s.04.1.02.16c0,.02,0,.02.04-.01Z"/>
  <path class="cls-3" d="M218.77,42.64c.67.77,1.26,1.46,1.79,2.09.15.18.13.44-.04.59,0,0,0,0,0,0-23.61,19.19-45.29,36.8-65.02,52.83-.09.07-.16.07-.22,0-.05-.05-.03-.12.05-.2,18.51-17.42,38.85-36.55,61.02-57.4.17-.16.43-.15.59.02.56.61,1.17,1.3,1.84,2.06Z"/>
  <path class="cls-3" d="M111.2,115.08s-.02.01-.03.02c-.03.02-.06.03-.08.02L18.35,62.03c-.52-.3-.7-.95-.4-1.47,0,0,0,0,0,0,1.27-2.2,2.81-4.6,4.62-7.2,1.81-2.6,3.53-4.88,5.15-6.83.38-.46,1.06-.53,1.52-.15,0,0,0,0,0,0l81.95,68.58s.02.05,0,.08c0,.01,0,.03,0,.04Z"/>
  <path class="cls-3" d="M225.04,50.43c.73.98,1.42,1.95,2.06,2.91.16.25.1.59-.15.75-15.49,10.47-37.23,25.16-65.22,44.06-6.26,4.23-9.42,6.31-9.47,6.24-.05-.07,2.85-2.49,8.72-7.25,26.21-21.29,46.58-37.82,61.11-49.6.23-.19.56-.16.76.07.73.89,1.46,1.83,2.19,2.82Z"/>
  <path class="cls-3" d="M232.31,61.12c.96,1.63,1.85,3.27,2.66,4.92.1.22.02.48-.19.59l-89.1,45.92s-.1.02-.16-.02c-.03-.02-.05-.04-.06-.06.03.04.04.05.04.02-.01-.07,0-.13.05-.16l83.12-56.02c.2-.13.47-.08.61.11,1.05,1.51,2.06,3.07,3.03,4.7Z"/>
  <path class="cls-3" d="M93.1,108.03c-.07.05-.14.11-.21.17-.1.08-.24.1-.36.04L12.55,70.87c-.12-.06-.17-.2-.12-.32,0,0,0,0,0-.01l3.39-6.37c.05-.09.16-.12.24-.07,0,0,0,0,0,0l77.02,43.93Z"/>
  <path class="cls-3" d="M239.74,75.86c.93,2.17,1.77,4.36,2.52,6.55.07.17-.02.37-.2.44,0,0-.01,0-.02,0-27.82,9.66-60.62,21.02-98.39,34.08-.06.02-.11-.02-.16-.11-.02-.06,0-.1.05-.13,35.59-18.19,66.51-33.97,92.75-47.34.17-.09.38-.03.47.14,0,0,0,0,0,0,1.07,2.07,2.06,4.19,2.98,6.36Z"/>
  <path class="cls-2" d="M301.75,97.18c-5.02-.01-7.83-.02-8.44,0-.37,0-.7.21-.86.55l-3.56,7.81c-.17.37-.54.61-.96.61l-3.77-.02c-.21,0-.38-.16-.39-.37,0-.06.01-.11.04-.17l15.62-34.18c.15-.33.47-.56.83-.6.51-.05,1.03-.08,1.56-.08s1.05.03,1.56.09c.36.04.67.27.82.6l15.45,34.26c.09.19,0,.42-.18.5-.05.02-.11.04-.17.04h-3.76c-.42,0-.79-.25-.96-.62l-3.53-7.82c-.15-.34-.48-.56-.85-.56-.61,0-3.42-.02-8.45-.03ZM294.89,92.16c-.07.16,0,.34.15.41.04.02.09.03.14.03l13.33.02c.17,0,.31-.14.31-.31,0-.04,0-.09-.03-.13l-6.64-14.73c-.07-.16-.25-.23-.41-.16-.07.03-.13.09-.16.16l-6.69,14.71Z"/>
  <path class="cls-2" d="M503.09,97.19h-8.46c-.37,0-.71.22-.86.56l-3.57,7.83c-.17.37-.55.61-.96.61h-3.77c-.21,0-.38-.17-.39-.38,0-.06.01-.11.04-.17l15.61-34.29c.15-.34.46-.57.83-.61.51-.05,1.03-.08,1.56-.08s1.05.03,1.56.09c.36.04.68.27.83.6l15.54,34.33c.09.19,0,.42-.18.5-.05.02-.11.04-.17.04h-3.77c-.41,0-.79-.24-.96-.61l-3.55-7.84c-.15-.34-.49-.56-.86-.56-.61,0-3.43-.01-8.47-.02ZM496.16,92.05c-.09.2,0,.44.21.53.05.02.1.03.15.03h13.04c.22,0,.4-.19.39-.41,0-.05-.01-.11-.03-.15l-6.52-14.53c-.1-.2-.34-.28-.53-.19-.08.04-.15.1-.19.19l-6.52,14.53Z"/>
  <path class="cls-2" d="M669.08,97.19c-5.03,0-7.85,0-8.46,0-.38,0-.72.22-.87.56l-3.56,7.83c-.17.37-.55.61-.96.61h-3.78c-.21,0-.38-.17-.39-.38,0-.06.01-.11.04-.17l15.62-34.31c.15-.33.47-.56.83-.6.51-.05,1.03-.08,1.56-.08s1.05.03,1.56.09c.36.04.68.27.83.6l15.55,34.34c.09.19,0,.42-.18.5-.05.02-.11.04-.17.04h-3.78c-.41,0-.79-.24-.96-.61l-3.55-7.84c-.15-.34-.49-.57-.86-.57-.61,0-3.43,0-8.47-.01ZM662.18,92.02c-.09.21,0,.46.21.55.06.02.12.04.18.04h12.94c.23,0,.42-.18.43-.41,0-.06-.01-.12-.04-.18l-6.48-14.52c-.1-.21-.35-.3-.56-.2-.09.04-.16.11-.2.2l-6.48,14.52Z"/>
  <path class="cls-2" d="M454.81,88.76c.1,6.7,4.88,12.97,11.82,13.47,4.38.32,8.23-1.43,11.52-4.56.2-.19.5-.21.72-.04l2.64,2.04c.29.23.34.66.11.96-.01.02-.03.03-.04.04-2.91,3.09-6.04,4.93-9.37,5.52-9.35,1.68-16.14-1.51-20.36-9.56-1.16-2.21-1.76-4.81-1.8-7.8-.05-3,.48-5.62,1.57-7.85,3.99-8.17,10.68-11.55,20.08-10.14,3.35.49,6.52,2.24,9.53,5.24.26.27.26.7,0,.96-.01.01-.03.03-.04.04l-2.58,2.12c-.21.17-.52.16-.72-.02-3.38-3.03-7.27-4.67-11.65-4.22-6.91.7-11.51,7.1-11.42,13.8Z"/>
  <path class="cls-2" d="M595.64,97.19c-5.03,0-7.84,0-8.45,0-.37,0-.71.22-.86.56l-3.56,7.82c-.17.38-.55.61-.97.61h-3.76c-.21,0-.38-.17-.39-.38,0-.06.01-.11.04-.17l15.59-34.25c.15-.33.47-.56.83-.6.51-.05,1.03-.08,1.56-.08s1.05.03,1.56.08c.36.04.68.27.83.61l15.51,34.28c.09.19,0,.42-.18.5-.05.02-.11.04-.17.04h-3.77c-.41,0-.79-.24-.96-.61l-3.54-7.83c-.15-.34-.49-.56-.86-.56-.61,0-3.42-.01-8.45-.01ZM595.62,92.61c3.64-.01,5.86,0,6.67.07.19.01.35-.13.36-.31,0-.06,0-.12-.03-.18-1.32-2.75-3.36-7.24-6.13-13.45-.43-.97-.74-1.45-.94-1.45s-.5.49-.92,1.46c-2.71,6.24-4.71,10.74-6.01,13.5-.08.17-.02.37.15.46.06.03.12.04.19.03.8-.07,3.02-.11,6.66-.13Z"/>
  <path class="cls-2" d="M616.08,88.87c-.04-3,.48-5.62,1.57-7.86,3.99-8.19,10.69-11.58,20.1-10.17,3.35.5,6.53,2.25,9.54,5.25.27.27.27.7,0,.96-.01.01-.03.03-.04.04l-2.58,2.12c-.22.17-.52.16-.72-.02-3.39-3.03-7.29-4.67-11.67-4.22-6.92.7-11.53,7.11-11.43,13.82.1,6.72,4.89,12.99,11.84,13.48,4.39.32,8.24-1.43,11.53-4.56.19-.19.5-.21.72-.04l2.65,2.04c.29.23.34.66.11.96-.01.02-.03.03-.04.04-2.92,3.09-6.05,4.94-9.38,5.53-9.37,1.69-16.16-1.5-20.39-9.57-1.16-2.21-1.76-4.81-1.81-7.8Z"/>
  <path class="cls-2" d="M342.4,88.98c.19,0,.31-.04.37-.13,5.03-7.49,8.9-13.27,11.61-17.35.21-.31.55-.49.92-.49h3.3c.36,0,.65.29.65.65v34.01c0,.3-.25.55-.55.55h-3.54c-.28,0-.5-.23-.5-.51v-25.73c0-.1-.09-.17-.19-.17-.05,0-.1.03-.13.07-4.8,6.87-8.59,12.36-11.38,16.47-.15.22-.33.33-.56.33-.22,0-.4-.11-.55-.33-2.77-4.12-6.53-9.63-11.3-16.52-.06-.08-.17-.09-.25-.03-.04.03-.06.07-.07.12l-.12,25.73c0,.28-.22.51-.5.51h-3.54c-.3,0-.55-.26-.55-.56,0,0,0,0,0-.01l.15-34.01c0-.36.3-.65.66-.64h3.3c.37.02.71.2.91.51,2.69,4.09,6.54,9.89,11.53,17.4.06.09.17.13.33.13Z"/>
  <path class="cls-2" d="M368.99,88.55c-.03-11.29-.04-16.96-.03-17.01.03-.36.33-.65.7-.65l24.61-.04c.29,0,.53.23.54.52,0,0,0,0,0,.01v3.29c0,.27-.22.49-.49.49h-19.97c-.35.02-.63.3-.63.65v9.81c0,.34.27.61.61.61h0l17.2-.02c.36,0,.66.27.71.63.03.23.04.79.04,1.67,0,.87,0,1.43-.03,1.66-.05.36-.35.63-.71.63l-17.2.05c-.33,0-.6.28-.6.61l.03,9.81c0,.35.29.64.64.64l19.96-.06c.27,0,.49.22.49.49h0s0,3.29,0,3.29c0,.29-.24.53-.53.53l-24.61.05c-.37,0-.67-.29-.7-.65,0-.04-.02-5.71-.04-17.01Z"/>
  <path class="cls-2" d="M430.83,105.38c.18.22.14.54-.09.72-.09.07-.2.11-.32.11h-3.92c-.58,0-1.13-.27-1.49-.73l-9.64-12.31c-.18-.23-.46-.37-.76-.37h-7.86c-.23,0-.41.18-.41.41h0v12.58c0,.23-.19.42-.42.42h-4.08c-.22,0-.4-.18-.4-.4v-34.41c0-.24.2-.44.45-.45,7.73-.11,13.1-.08,16.12.08,4.15.21,8.26,1.93,10.33,5.66,3.46,6.24-.22,13.55-7.17,14.89-.33.06-.55.38-.49.71.02.1.06.19.12.27l10.03,12.82ZM406.27,75.91l.15,12.38c0,.2.16.36.36.36l10.01-.12c4.43-.06,7.99-2.89,7.95-6.33v-.64c-.04-3.44-3.67-6.18-8.11-6.13,0,0,0,0,0,0l-10.01.12c-.19,0-.35.17-.35.36Z"/>
  <rect class="cls-2" x="437.45" y="70.91" width="4.58" height="35.3" rx=".51" ry=".51"/>
  <path class="cls-2" d="M526.74,105.9v-34.7c0-.17.13-.3.3-.3h4.02c.09,0,.18.04.24.12l20.6,26.33c.1.13.29.16.42.06.08-.06.12-.15.12-.24v-25.93c0-.17.13-.3.3-.3h3.6c.17,0,.3.13.3.3v34.64c0,.17-.13.3-.3.3h-3.17c-.09,0-.18-.04-.24-.12l-20.75-26.52c-.1-.13-.29-.16-.42-.06-.08.06-.12.15-.12.24v26.18c0,.17-.13.3-.3.3h-4.3c-.17,0-.3-.13-.3-.3Z"/>
  <path class="cls-2" d="M692.79,71.18c0-.15.13-.28.28-.28h0l12.69.04c9.97.04,18.02,7.6,17.99,16.89v1.56c-.03,9.29-8.14,16.8-18.11,16.77,0,0,0,0,0,0l-12.69-.04c-.15,0-.28-.13-.28-.28l.12-34.66ZM697.62,75.76v25.64c0,.15.12.27.27.27h8.01c7.26,0,13.14-5.77,13.14-12.89h0v-.4c0-7.12-5.88-12.89-13.14-12.89h-8.01c-.15,0-.27.12-.27.27Z"/>
  <path class="cls-2" d="M755.09,88.54c0,.88-.01,1.43-.04,1.66-.05.36-.35.63-.71.63h-17.2c-.34,0-.61.27-.61.61v9.81c0,.35.29.64.64.64h19.97c.27,0,.49.22.49.49h0v3.29c0,.29-.24.53-.53.53h0l-24.62-.02c-.37,0-.67-.29-.7-.65,0-.05,0-5.72.01-17.02.01-11.3.02-16.97.02-17.02.04-.36.34-.64.71-.64l24.62.03c.29,0,.53.24.53.53h0s-.01,3.29-.01,3.29c0,.27-.22.49-.49.49l-19.97-.04c-.35,0-.63.28-.64.63l-.02,9.81c0,.34.26.61.6.62h0l17.2.03c.36,0,.66.27.71.63.03.23.05.79.04,1.67Z"/>
  <path class="cls-2" d="M781.15,96.68c-.22,0-.41-.11-.56-.33-2.79-4.11-6.58-9.61-11.38-16.5-.06-.08-.18-.09-.25-.03-.04.03-.06.08-.07.13v25.76c0,.28-.23.51-.51.51h-3.54c-.3,0-.55-.24-.56-.54,0,0,0,0,0-.01l.02-34.05c0-.36.29-.65.65-.65h3.3c.37,0,.71.18.92.49,2.71,4.09,6.59,9.88,11.62,17.38.06.09.17.13.32.13.19,0,.32-.04.38-.13,5.01-7.52,8.86-13.33,11.55-17.42.2-.31.55-.5.92-.5h3.3c.36-.01.65.28.65.64h0s.14,34.05.14,34.05c0,.3-.24.54-.54.55h-3.55c-.27.01-.49-.21-.5-.49l-.11-25.76c0-.1-.09-.17-.19-.17-.05,0-.1.03-.13.07-4.77,6.9-8.55,12.41-11.32,16.54-.15.22-.33.33-.56.33Z"/>
  <path class="cls-2" d="M820.32,106.14c-.98,0-1.56,0-1.74-.02-.32-.03-.57-.29-.57-.6l-.02-11.6c0-1-.31-1.98-.89-2.81l-13.53-19.45c-.14-.19-.09-.45.1-.59.07-.05.16-.08.25-.08h4.14c.49-.01.95.23,1.23.64,3.37,5.09,6.9,10.3,10.59,15.61.08.12.2.18.36.18.2,0,.34-.06.42-.18,3.65-5.34,7.15-10.56,10.5-15.67.27-.41.74-.66,1.23-.66l4.14-.02c.24,0,.43.19.43.43,0,.09-.03.17-.08.24l-13.42,19.53c-.57.83-.87,1.82-.87,2.82l.04,11.59c0,.31-.24.58-.56.61-.19.02-.77.03-1.75.03Z"/>
  <path class="cls-3" d="M9,78.23c.61-1.51,1.24-2.97,1.9-4.4.11-.23.38-.33.61-.23,29.09,13.49,58.28,27.02,87.55,40.61.09.05.12.1.1.16-.02.04-.08.04-.17,0-30.55-10.37-61.01-20.73-91.37-31.06-.25-.08-.38-.35-.29-.6,0,0,0,0,0,0,.51-1.49,1.06-2.98,1.67-4.49Z"/>
  <path class="cls-1" d="M406.27,75.91c0-.19.16-.35.35-.36l10.01-.12c4.43-.06,8.07,2.69,8.11,6.13,0,0,0,0,0,0v.64c.04,3.44-3.52,6.27-7.95,6.33l-10.01.12c-.2,0-.36-.16-.36-.36l-.15-12.38Z"/>
  <path class="cls-1" d="M697.62,75.76c0-.15.12-.27.27-.27h8.01c7.26,0,13.14,5.77,13.14,12.89h0v.4c0,7.12-5.88,12.89-13.14,12.89h-8.01c-.15,0-.27-.12-.27-.27v-25.64Z"/>
  <path class="cls-1" d="M293.81,92.4l6.2-14.92c.06-.16.24-.24.4-.18.07.03.13.09.17.16l7.12,14.5c.08.15.02.34-.14.42-.04.02-.08.03-.13.03l-13.32.42c-.17.01-.32-.12-.33-.29,0-.05,0-.1.02-.14Z"/>
  <path class="cls-1" d="M496.16,92.05l6.52-14.53c.1-.2.34-.28.53-.19.08.04.15.1.19.19l6.52,14.53c.09.2,0,.44-.21.53-.05.02-.1.03-.15.03h-13.04c-.22,0-.4-.19-.39-.41,0-.05.01-.11.03-.15Z"/>
  <path class="cls-1" d="M595.55,77.29c.2,0,.51.48.94,1.45,2.77,6.21,4.81,10.7,6.13,13.45.08.17.01.37-.15.46-.05.03-.12.04-.18.03-.81-.06-3.03-.08-6.67-.07-3.64.02-5.86.06-6.66.13-.19.02-.35-.12-.37-.3,0-.06,0-.13.03-.19,1.3-2.76,3.3-7.26,6.01-13.5.42-.97.73-1.46.92-1.46Z"/>
  <path class="cls-1" d="M662.18,92.02l6.48-14.52c.1-.21.35-.3.56-.2.09.04.16.11.2.2l6.48,14.52c.09.21,0,.46-.21.55-.06.02-.12.04-.18.04h-12.94c-.23,0-.42-.18-.43-.41,0-.06.01-.12.04-.18Z"/>
  <path class="cls-2" d="M131.85,78.19c.02.09,0,.21-.06.38-.04.11-.17.17-.28.13-.04-.01-.07-.04-.1-.07-.15-.19-.23-.31-.23-.36,0-.19.15-.34.34-.34.16,0,.29.11.33.26Z"/>
  <path class="cls-3" d="M244.36,89.03c.27.91.54,1.89.82,2.96.08.3-.1.61-.4.69-35.13,8.94-63.08,16.04-83.87,21.31-.07.02-.11,0-.12-.05-.02-.07,0-.12.06-.14,20.28-6.97,47.57-16.32,81.87-28.05.29-.09.6.07.7.36.35,1.05.67,2.02.94,2.92Z"/>
  <path class="cls-3" d="M99.15,117.59s-.02.05-.04.07c-.04.05-.1.07-.14.06L3.8,97.3c-.23-.05-.38-.27-.34-.5.35-1.75.76-3.52,1.25-5.29.49-1.77,1.04-3.49,1.65-5.17.08-.22.32-.33.54-.26l92.13,31.41s.08.07.09.13c0,.03.02.02.03-.03Z"/>
  <path class="cls-2" d="M127.56,87.12c.05-.06.14-.06.2,0,.03.03.05.08.04.13-.05.19-.08.3-.1.33-.05.08-.16.11-.25.06-.06-.04-.1-.12-.08-.19,0-.05.07-.16.19-.32Z"/>
  <path class="cls-3" d="M248.06,105.16c.53,3.31.96,6.61,1.29,9.88.02.16-.1.3-.26.32,0,0,0,0-.01,0-35.43,2.26-70.84,4.53-106.23,6.81-.49.03-.74-.03-.77-.19-.02-.16.21-.3.68-.42,34.35-8.79,68.72-17.59,103.11-26.41.15-.04.31.05.36.2,0,0,0,.01,0,.02.7,3.22,1.31,6.48,1.83,9.79Z"/>
  <path class="cls-3" d="M1.48,106.7c.33-2.28.74-4.53,1.23-6.74.04-.18.22-.3.4-.26,0,0,0,0,0,0,28.11,6.07,61.25,13.24,99.4,21.52.07.01.09.07.07.18,0,.06-.04.09-.1.08-38.93-2.89-72.74-5.42-101.43-7.59-.19-.01-.33-.17-.32-.36,0,0,0,0,0-.01.17-2.26.41-4.53.74-6.82Z"/>
  <path class="cls-2" d="M134.27,100.06c.04.07.03.2-.04.41-.02.08-.11.12-.19.1s-.12-.11-.1-.19h0c.03-.11.06-.22.11-.31.04-.06.11-.08.18-.05.02,0,.03.02.04.04Z"/>
  <path class="cls-2" d="M93.1,108.03l1.84,1.06c.06.02.09.09.06.14-.02.06-.09.09-.14.07-.87-.19-1.45-.61-1.76-1.27Z"/>
  <path class="cls-3" d="M.02,122.14c.04-1.65.12-3.27.23-4.86.02-.26.25-.45.51-.43,0,0,0,0,0,0,32.42,2.42,64.94,4.86,97.56,7.32.1.01.15.04.15.09,0,.07-.05.1-.16.1-32.69,1.05-65.29,2.08-97.78,3.09-.26.01-.48-.19-.49-.45,0,0,0,0,0-.01-.05-1.59-.05-3.2-.02-4.85Z"/>
  <path class="cls-3" d="M249.74,124.86c0,2.05-.12,4.1-.36,6.15-.02.24-.23.41-.47.4-65.37-4.21-98.28-6.32-98.73-6.33-.09,0-.15-.02-.19-.05-.05-.05-.08-.11-.08-.18,0-.07.03-.14.08-.19.04-.03.1-.05.19-.05.45-.01,33.36-2.11,98.73-6.3.25-.02.46.16.48.4.23,2.05.35,4.1.35,6.15Z"/>
  <path class="cls-2" d="M140.36,122.14c.19-.16.39-.24.6-.23.16,0,.28.14.28.3,0,.09-.05.18-.13.23-.15.1-.33.16-.54.18-.15.02-.29-.07-.31-.22-.02-.1.02-.2.1-.26Z"/>
  <path class="cls-2" d="M79.53,127.84c-.47.15-.78.19-.94.12-.13-.05-.2-.21-.14-.34.02-.05.06-.09.1-.12.07-.05.38-.06.93-.03.1,0,.19.09.18.2,0,.08-.06.15-.13.17Z"/>
  <path class="cls-3" d="M76.62,128.12s-.02.03-.06.04c-37.61,3.76-62.7,6.22-75.26,7.37-.21.02-.4-.11-.44-.31-.15-.67-.25-1.37-.3-2.12-.05-.74-.05-1.45.02-2.13.02-.2.18-.36.39-.37,12.61-.51,37.8-1.38,75.58-2.59.05,0,.07.03.07.11Z"/>
  <path class="cls-3" d="M2.27,146.91c-.48-2.68-.87-5.37-1.16-8.06-.03-.31.19-.58.49-.62,0,0,0,0,0,0,34.38-3.37,69.28-6.76,104.7-10.18.05,0,.08.02.09.08,0,.06-.01.1-.06.11-34.38,9.17-68.27,18.19-101.66,27.05-.3.08-.6-.11-.68-.41,0,0,0,0,0,0-.67-2.63-1.24-5.28-1.73-7.97Z"/>
  <path class="cls-2" d="M158.21,128.67c.08.06.1.18.04.27-.03.04-.08.07-.13.07,0,0-.13-.03-.37-.09-.11-.03-.17-.15-.14-.26.03-.08.1-.14.19-.15.11,0,.25.05.41.16Z"/>
  <path class="cls-3" d="M159.99,128.58c0-.06.06-.09.16-.08,32.73,2.06,62.2,3.94,88.41,5.63.29.02.51.26.51.55,0,1.23-.07,2.51-.22,3.82-.15,1.31-.35,2.57-.62,3.78-.06.29-.34.47-.63.42-25.94-4.1-55.1-8.74-87.48-13.91-.1-.01-.14-.08-.13-.21Z"/>
  <path class="cls-3" d="M246.99,150.92c-.35,1.62-.73,3.2-1.15,4.75-.07.25-.33.39-.58.33-31.57-8.55-63.23-17.13-94.99-25.76-.1-.03-.15-.06-.14-.11.01-.07.07-.09.18-.08,32.5,5.18,64.9,10.35,97.19,15.52.26.04.44.29.4.55,0,0,0,0,0,0-.26,1.58-.56,3.18-.91,4.8Z"/>
  <path class="cls-3" d="M242.08,167.37c-.95,2.59-1.98,5.13-3.09,7.64-.13.28-.47.41-.75.28-31.73-14.56-63.93-29.36-96.6-44.41-.05-.02-.06-.06-.04-.11.02-.06.05-.08.1-.07,34.69,9.49,68.87,18.87,102.53,28.13.3.08.48.4.4.7,0,0,0,0,0,0-.76,2.63-1.61,5.25-2.55,7.84Z"/>
  <path class="cls-3" d="M232.92,187.07c-1.31,2.28-3.06,5.02-5.24,8.22-.09.14-.28.17-.43.08l-88.17-62.28s-.05-.07-.04-.12c0-.02,0-.04.02-.05,0-.01.02-.03.03-.04.04-.03.08-.04.12-.02l98.06,45.14c.16.08.22.27.14.42-1.67,3.48-3.17,6.36-4.49,8.65Z"/>
  <path class="cls-3" d="M6.14,162.89c-.49-1.54-.94-3.07-1.34-4.58-.07-.25.08-.5.32-.57,30.91-8.17,61.93-16.36,93.04-24.57.09-.02.15,0,.17.04.02.06-.02.11-.12.14-30.05,11.49-60.02,22.93-89.89,34.32-.24.09-.5-.03-.6-.27,0,0,0,0,0,0-.55-1.47-1.08-2.97-1.58-4.51Z"/>
  <path class="cls-3" d="M102.35,134.84s-.03-.05-.03-.02c0,.07-.03.13-.07.15L14.17,181.02c-.21.1-.47.03-.58-.18-.88-1.6-1.7-3.26-2.47-4.97-.77-1.71-1.47-3.42-2.09-5.14-.08-.23.03-.48.26-.56l92.85-35.43s.11,0,.16.04c.02.02.04.04.05.06Z"/>
  <path class="cls-2" d="M306.54,136.51c9.73,2.1,15.9,11.74,13.78,21.53h0c-2.12,9.79-11.72,16.02-21.44,13.91h0c-9.73-2.1-15.9-11.74-13.78-21.53h0c2.12-9.79,11.72-16.02,21.44-13.91ZM301.51,140.53c-7.23.61-12.57,7.23-11.93,14.79h0c.63,7.56,7.01,13.2,14.23,12.59,7.23-.61,12.57-7.23,11.93-14.79h0c-.63-7.56-7.01-13.2-14.23-12.59Z"/>
  <path class="cls-2" d="M393.26,136.52c9.67,2.2,15.7,11.93,13.47,21.73h0c-2.23,9.81-11.87,15.98-21.54,13.78-9.67-2.2-15.7-11.93-13.47-21.73h0c2.23-9.81,11.87-15.98,21.54-13.78ZM389.51,140.49c-7.23-.16-13.23,5.85-13.4,13.44-.17,7.59,5.55,13.87,12.77,14.03h0c7.23.16,13.23-5.85,13.4-13.44.17-7.59-5.55-13.87-12.77-14.03h0Z"/>
  <path class="cls-2" d="M694.56,154.26c0,9.99-8.09,18.08-18.08,18.08h0c-9.99,0-18.08-8.09-18.08-18.08h0c0-9.99,8.09-18.08,18.08-18.08h0c9.99,0,18.08,8.09,18.08,18.08h0ZM676.07,140.49c-7.22.21-12.88,6.54-12.66,14.13.23,7.59,6.26,13.57,13.47,13.36,7.22-.21,12.88-6.54,12.66-14.13-.23-7.59-6.26-13.57-13.47-13.36Z"/>
  <path class="cls-2" d="M750.52,136.72c9.56,2.65,15.14,12.66,12.45,22.36-2.69,9.7-12.62,15.41-22.19,12.75-9.56-2.65-15.14-12.66-12.45-22.36,2.69-9.7,12.62-15.41,22.19-12.76ZM745.15,140.51c-7.22.24-12.87,6.58-12.62,14.17.25,7.58,6.31,13.54,13.53,13.3,7.22-.24,12.87-6.58,12.62-14.17-.25-7.58-6.31-13.54-13.53-13.3h0Z"/>
  <path class="cls-2" d="M796,144c-6.04-5.74-16.19-4.69-20.57,3.16-3.97,7.12-1.29,17.25,6.83,20.03,3.92,1.34,8.11.9,12.58-1.32.98-.48,1.6-1.48,1.6-2.58v-5.82c0-.36-.3-.66-.66-.66h-9.36c-.38,0-.68-.3-.68-.68v-2.85c0-.37.3-.67.68-.67h14.21c.22,0,.4.17.4.39v12.81c0,.88-.44,1.69-1.16,2.18-5.5,3.74-11.77,5.5-18.35,3.69-19.43-5.34-15.72-34.85,4.76-35.54,4.81-.16,9.07,1.22,12.76,4.14.39.3.45.86.15,1.25,0,0,0,0,0,0l-1.83,2.37c-.31.4-.89.47-1.29.16-.02-.02-.05-.04-.07-.06Z"/>
  <path class="cls-2" d="M350.03,152.98v3.48c0,.19-.16.35-.35.35h-17.68c-.19,0-.35.16-.35.35h0v14.29c0,.19-.16.35-.35.35h-4.21c-.19,0-.35-.16-.35-.35v-34.49c0-.19.16-.35.35-.35h24.89c.19,0,.35.16.35.35h0v3.89c0,.19-.16.35-.35.35h-20.01c-.19,0-.35.16-.35.35h0v10.73c0,.19.16.35.35.35h17.71c.19,0,.35.16.35.35Z"/>
  <path class="cls-2" d="M418.65,171.72c0,.07-.05.12-.12.12h-4.12c-.2,0-.36-.17-.36-.37v-34.4c0-.26.21-.47.46-.47,6.25.02,9.64.02,10.17-.01,7.55-.34,14.28,1.62,15.8,9.57.79,4.1-1,8.44-4.23,10.72-4.91,3.46-10.66,3.05-16.98,2.9-.33-.01-.61.25-.62.58,0,0,0,.01,0,.02v11.34ZM418.59,141.57l.1,13.28c0,.19.16.35.35.35l9.29-.07c4.16-.03,7.51-2.96,7.49-6.55v-.98c-.02-3.59-3.42-6.48-7.58-6.45,0,0,0,0,0,0l-9.29.07c-.19,0-.35.16-.35.35Z"/>
  <path class="cls-2" d="M460.54,151.99c5.07,0,8.14-.01,9.19-.03.18,0,.32-.15.32-.32v-14.46c0-.3.25-.55.55-.55h3.6c.29,0,.53.24.53.53v34.24c0,.18-.15.33-.33.33h-3.98c-.2,0-.36-.17-.36-.37h0v-14.38c0-.35-.27-.64-.62-.66-.45-.03-3.41-.05-8.9-.05s-8.45.02-8.9.05c-.35.02-.62.31-.62.66v14.38c0,.2-.16.37-.36.37h-3.98c-.18,0-.33-.15-.33-.33h0v-34.24c0-.29.24-.53.53-.53h3.6c.3,0,.55.25.55.55v14.46c0,.17.14.31.32.32,1.05.02,4.12.03,9.19.03Z"/>
  <path class="cls-2" d="M494.19,171.82c-.86,0-1.48-.03-1.87-.09-.34-.05-.58-.34-.58-.68v-29.28c0-.31-.26-.57-.58-.57h-10.21c-.31,0-.57-.26-.57-.57,0,0,0,0,0-.01l.07-3.59c0-.24.21-.44.45-.43,0,0,0,0,.01,0,.02,0,4.45,0,13.3,0h13.3c.24-.01.45.18.46.42,0,0,0,.01,0,.02l.06,3.59c0,.31-.25.57-.56.58,0,0,0,0-.01,0l-10.21-.02c-.32,0-.58.26-.58.57h0s-.03,29.28-.03,29.28c0,.34-.24.63-.58.68-.39.06-1.01.09-1.87.09Z"/>
  <path class="cls-2" d="M527.75,156.25c-5.52,0-8.51,0-8.96.04-.35.03-.62.32-.62.67l-.02,14.47c0,.2-.16.37-.36.37h-4.01c-.18,0-.33-.15-.33-.33h0l.04-34.47c0-.29.24-.53.53-.53h3.62c.3,0,.55.24.56.54,0,0,0,.01,0,.02l-.02,14.55c0,.17.14.31.32.32,1.07.02,4.15.03,9.25.04,5.11,0,8.19,0,9.26-.02.18,0,.32-.15.32-.32v-14.55c0-.3.25-.55.55-.56,0,0,0,0,.01,0h3.63c.29,0,.53.25.53.54h0s-.03,34.46-.03,34.46c0,.18-.14.33-.32.34,0,0,0,0-.01,0h-4.01c-.2,0-.36-.18-.36-.38h0v-14.47c.01-.35-.26-.64-.61-.67-.45-.03-3.44-.05-8.96-.06Z"/>
  <path class="cls-2" d="M565.05,136.37c.53,0,1.05.03,1.56.09.36.04.68.27.83.6l15.51,34.29c.09.19,0,.42-.18.5-.05.02-.11.04-.17.04h-3.77c-.41,0-.79-.24-.96-.61l-3.54-7.83c-.15-.34-.49-.56-.86-.56-.61,0-3.42-.01-8.45-.02-5.03,0-7.85-.01-8.46-.01-.37,0-.71.22-.86.56l-3.56,7.82c-.17.37-.55.61-.96.61h-3.77c-.21,0-.38-.17-.39-.38,0-.06.01-.11.04-.17l15.6-34.25c.15-.33.47-.56.83-.6.51-.05,1.03-.08,1.56-.08ZM558.04,157.97c-.1.24,0,.51.24.62.06.03.12.04.19.04l13.06-.04c.26,0,.47-.22.46-.48,0-.07-.02-.13-.04-.19l-6.58-14.64c-.11-.23-.39-.33-.63-.22-.1.05-.18.13-.22.23l-6.48,14.68Z"/>
  <path class="cls-2" d="M588.86,136.65h3.74c.28,0,.5.22.5.5v29.96c0,.28.22.5.5.5h18.27c.28,0,.5.22.5.5v3.19c0,.28-.22.5-.5.5h-23.01c-.28,0-.5-.22-.5-.5v-34.15c0-.28.22-.5.5-.5Z"/>
  <path class="cls-2" d="M634.6,162.35c-.22,0-.41-.11-.56-.33-2.79-4.13-6.6-9.64-11.41-16.54-.06-.08-.18-.09-.25-.03-.04.03-.06.08-.07.13v25.82c-.01.28-.23.51-.51.51h-3.55c-.3,0-.55-.24-.56-.54,0,0,0,0,0-.01l.02-34.13c0-.36.29-.65.65-.65h3.31c.37,0,.71.18.92.49,2.72,4.09,6.6,9.9,11.65,17.42.05.09.16.13.32.13.19,0,.32-.05.38-.14,5.02-7.53,8.88-13.35,11.57-17.46.21-.31.56-.49.93-.49l3.31-.02c.36,0,.65.29.65.65l.15,34.14c0,.3-.25.55-.55.55h-3.56c-.28,0-.5-.22-.5-.5l-.11-25.82c0-.1-.09-.17-.19-.17-.05,0-.1.03-.13.07-4.79,6.92-8.57,12.45-11.35,16.58-.15.23-.33.34-.56.34Z"/>
  <path class="cls-2" d="M820.32,153.09c.21,0,.35-.06.43-.17,3.68-5.34,7.21-10.57,10.58-15.68.27-.41.74-.66,1.23-.66h4.15c.24,0,.43.2.42.44,0,.08-.03.16-.07.23l-13.52,19.54c-.57.83-.88,1.82-.88,2.82v11.63c0,.31-.24.58-.56.61-.19.01-.77.02-1.75.02s-1.57,0-1.75-.02c-.32-.03-.57-.29-.57-.61v-11.63c.01-1-.29-1.98-.86-2.82l-13.51-19.55c-.13-.2-.08-.46.12-.6.07-.05.15-.07.23-.07h4.15c.49,0,.96.25,1.23.66,3.37,5.12,6.9,10.35,10.57,15.69.08.11.2.17.36.17Z"/>
  <path class="cls-2" d="M701.75,171.83c-.13,0-.23-.1-.23-.23h0v-34.48c0-.29.24-.53.53-.53h0l3.66-.02c.3,0,.54.24.54.54,0,0,0,0,0,.01l.02,29.96c0,.3.25.54.54.53h18.1c.38.01.68.31.68.69l.02,2.87c0,.36-.29.65-.65.65h-23.21Z"/>
  <path class="cls-2" d="M862.27,145.72c0,5.06-4.11,9.17-9.17,9.17s-9.17-4.11-9.17-9.17,4.11-9.17,9.17-9.17,9.17,4.11,9.17,9.17ZM861.45,145.77c0-4.57-3.7-8.27-8.27-8.27-4.57,0-8.27,3.7-8.27,8.27h0c0,4.57,3.7,8.27,8.27,8.27h0c4.57,0,8.27-3.7,8.27-8.27Z"/>
  <path class="cls-1" d="M861.45,145.77c0,4.57-3.7,8.27-8.27,8.27-4.57,0-8.27-3.7-8.27-8.27h0c0-4.57,3.7-8.27,8.27-8.27h0c4.57,0,8.27,3.7,8.27,8.27ZM856.81,150.59c.29,0,.53-.24.53-.53,0-.08-.02-.16-.06-.24l-1.27-2.47c-.15-.29-.07-.64.19-.83,1.69-1.27,1.84-2.87.44-4.79-.19-.26-.46-.45-.77-.53-1.91-.55-3.98-.75-6.22-.58-.34.03-.61.31-.61.66v8.58c0,.35.29.64.64.64h1.31c.35,0,.63-.28.63-.63h0v-2.09c0-.25.21-.46.46-.46.05,0,.11,0,.16.03.93.37,1.6,1.04,2.02,2.01.31.75,1.05,1.23,1.86,1.23h.69Z"/>
  <ellipse class="cls-1" cx="301.68" cy="154.24" rx="13.13" ry="13.74" transform="translate(-7.42 15.46) rotate(-2.9)"/>
  <ellipse class="cls-1" cx="389.2" cy="154.23" rx="13.74" ry="13.09" transform="translate(226.18 539.83) rotate(-88.7)"/>
  <ellipse class="cls-1" cx="676.48" cy="154.23" rx="13.07" ry="13.75" transform="translate(-4.28 20.14) rotate(-1.7)"/>
  <ellipse class="cls-1" cx="745.6" cy="154.24" rx="13.08" ry="13.74" transform="translate(-4.7 24.81) rotate(-1.9)"/>
  <path class="cls-2" d="M856.81,150.59h-.69c-.81,0-1.55-.48-1.86-1.23-.42-.97-1.09-1.64-2.02-2.01-.24-.09-.5.03-.59.27-.02.05-.03.1-.03.16v2.09c0,.35-.28.63-.63.63h-1.31c-.35,0-.64-.29-.64-.64h0v-8.58c0-.35.27-.63.61-.66,2.24-.17,4.31.03,6.22.58.31.08.58.27.77.53,1.4,1.92,1.25,3.52-.44,4.79-.26.19-.34.54-.19.83l1.27,2.47c.13.26.03.58-.23.71-.07.04-.15.06-.24.06ZM851.56,144.23c.01,1.12.86,1.6,1.92,1.38,1.25-.26,1.88-.73,1.87-1.42,0-.69-.64-1.15-1.89-1.38-1.07-.2-1.91.29-1.9,1.42Z"/>
  <path class="cls-3" d="M22.05,195.06c-.91-1.33-1.76-2.65-2.57-3.98-.13-.22-.06-.5.15-.63,27.1-16.47,54.29-32.99,81.57-49.56.08-.05.14-.04.18.01.03.03,0,.08-.08.15-25.35,19.38-50.63,38.7-75.83,57.95-.2.16-.49.12-.65-.08,0,0,0,0,0,0-.94-1.24-1.86-2.52-2.77-3.85Z"/>
  <path class="cls-3" d="M111.28,141.44c.05.05.06.09.02.14-22.73,32.18-42.48,60.11-59.25,83.8-.1.16-.31.2-.47.1,0,0,0,0,0,0-1.87-1.32-3.71-2.71-5.51-4.18-1.81-1.47-3.54-3-5.2-4.57-.14-.13-.15-.34-.02-.48,0,0,0,0,0,0,19.85-21.17,43.27-46.11,70.25-74.81.04-.05.1-.04.18.02Z"/>
  <path class="cls-3" d="M132.92,141.27c.05-.02.09,0,.12.03,18.21,30.81,36.14,61.19,53.78,91.13.15.27.06.61-.21.77-2.36,1.36-4.78,2.64-7.25,3.84-2.47,1.19-4.96,2.3-7.49,3.31-.29.12-.62-.02-.74-.31-12.59-32.39-25.34-65.28-38.27-98.66-.01-.05,0-.08.06-.11Z"/>
  <path class="cls-1" d="M418.59,141.57c0-.19.16-.35.35-.35l9.29-.07c4.16-.03,7.56,2.85,7.59,6.44,0,0,0,0,0,0v.98c.02,3.59-3.33,6.52-7.49,6.55l-9.29.07c-.19,0-.35-.16-.35-.35l-.1-13.28Z"/>
  <path class="cls-3" d="M222.77,202c-1.01,1.27-2.04,2.5-3.08,3.69-.17.19-.47.21-.66.04-24.13-21.25-48.32-42.56-72.59-63.95-.08-.07-.1-.13-.07-.16.04-.05.1-.05.18.01,26.42,18.67,52.75,37.3,78.99,55.87.21.15.26.44.11.65-.91,1.29-1.87,2.57-2.88,3.85Z"/>
  <path class="cls-3" d="M195.46,227.36c-1.91,1.31-3.84,2.53-5.81,3.68-.16.1-.37.05-.47-.11,0,0,0,0,0,0-14.67-24.83-31.93-54.12-51.8-87.85-.03-.05,0-.11.08-.17.05-.03.1-.03.14.02,24.36,30.64,45.5,57.26,63.43,79.86.12.15.1.36-.05.48h0c-1.78,1.42-3.62,2.79-5.52,4.1Z"/>
  <path class="cls-1" d="M855.35,144.19c0,.69-.62,1.16-1.87,1.42-1.06.22-1.91-.26-1.92-1.38-.01-1.13.83-1.62,1.9-1.42,1.25.23,1.88.69,1.89,1.38Z"/>
  <path class="cls-1" d="M558.04,157.97l6.48-14.68c.11-.24.39-.34.62-.23.1.05.18.12.23.22l6.58,14.64c.11.23,0,.51-.23.63-.06.03-.13.04-.19.04l-13.06.04c-.26,0-.47-.21-.47-.47,0-.07.01-.13.04-.19Z"/>
  <path class="cls-3" d="M112.98,143.93s0,0,0,.01c0,0,.01.02.01.03l-47.73,89.61c-.16.3-.53.41-.83.26-.51-.27-2.18-1.28-5.03-3.04-2.85-1.75-4.51-2.8-4.98-3.13-.27-.2-.34-.58-.14-.86l58.64-82.88s.03-.02.04-.01c0,0,0,0,.01.01Z"/>
  <path class="cls-3" d="M130.96,144.05l37.63,97.11c.12.3-.04.65-.34.77-.01,0-.02,0-.04.01l-14.3,4.32c-.31.09-.63-.08-.72-.38,0-.01,0-.03-.01-.04l-22.53-101.7c-.02-.09.02-.18.11-.2.09-.02.18.02.2.11Z"/>
  <path class="cls-3" d="M35.19,211.02c-1.11-1.15-2.16-2.31-3.17-3.48-.16-.19-.14-.47.04-.64,23.83-20.58,47.73-41.22,71.72-61.91.07-.07.13-.08.16-.04.05.04.03.1-.04.17-21.63,23.14-43.21,46.2-64.72,69.18-.17.18-.46.19-.65.02-1.12-1.05-2.23-2.15-3.34-3.3Z"/>
  <path class="cls-3" d="M84.4,147.68s0,.04-.04.06c-33.03,20.21-55.08,33.63-66.16,40.28-.18.11-.41.07-.54-.09-.44-.55-.85-1.15-1.22-1.82-.38-.66-.69-1.32-.93-1.98-.07-.19,0-.41.19-.51,11.41-6.08,34.27-18.09,68.58-36.02.04-.02.08,0,.12.08Z"/>
  <path class="cls-3" d="M214.79,211.47c-.87.89-1.72,1.74-2.57,2.54-.23.21-.57.2-.78-.02-13.07-13.76-31.4-33.06-54.99-57.91-5.28-5.57-7.89-8.38-7.83-8.44.07-.07,2.97,2.44,8.72,7.52,25.68,22.68,45.63,40.3,59.85,52.87.23.2.25.55.05.78-.77.88-1.58,1.77-2.45,2.66Z"/>
  <path class="cls-3" d="M121.21,148.82s-.06,0-.04.01c.06.03.09.09.09.14l-9.46,99.45c-.02.24-.23.42-.47.4-1.83-.14-3.68-.36-5.54-.65-1.87-.29-3.69-.64-5.48-1.06-.23-.05-.38-.29-.33-.52l21.03-97.66s.05-.09.12-.11c.03,0,.05,0,.08,0Z"/>
  <path class="cls-3" d="M206.67,219.09c-.94.81-1.87,1.58-2.78,2.3-.24.19-.58.15-.77-.09-11.75-14.83-28.23-35.64-49.43-62.41-4.75-5.99-7.09-9.02-7.02-9.08s2.73,2.69,7.98,8.24c23.47,24.81,41.71,44.09,54.71,57.84.2.22.2.56-.02.77-.84.81-1.73,1.62-2.67,2.43Z"/>
  <path class="cls-3" d="M72.02,237.61c-1.45-.68-2.86-1.38-4.23-2.11-.23-.12-.31-.4-.2-.62,0,0,0,0,0,0,14.9-27.88,29.85-55.85,44.86-83.9.05-.09.09-.12.13-.1.06.03.07.09.04.18-11.93,29.49-23.82,58.89-35.68,88.2-.1.23-.37.35-.6.25-1.44-.59-2.88-1.22-4.33-1.89Z"/>
  <path class="cls-2" d="M117.63,154.68c0,.21-.16.38-.47.49-.22.08-.46-.04-.54-.26-.02-.05-.03-.11-.02-.16,0-.05.06-.16.19-.34.14-.21.43-.26.64-.12.13.09.2.24.2.39Z"/>
  <path class="cls-3" d="M88.28,154.51s0,.04-.02.07c-29.01,25.28-48.39,42.1-58.14,50.46-.16.13-.39.13-.54,0-.52-.46-1.02-.99-1.5-1.58-.48-.59-.89-1.18-1.24-1.78-.11-.18-.06-.41.11-.54,10.16-7.85,30.56-23.4,61.21-46.67.03-.03.07-.01.12.05Z"/>
  <path class="cls-3" d="M125.6,155.97c.06,0,.09.05.1.15,2.29,34.23,4.34,65.06,6.13,92.48.02.31-.21.57-.51.61-1.28.17-2.61.26-3.99.29-1.38.03-2.71-.02-4-.14-.3-.03-.54-.28-.53-.59.75-27.47,1.61-58.35,2.6-92.65,0-.1.07-.15.2-.15Z"/>
  <path class="cls-3" d="M116.52,156.15c.13.03.18.1.15.2-7.19,33.03-13.7,62.76-19.51,89.19-.07.3-.35.49-.65.44-1.25-.19-2.54-.47-3.85-.82-1.31-.35-2.56-.76-3.75-1.23-.28-.11-.43-.41-.34-.7,8.22-25.79,17.49-54.77,27.82-86.96.03-.09.07-.13.13-.12Z"/>
  <path class="cls-2" d="M128.36,159.11c-.01-.21.06-.37.23-.46.08-.04.17-.02.22.06.03.05.03.12,0,.17l-.21.29c-.04.06-.13.07-.18.02-.03-.02-.04-.05-.05-.08Z"/>
  <path class="cls-2" d="M112.5,159.67c0,.19-.16.54-.46,1.07-.05.1-.17.14-.27.09-.09-.04-.14-.15-.1-.24.1-.38.27-.72.5-1.03.05-.08.17-.11.25-.05.05.04.08.1.08.16Z"/>
  <path class="cls-3" d="M138.68,248.59c-1.2.13-2.36.24-3.49.31-.3.02-.55-.21-.57-.5,0,0,0,0,0,0-1.25-18.33-2.99-44.06-5.22-77.17-.51-7.41-.72-11.11-.63-11.12.09-.01.7,3.65,1.85,10.99,5.14,32.78,9.13,58.25,11.97,76.41.05.29-.15.56-.44.61-1.12.18-2.28.34-3.47.47Z"/>
  <path class="cls-3" d="M82.46,241.86c-.86-.31-1.79-.67-2.79-1.07-.28-.12-.41-.43-.3-.71,0,0,0,0,0,0,13.37-32.68,24.02-58.69,31.95-78.02.02-.05.06-.07.13-.04.05.01.07.05.05.11-6.31,19.92-14.81,46.7-25.52,80.35-.09.28-.4.44-.69.35,0,0,0,0,0,0-1.02-.33-1.96-.66-2.83-.97Z"/>
  <path class="cls-2" d="M133.39,169.85c-.07-.23-.09-.43-.05-.61.02-.1.12-.17.22-.15.06.01.11.05.14.11.17.35.24.56.23.63-.04.15-.19.24-.34.21-.1-.02-.17-.09-.2-.19Z"/>
  <path class="cls-3" d="M133.77,171.36s.04.01.05.05c8.27,37.47,13.74,62.46,16.4,74.99.04.2-.07.4-.26.47-.65.23-1.35.42-2.1.56-.74.14-1.46.22-2.15.23-.21,0-.38-.14-.42-.35-2.02-12.64-5.89-37.93-11.62-75.87,0-.04.03-.07.1-.08Z"/>
  <path class="cls-3" d="M121.76,174.3c.08,0,.12.03.11.07-1.03,37.23-1.78,62.06-2.23,74.48,0,.2-.16.37-.36.39-.67.07-1.37.08-2.1.03-.73-.05-1.43-.14-2.09-.29-.2-.04-.33-.23-.31-.43,1.08-12.38,3.4-37.11,6.95-74.19,0-.04,0-.06.03-.06Z"/>
</svg>