<?xml version="1.0" encoding="UTF-8"?>
<svg id="Layer_1" data-name="Layer 1" xmlns="http://www.w3.org/2000/svg" viewBox="0 0 1137.82 336.97">
  <defs>
    <style>
      .cls-1 {
        fill: #D1DBB9;
      }

      .cls-2 {
        fill: #D1DBB9;
      }
    </style>
  </defs>
  <path class="cls-2" d="m487.16,231.5c10.58-13.76,17.95-28.61,24.22-41.28,10.95-22.11,17.73-34.62,29.74-34.62s18.79,12.51,29.74,34.62c6.27,12.67,13.65,27.52,24.22,41.28h30.17c-16.03-14.5-25.97-34.15-34.4-51.18-11.98-24.18-23.29-47.03-49.73-47.03s-37.76,22.84-49.73,47.03c-8.43,17.02-18.37,36.68-34.4,51.18h30.17Z"/>
  <path class="cls-2" d="m411.99,231.5c12.73-18.54,21.11-39.06,28.7-57.66,11.54-28.32,19.25-45.68,31.83-45.68s20.28,17.36,31.83,45.68c7.58,18.6,15.97,39.12,28.7,57.66h28.27c-17.12-19.01-27.31-44.01-36.31-66.08-12.48-30.64-24.28-59.57-52.48-59.57s-40,28.94-52.48,59.57c-8.99,22.08-19.19,47.07-36.31,66.08h28.27Z"/>
  <path class="cls-1" d="m211.16,178.51c0,31.79-22.77,52.84-49.84,52.84-13.53,0-28.14-6.23-34.8-17.61v15.04h-21.06V73.89h21.06v69.38c6.66-11.39,20.62-17.4,34.8-17.4,27.28,0,49.84,20.62,49.84,52.63Zm-21.27-.22c0-18.9-13.75-32.65-31.15-32.65-15.46,0-32.01,12.46-32.01,32.65s15.25,33.3,32.01,33.3,31.15-14.61,31.15-33.3Z"/>
  <path class="cls-1" d="m232.21,91.94c0-7.73,6.66-13.53,14.39-13.53s14.39,5.8,14.39,13.53-6.45,13.53-14.39,13.53-14.39-5.8-14.39-13.53Zm3.87,136.83v-100.32h21.05v100.32h-21.05Z"/>
  <path class="cls-1" d="m282.26,178.51c0-31.79,24.06-52.63,52.63-52.63s52.84,20.84,52.84,52.63-24.27,52.84-52.84,52.84-52.63-21.05-52.63-52.84Zm84.42,0c0-19.33-14.6-32.87-31.79-32.87s-31.58,13.53-31.58,32.87,14.39,33.08,31.58,33.08,31.79-13.53,31.79-33.08Z"/>
  <path class="cls-1" d="m619.69,178.51c0-31.79,24.06-52.63,52.63-52.63s52.84,20.84,52.84,52.63-24.28,52.84-52.84,52.84-52.63-21.05-52.63-52.84Zm84.42,0c0-19.33-14.61-32.87-31.79-32.87s-31.58,13.53-31.58,32.87,14.39,33.08,31.58,33.08,31.79-13.53,31.79-33.08Z"/>
  <path class="cls-1" d="m828.27,73.89h21.06v154.88h-21.06v-15.04c-6.66,11.38-21.05,17.61-34.58,17.61-27.28,0-49.83-21.05-49.83-52.84s22.55-52.63,49.62-52.63c14.17,0,28.14,6.01,34.8,17.4v-69.38Zm-.21,104.4c0-20.19-16.54-32.65-32.01-32.65-17.18,0-31.15,13.75-31.15,32.65s13.96,33.3,31.15,33.3,32.01-13.1,32.01-33.3Z"/>
  <path class="cls-1" d="m958.67,128.45h21.05v100.32h-21.05v-16.97c-6.45,11.6-20.2,19.55-35.66,19.55-26.21,0-48.76-21.91-48.76-52.84s21.27-52.63,49.62-52.63c14.6,0,28.35,6.23,34.8,17.61v-15.04Zm-.22,50.05c0-19.33-16.11-32.87-32.22-32.87-17.18,0-30.72,15.04-30.72,32.87s13.53,33.08,31.15,33.08,31.79-14.18,31.79-33.08Z"/>
  <path class="cls-1" d="m1011.3,228.77V73.89h21.06v154.88h-21.06Z"/>
</svg>