<?xml version="1.0" encoding="UTF-8"?>
<svg id="Layer_1" data-name="Layer 1" xmlns="http://www.w3.org/2000/svg" xmlns:xlink="http://www.w3.org/1999/xlink" viewBox="0 0 553.67 142.46">
  <defs>
    <style>
      .cls-1 {
        fill: #D1DBB9;
      }

      .cls-2 {
        fill: #D1DBB9;
      }

      .cls-3 {
        fill: #D1DBB9;
      }

      .cls-4 {
        fill: #D1DBB9;
      }
    </style>
    <linearGradient id="linear-gradient" x1="239.01" y1="98.56" x2="269" y2="63.67" gradientUnits="userSpaceOnUse">
      <stop offset=".21" stop-color="#D1DBB9"/>
      <stop offset=".81" stop-color="#D1DBB9"/>
    </linearGradient>
  </defs>
  <path class="cls-4" d="M17.54,107.87c-5.47-3.01-9.76-7.19-12.87-12.53-3.11-5.34-4.67-11.32-4.67-17.93s1.55-12.59,4.67-17.93c3.11-5.34,7.42-9.51,12.92-12.53,5.5-3.01,11.66-4.52,18.47-4.52,5.11,0,9.83.85,14.15,2.56,4.32,1.7,7.99,4.19,11.01,7.47l-4.62,4.62c-5.37-5.44-12.15-8.16-20.34-8.16-5.44,0-10.38,1.25-14.84,3.73-4.46,2.49-7.94,5.9-10.46,10.22-2.52,4.32-3.78,9.17-3.78,14.54s1.26,10.22,3.78,14.54c2.52,4.32,6.01,7.73,10.46,10.22,4.45,2.49,9.4,3.73,14.84,3.73,8.25,0,15.04-2.75,20.34-8.25l4.62,4.62c-3.01,3.28-6.7,5.78-11.05,7.52-4.36,1.74-9.09,2.6-14.2,2.6-6.81,0-12.96-1.51-18.42-4.52Z"/>
  <path class="cls-4" d="M117.92,60.11v51.69h-6.68v-9.43c-1.83,3.14-4.36,5.59-7.57,7.32-3.21,1.74-6.88,2.6-11,2.6-6.75,0-12.07-1.88-15.97-5.65-3.9-3.77-5.85-9.29-5.85-16.56v-29.97h6.98v29.28c0,5.44,1.34,9.57,4.03,12.38,2.69,2.82,6.52,4.23,11.5,4.23,5.44,0,9.73-1.65,12.87-4.96,3.14-3.31,4.72-7.91,4.72-13.81v-27.12h6.98Z"/>
  <path class="cls-4" d="M143.61,62.37c3.24-1.77,7.25-2.65,12.04-2.65v6.78l-1.67-.1c-5.44,0-9.7,1.67-12.77,5.01-3.08,3.34-4.62,8.03-4.62,14.05v26.33h-6.98v-51.69h6.68v10.12c1.64-3.47,4.08-6.09,7.32-7.86Z"/>
  <path class="cls-4" d="M209.2,88.12h-43.24c.39,5.37,2.46,9.71,6.19,13.02,3.73,3.31,8.45,4.96,14.15,4.96,3.21,0,6.16-.57,8.84-1.72,2.69-1.15,5.01-2.83,6.98-5.06l3.93,4.52c-2.29,2.75-5.16,4.85-8.6,6.29-3.44,1.44-7.22,2.16-11.35,2.16-5.31,0-10.01-1.13-14.1-3.39-4.09-2.26-7.29-5.39-9.58-9.38-2.29-4-3.44-8.51-3.44-13.56s1.1-9.56,3.29-13.56c2.19-4,5.21-7.11,9.04-9.33,3.83-2.23,8.14-3.34,12.92-3.34s9.07,1.11,12.87,3.34c3.8,2.23,6.78,5.32,8.94,9.29,2.16,3.96,3.24,8.5,3.24,13.61l-.1,2.16ZM171.71,70.48c-3.37,3.18-5.29,7.32-5.75,12.43h36.65c-.46-5.11-2.38-9.25-5.75-12.43-3.38-3.18-7.58-4.77-12.63-4.77s-9.16,1.59-12.53,4.77Z"/>
  <path class="cls-4" d="M400.88,74.32h-11.74v14.54h11.74v7.6c-3.67,1.96-7.8,2.95-12.38,2.95-4.32,0-8.17-.93-11.55-2.8-3.38-1.87-6.01-4.47-7.91-7.81-1.9-3.34-2.85-7.14-2.85-11.4s.95-8.16,2.85-11.5c1.9-3.34,4.55-5.93,7.96-7.76,3.41-1.83,7.3-2.75,11.69-2.75,6.94,0,12.87,2.59,17.79,7.76l10.22-9.43c-3.34-3.86-7.47-6.81-12.38-8.84-4.91-2.03-10.38-3.05-16.41-3.05-7.21,0-13.69,1.52-19.46,4.57-5.77,3.05-10.27,7.27-13.51,12.68-3.24,5.4-4.86,11.51-4.86,18.33s1.62,12.92,4.86,18.33c3.24,5.4,7.71,9.63,13.41,12.68,5.7,3.05,12.12,4.57,19.26,4.57,4.98,0,9.92-.75,14.84-2.26,4.91-1.51,9.24-3.67,12.97-6.49v-29.91h-14.54Z"/>
  <path class="cls-4" d="M468.09,111.8l-13.27-19.16h-14.64v19.16h-15.92V43.01h29.77c6.09,0,11.38,1.02,15.87,3.05,4.49,2.03,7.94,4.91,10.37,8.65,2.42,3.73,3.64,8.16,3.64,13.27s-1.23,9.52-3.69,13.22c-2.46,3.7-5.94,6.53-10.46,8.5l15.43,22.11h-17.1ZM464.06,59.08c-2.49-2.06-6.13-3.1-10.91-3.1h-12.97v23.98h12.97c4.78,0,8.42-1.05,10.91-3.14,2.49-2.1,3.73-5.04,3.73-8.84s-1.25-6.83-3.73-8.89Z"/>
  <path class="cls-4" d="M553.67,43.01v68.79h-13.07l-34.29-41.76v41.76h-15.72V43.01h13.17l34.2,41.76v-41.76h15.72Z"/>
  <path class="cls-3" d="M269.78,116.85c-.72-4.17-1.89-8.43-3.77-12.58-.21-.53-.47-1.04-.74-1.55-.26-.51-.53-1.02-.8-1.54-.55-1.02-1.19-2-1.79-3.01-1.33-1.94-2.75-3.88-4.38-5.65-3.2-3.63-7-6.79-10.86-9.79-3.86-2.99-7.8-5.84-11.22-9.02-1.69-1.6-3.24-3.29-4.6-5.08-1.33-1.81-2.42-3.76-3.32-5.8-1.71-4.14-2.56-8.75-2.64-13.64-.06-2.5.01-4.79.37-7.09.34-2.3.99-4.55,1.85-6.73,1.73-4.36,4.45-8.41,7.91-11.92,3.47-3.51,7.57-6.43,11.94-8.74,4.38-2.3,9.06-4.01,13.78-4.98,2.36-.49,4.73-.8,7.06-.9,2.39-.06,4.84-.06,7.2.18,4.75.41,9.34,1.48,13.62,3.19,2.13.87,4.18,1.9,6.12,3.07,1.94,1.18,3.76,2.53,5.48,3.99,1.72,1.45,3.29,3.07,4.73,4.78.74.84,1.4,1.74,2.08,2.63.63.92,1.29,1.82,1.85,2.78.61.93,1.12,1.92,1.67,2.88.49.99,1.02,1.97,1.45,2.98.93,2,1.68,4.07,2.36,6.14,1.32,4.16,2.16,8.41,2.68,12.61.26-4.22.14-8.63-.54-13.11-.36-2.24-.81-4.5-1.49-6.75-.3-1.14-.71-2.24-1.09-3.37-.44-1.1-.85-2.24-1.38-3.33-.48-1.11-1.06-2.19-1.63-3.28-.62-1.06-1.23-2.15-1.94-3.18-1.38-2.09-2.94-4.11-4.71-5.98-1.77-1.87-3.71-3.64-5.83-5.23-2.13-1.58-4.41-2.99-6.81-4.22-4.82-2.43-10.14-4.08-15.61-4.91-2.75-.45-5.5-.62-8.33-.69-2.89-.03-5.77.21-8.62.68-5.7.93-11.26,2.77-16.53,5.39-5.26,2.63-10.25,6.08-14.56,10.45-4.3,4.36-7.79,9.61-9.94,15.38-1.07,2.88-1.83,5.87-2.19,8.89-.16,1.51-.3,3.01-.3,4.51l-.02,1.12c0,.37.03.72.04,1.08l.1,2.14c.02.71.11,1.43.19,2.14l.25,2.14c.09.71.25,1.43.38,2.13.15.71.23,1.42.45,2.12.38,1.41.72,2.81,1.26,4.18.45,1.38,1.09,2.71,1.7,4.03,1.34,2.59,2.95,5.02,4.79,7.18,1.87,2.13,3.9,4,6,5.66,4.21,3.29,8.54,5.8,12.6,8.31,4.06,2.5,7.9,5.01,11.27,7.94,1.72,1.44,3.25,3.02,4.74,4.64.69.85,1.42,1.67,2.07,2.54.32.44.64.88.96,1.32.33.44.64.88.92,1.35,2.38,3.63,4.23,7.55,5.7,11.52Z"/>
  <path class="cls-4" d="M260.29,60.35c-3.07-1.18-6.8-1.87-10.83-1.87s-7.76.7-10.83,1.87c3.07,1.18,6.8,1.87,10.83,1.87s7.76-.69,10.83-1.87Z"/>
  <path class="cls-1" d="M269.85,47.13c-5.45-1.25-12.06-1.99-19.2-1.99s-13.75.74-19.2,1.99c5.45,1.25,12.06,1.99,19.2,1.99s13.75-.74,19.2-1.99Z"/>
  <path class="cls-4" d="M240.43,107.02c2.53.97,5.61,1.54,8.93,1.54s6.4-.57,8.93-1.54c-2.53-.97-5.61-1.54-8.93-1.54s-6.4.57-8.93,1.54Z"/>
  <path class="cls-1" d="M234.12,118.5c4.18.96,9.25,1.53,14.73,1.53s10.55-.57,14.73-1.53c-4.18-.96-9.25-1.53-14.73-1.53s-10.55.57-14.73,1.53Z"/>
  <path class="cls-2" d="M221.7,131.48c.6-4.25,1.7-8.56,3.51-12.71,1.8-4.16,4.29-8.13,7.3-11.9,6.03-7.57,14.08-14.3,22.45-21.63,4.19-3.67,8.3-7.39,12.08-11.33,3.78-3.94,7.24-8.11,10.02-12.57,2.78-4.45,4.85-9.2,5.93-13.93,1.11-4.73,1.22-9.39.72-13.63-.6,4.25-1.71,8.56-3.53,12.7-1.81,4.15-4.32,8.11-7.35,11.87-6.06,7.55-14.13,14.26-22.51,21.59-4.19,3.67-8.3,7.4-12.07,11.35-3.77,3.95-7.22,8.13-9.98,12.61-2.77,4.46-4.81,9.22-5.88,13.95-1.09,4.74-1.2,9.39-.69,13.63Z"/>
  <path class="cls-4" d="M270.39,142.46c3.76-3.2,7.59-6.72,11.43-10.59.96-.97,1.91-1.96,2.87-2.98.47-.52.95-1.03,1.43-1.55l.71-.8.35-.4.18-.2c1.26.92-1.7-1.27-1.38-1.03l.04.02.08.05c.05.04.1.07.14.11.09.08.17.17.23.27.03.05.06.1.09.15.02.05.05.1.12.19.12.15.23.31.34.47l.07.11h0s0,0,0,0h0c.06,0,.17-.03.24-.05.23-.04.47-.1.77-.14.57-.09,1.23-.15,1.88-.21,1.33-.1,2.72-.16,4.14-.21,2.88-.07,5.81-.15,8.78-.22,3.02-.1,6.07-.2,9.35-.56.83-.1,1.67-.21,2.6-.4.45-.08.97-.22,1.49-.36.31-.1.61-.21.92-.33.2-.09.41-.19.61-.3.2-.11.36-.18.72-.44.3-.23.61-.49.85-.75.2-.24.4-.5.57-.76l.13-.2.07-.13.13-.25.26-.51.33-.8.25-.71c.3-.92.52-1.76.72-2.59.78-3.3,1.29-6.48,1.76-9.73.81-5.75,1.36-11.36,1.75-16.88l-2.47,3.36c2.34-1.07,4.49-2.17,6.67-3.42,1.08-.62,2.16-1.28,3.24-2.03.55-.38,1.09-.77,1.66-1.25.57-.5,1.15-.97,1.85-1.91l.26-.38c.1-.17.2-.35.29-.53l.13-.27c.05-.13.1-.26.14-.39.08-.29.15-.48.19-.86.04-.37.04-.75,0-1.11-.07-.4-.19-.82-.36-1.19-.12-.26-.09-.17-.12-.24l-.05-.09-.11-.19-.87-1.48c-.59-.98-1.17-1.96-1.76-2.93-1.18-1.94-2.36-3.84-3.56-5.7-.6-.93-1.21-1.85-1.83-2.76-.32-.45-.63-.91-.94-1.36l-.24-.34-.12-.17-.06-.08-.03-.04-.02-.02c-.24.14.52-.33-.53.31l.07-.05.28-.18.14-.09s0,0,.02-.01h-.01s-.02-.02-.04-.04l-.12-.24c-.34-.73-.64-1.77-.92-2.73-.28-.98-.53-1.97-.78-2.96-.97-3.97-1.84-7.87-2.7-11.61-.18,3.84-.28,7.83-.16,12.01.03,1.04.08,2.1.16,3.18.09,1.1.16,2.14.47,3.43l.14.51c.08.22.18.45.29.67l.34.71c.22.48.44.95.66,1.43.44.97.88,1.95,1.32,2.94.88,1.99,1.77,4.01,2.67,6.06.45,1.03.91,2.06,1.37,3.1l.7,1.57.09.2.04.1s.07.15-.03-.04c-.13-.24-.21-.52-.23-.78-.04-.22-.05-.46-.02-.68.08-.71.33-.9.26-.89,0-.03-.32.25-.66.46-.35.24-.78.49-1.21.74-.89.5-1.86.99-2.86,1.46-2,.94-4.17,1.87-6.26,2.69l-2.15.85-.32,2.51c-.68,5.33-1.39,10.89-2.17,16.44-.45,3.11-.9,6.22-1.49,9.06-.14.71-.31,1.38-.47,1.96l-.12.4-.1.29s0,0,0,.01h0s0,.02,0,0l.05-.08c.06-.1.14-.2.24-.28.1-.12.25-.27.4-.37.21-.13.19-.12.22-.14.03-.02.06-.03.09-.03-.05.02-.12.05-.17.08-.22.07-.44.15-.75.22-.58.15-1.27.29-1.95.41-2.81.49-5.81.84-8.76,1.21-2.96.37-5.9.74-8.84,1.2-1.47.24-2.93.49-4.42.83-.75.18-1.49.35-2.3.61-.39.11-.82.28-1.26.46-.25.11-.47.21-.73.35l-.45.28c-.14.1-.28.17-.51.4-.2.19-.41.42-.56.61l-.14.22-.27.44-.54.87c-.37.58-.74,1.15-1.1,1.73-.75,1.14-1.49,2.28-2.22,3.4-3,4.49-5.88,8.79-8.62,12.87Z"/>
</svg>