<?xml version="1.0" encoding="UTF-8"?> <svg fill="#D1DBB9" xmlns="http://www.w3.org/2000/svg" id="Layer_1" data-name="Layer 1" viewBox="0 0 630.32 193.91"><defs><style>.cls-1{fill:#D1DBB9;}</style></defs><title>Norlase logo vector_Pantone 802c-b</title><path class="cls-1" d="M228.69,205.7a6,6,0,0,0-11.78-1.38h0l-34.74,146.3L163.1,245.7l-13.61.05L122.33,356h0a5.83,5.83,0,0,0-.16,1.4,6,6,0,0,0,11.76,1.45h0l21.61-87.75,20.36,112.07,10.81,0,41.81-176.11h0A6.35,6.35,0,0,0,228.69,205.7Z" transform="translate(-122.17 -199.73)"></path><path d="M272.33,266c-20.84,0-31.41,16.39-31.41,48.73s10.57,48.73,31.41,48.73,31.41-16.4,31.41-48.73S293.17,266,272.33,266Zm0,84c-7.19,0-16.76-3.67-16.76-35.31s9.57-35.31,16.76-35.31,16.76,3.66,16.76,35.31S279.52,350,272.33,350Z" transform="translate(-122.17 -199.73)"></path><path d="M517.23,267.43,489.3,361.94h15.47l7.13-25.55h25.56l7.13,25.55h15.47l-27.93-94.51ZM515.49,323l9.19-33.59L533.87,323Z" transform="translate(-122.17 -199.73)"></path><path d="M614,307.62c-10.92-3.6-17.62-6.3-17.62-15.91,0-6,3.47-12.33,13.19-12.33,8.3,0,12.34,4.55,12.34,13.93v3.39h14.65v-3.39c0-17.9-9.42-27.35-27.23-27.35-16.77,0-27.6,10.44-27.6,26.61,0,19.17,14,23.74,25.19,27.41,11.06,3.63,17.32,6.14,17.32,15.59,0,11.92-8.44,14.43-15.52,14.43-12.23,0-14.06-9.58-14.06-15.29V328H580v6c0,19,10.28,29.44,29,29.44s29.93-10.87,29.93-29.08C638.89,315.84,625.09,311.28,614,307.62Z" transform="translate(-122.17 -199.73)"></path><path d="M390.69,358.06c-.81-5.67-1.32-21.94-1.32-22.09-.23-8.33-1.63-16.9-8.78-21.26,6.22-4.36,9.64-11.94,9.64-21.89,0-15.66-10-25.39-26.12-25.39H346.55l-12,12v82.5h14.65V321.89h11.48c11.49,0,13.59,2.56,14.05,17.15,0,.68.75,16.72,1.06,19.85l.3,3.05h15.18Zm-31.38-49.59H349.19V280.85h11c12.79,0,15.41,5.52,15.41,13.81C375.58,304,370.26,308.47,359.31,308.47Z" transform="translate(-122.17 -199.73)"></path><polygon points="313.03 148.79 313.03 67.7 298.38 67.7 298.38 148.48 312.11 162.21 349.4 162.21 349.4 148.79 313.03 148.79"></polygon><polygon points="559.48 148.79 559.48 119.7 592.78 119.7 592.78 106.28 559.48 106.28 559.48 81.12 595.11 81.12 595.11 67.7 556.65 67.7 544.83 79.52 544.83 148.74 558.3 162.21 596.22 162.21 596.22 148.79 559.48 148.79"></polygon><polygon points="86.05 193.75 30.29 193.91 31.47 188.7 87.23 188.54 86.05 193.75"></polygon><polygon points="61.37 40.84 5.61 41 6.79 35.8 62.55 35.63 61.37 40.84"></polygon><path d="M742.59,267.44a9.75,9.75,0,1,1-10.07,9.72,9.82,9.82,0,0,1,10-9.72Zm-.12,1.95a7.77,7.77,0,0,0,.12,15.53c4.26.06,7.41-3.44,7.41-7.76a7.51,7.51,0,0,0-7.47-7.77ZM741,282.19h-2.25v-9.66a19.52,19.52,0,0,1,3.73-.35,5.46,5.46,0,0,1,3.38.77,2.65,2.65,0,0,1,.94,2.07,2.48,2.48,0,0,1-2,2.31v.12a2.8,2.8,0,0,1,1.78,2.37,6.17,6.17,0,0,0,.71,2.37h-2.43a7.65,7.65,0,0,1-.77-2.31c-.18-1.07-.77-1.54-2-1.54H741Zm.06-5.45h1.06c1.25,0,2.26-.41,2.26-1.42s-.66-1.48-2.08-1.48a5.32,5.32,0,0,0-1.24.12Z" transform="translate(-122.17 -199.73)"></path></svg> 