<?xml version="1.0" encoding="UTF-8"?>
<svg fill="#D1DBB9" id="Layer_1" data-name="Layer 1" xmlns="http://www.w3.org/2000/svg" xmlns:xlink="http://www.w3.org/1999/xlink" viewBox="0 0 123.08 34.33">
  <defs>
    <style>
      .cls-1 {
        fill: #D1DBB9;
      }

      .cls-1, .cls-2, .cls-3, .cls-4, .cls-5, .cls-6, .cls-7, .cls-8, .cls-9, .cls-10, .cls-11, .cls-12, .cls-13, .cls-14, .cls-15, .cls-16, .cls-17, .cls-18, .cls-19, .cls-20 {
        stroke-width: 0px;
      }

      .cls-2 {
        fill: #D1DBB9;
      }

      .cls-3 {
        fill: #D1DBB9;
      }

      .cls-4 {
        fill: #D1DBB9;
      }

      .cls-5 {
        fill: #D1DBB9;
      }

      .cls-6 {
        fill: #D1DBB9;
      }

      .cls-7 {
        fill: #D1DBB9;
      }

      .cls-8 {
        fill: #D1DBB9;
      }

      .cls-9 {
        fill: #D1DBB9;
      }

      .cls-10 {
        fill: #D1DBB9;
      }

      .cls-11 {
        fill: #D1DBB9;
      }

      .cls-12 {
        fill: #D1DBB9;
      }

      .cls-13 {
        fill: #D1DBB9;
      }

      .cls-14 {
        fill: #D1DBB9;
      }

      .cls-15 {
        fill: #D1DBB9;
      }

      .cls-16 {
        fill: #D1DBB9;
      }

      .cls-17 {
        fill: #D1DBB9;
      }

      .cls-18 {
        fill: #D1DBB9;
      }

      .cls-19 {
        fill: #D1DBB9;
      }

      .cls-20 {
        fill: #D1DBB9;
      }
    </style>
    <linearGradient id="linear-gradient" x1="91.74" y1="9.14" x2="121.8" y2="8.36" gradientUnits="userSpaceOnUse">
      <stop offset="0" stop-color="#D1DBB9"/>
      <stop offset=".99" stop-color="#D1DBB9"/>
      <stop offset="1" stop-color="#D1DBB9"/>
    </linearGradient>
    <linearGradient id="linear-gradient-2" x1="91.88" y1="14.57" x2="121.94" y2="13.79" xlink:href="#linear-gradient"/>
    <linearGradient id="linear-gradient-3" x1="91.83" y1="12.58" x2="121.89" y2="11.8" xlink:href="#linear-gradient"/>
    <linearGradient id="linear-gradient-4" x1="91.84" y1="13.24" x2="121.9" y2="12.46" xlink:href="#linear-gradient"/>
    <linearGradient id="linear-gradient-5" x1="91.96" y1="17.82" x2="122.02" y2="17.04" xlink:href="#linear-gradient"/>
    <linearGradient id="linear-gradient-6" x1="91.61" y1="4.26" x2="121.67" y2="3.48" xlink:href="#linear-gradient"/>
    <linearGradient id="linear-gradient-7" x1="91.61" y1="4.41" x2="121.68" y2="3.63" xlink:href="#linear-gradient"/>
    <linearGradient id="linear-gradient-8" x1="91.72" y1="8.37" x2="121.78" y2="7.59" xlink:href="#linear-gradient"/>
    <linearGradient id="linear-gradient-9" x1="91.56" y1="2.2" x2="121.62" y2="1.43" xlink:href="#linear-gradient"/>
    <linearGradient id="linear-gradient-10" x1="92.16" y1="25.4" x2="122.22" y2="24.62" xlink:href="#linear-gradient"/>
    <linearGradient id="linear-gradient-11" x1="92.02" y1="20.07" x2="122.08" y2="19.3" xlink:href="#linear-gradient"/>
    <linearGradient id="linear-gradient-12" x1="92.08" y1="22.31" x2="122.14" y2="21.53" xlink:href="#linear-gradient"/>
    <linearGradient id="linear-gradient-13" x1="92.06" y1="21.8" x2="122.13" y2="21.02" xlink:href="#linear-gradient"/>
    <linearGradient id="linear-gradient-14" x1="92.28" y1="30.18" x2="122.34" y2="29.4" xlink:href="#linear-gradient"/>
    <linearGradient id="linear-gradient-15" x1="92.29" y1="30.41" x2="122.35" y2="29.63" xlink:href="#linear-gradient"/>
    <linearGradient id="linear-gradient-16" x1="92.18" y1="26.36" x2="122.24" y2="25.58" xlink:href="#linear-gradient"/>
    <linearGradient id="linear-gradient-17" x1="92.34" y1="32.41" x2="122.4" y2="31.64" xlink:href="#linear-gradient"/>
    <linearGradient id="linear-gradient-18" x1="91.95" y1="17.2" x2="122.01" y2="16.42" xlink:href="#linear-gradient"/>
  </defs>
  <g>
    <circle class="cls-1" cx="95.85" cy="9.03" r=".74"/>
    <circle class="cls-12" cx="97.95" cy="14.41" r=".74"/>
    <circle class="cls-13" cx="102.56" cy="12.3" r=".36"/>
    <path class="cls-11" d="M105.65,13.24c.2,0,.36-.16.36-.36s-.16-.36-.36-.36-.36.16-.36.36.16.36.36.36Z"/>
    <path class="cls-17" d="M117.31,16.93c-.13,0-.23.1-.23.23s.1.23.23.23.23-.1.23-.23-.1-.23-.23-.23Z"/>
    <circle class="cls-18" cx="94.08" cy="4.2" r=".54"/>
    <path class="cls-16" d="M101.36,4.66c.28,0,.5-.23.5-.5s-.23-.5-.5-.5-.5.23-.5.5.23.5.5.5Z"/>
    <path class="cls-14" d="M99.65,8.39c.12,0,.22-.1.22-.22s-.1-.22-.22-.22-.22.1-.22.22.1.22.22.22Z"/>
    <path class="cls-15" d="M97.49,2.41c.2,0,.36-.16.36-.36s-.16-.36-.36-.36-.36.16-.36.36.16.36.36.36Z"/>
    <circle class="cls-5" cx="95.85" cy="25.3" r=".74"/>
    <circle class="cls-2" cx="97.95" cy="19.92" r=".74"/>
    <path class="cls-3" d="M102.56,22.39c.2,0,.36-.16.36-.36s-.16-.36-.36-.36-.36.16-.36.36.16.36.36.36Z"/>
    <path class="cls-4" d="M105.65,21.09c-.2,0-.36.16-.36.36s.16.36.36.36.36-.16.36-.36-.16-.36-.36-.36Z"/>
    <circle class="cls-10" cx="94.08" cy="30.14" r=".54"/>
    <path class="cls-8" d="M101.36,29.67c-.28,0-.5.23-.5.5s.23.5.5.5.5-.23.5-.5-.23-.5-.5-.5Z"/>
    <path class="cls-7" d="M99.65,25.95c-.12,0-.22.1-.22.22s.1.22.22.22.22-.1.22-.22-.1-.22-.22-.22Z"/>
    <path class="cls-6" d="M97.49,31.93c-.2,0-.36.16-.36.36s.16.36.36.36.36-.16.36-.36-.16-.36-.36-.36Z"/>
    <path class="cls-9" d="M121.96,16.05c-.4,0-.74.21-.94.52l-1.27-.68c.08-.18.13-.38.13-.59,0-.77-.63-1.4-1.4-1.4-.35,0-.67.13-.91.34l-.88-.94c.13-.15.22-.34.22-.55,0-.45-.37-.82-.82-.82s-.82.37-.82.82c0,0,0,0,0,.01l-1.41.21c-.12-.5-.56-.87-1.1-.87-.2,0-.39.06-.55.15l-.72-1.13c.25-.19.42-.48.42-.82,0-.56-.46-1.02-1.02-1.02-.37,0-.69.2-.87.49l-1.3-.66c.02-.07.04-.15.04-.23,0-.41-.33-.74-.74-.74s-.74.33-.74.74c0,.02,0,.05,0,.07l-1.56.42c-.13-.38-.41-.68-.77-.84l.38-.95c.06.01.11.02.17.02.41,0,.74-.33.74-.74s-.33-.74-.74-.74-.74.33-.74.74c0,.27.15.51.37.64l-.38.96c-.12-.03-.25-.05-.39-.05-.28,0-.54.08-.77.22l-.59-.86c.27-.21.45-.53.45-.9,0-.63-.51-1.14-1.14-1.14-.5,0-.91.32-1.07.76l-1.46-.41c.04-.17.07-.34.07-.52,0-1.21-.98-2.19-2.19-2.19-.59,0-1.12.23-1.51.61l-1.96-2.03c.19-.21.31-.48.31-.78,0-.64-.52-1.16-1.16-1.16s-1.16.52-1.16,1.16.52,1.16,1.16,1.16c.26,0,.49-.09.69-.23l1.97,2.04c-.33.38-.53.88-.53,1.42,0,1.21.98,2.19,2.19,2.19.09,0,.17,0,.25-.02l.34,1.52c-.7.23-1.21.88-1.21,1.66,0,.96.78,1.75,1.75,1.75.29,0,.57-.07.81-.2l1.15,1.78c-.92.65-1.52,1.72-1.52,2.93s.6,2.28,1.52,2.93l-1.15,1.78c-.24-.13-.52-.2-.81-.2-.96,0-1.75.78-1.75,1.75,0,.78.51,1.44,1.21,1.66l-.34,1.52c-.08,0-.17-.02-.25-.02-1.21,0-2.19.98-2.19,2.19,0,.54.2,1.04.53,1.42l-1.97,2.04c-.19-.14-.43-.23-.69-.23-.64,0-1.16.52-1.16,1.16s.52,1.16,1.16,1.16,1.16-.52,1.16-1.16c0-.3-.12-.58-.31-.78l1.96-2.03c.39.37.92.61,1.51.61,1.21,0,2.19-.98,2.19-2.19,0-.18-.02-.36-.07-.52l1.46-.41c.16.44.58.76,1.07.76.63,0,1.14-.51,1.14-1.14,0-.37-.18-.69-.45-.9l.59-.86c.22.14.48.22.77.22.14,0,.27-.02.39-.05l.38.96c-.22.13-.37.36-.37.64,0,.41.33.74.74.74s.74-.33.74-.74-.33-.74-.74-.74c-.06,0-.12,0-.17.02l-.38-.95c.36-.16.64-.47.77-.84l1.56.42s0,.05,0,.07c0,.41.33.74.74.74s.74-.33.74-.74c0-.08-.02-.15-.04-.23l1.3-.66c.18.29.5.49.87.49.56,0,1.02-.46,1.02-1.02,0-.34-.17-.64-.42-.82l.72-1.13c.16.09.35.15.55.15.53,0,.98-.37,1.1-.87l1.41.21s0,0,0,.01c0,.45.37.82.82.82s.82-.37.82-.82c0-.21-.08-.4-.22-.55l.88-.94c.25.21.56.34.91.34.77,0,1.4-.63,1.4-1.4,0-.21-.05-.41-.13-.59l1.27-.68c.2.31.54.53.94.53.62,0,1.12-.5,1.12-1.12s-.5-1.11-1.12-1.11ZM115.3,12.98c.1.34.41.59.78.59.16,0,.31-.05.44-.13l.89.95c-.21.25-.34.56-.34.91,0,.17.03.32.08.47l-.91.41c-.35-.66-1.04-1.11-1.84-1.11-.27,0-.52.05-.75.14l-.41-.97c.38-.18.64-.57.64-1.02,0-.02,0-.03,0-.05l1.41-.21ZM112.76,19.96c-.57,0-1.04.42-1.12.97l-.97-.04c0-.3-.1-.57-.25-.81l2.33-1.65c.19.25.43.45.71.59l-.41.98c-.09-.02-.19-.04-.29-.04ZM104.36,23.02c-.08,0-.16,0-.24.02l-.5-2.38c.93-.21,1.72-.79,2.22-1.57l1.85,1.13c-.11.21-.17.46-.17.71,0,.3.09.58.23.82l-2.32,1.74c-.26-.29-.64-.47-1.07-.47ZM104.36,11.31c.42,0,.8-.18,1.07-.47l2.32,1.74c-.15.24-.23.52-.23.82,0,.26.06.5.17.71l-1.85,1.13c-.5-.78-1.29-1.36-2.22-1.57l.5-2.38c.08.01.16.02.24.02ZM111.65,13.41c.08.55.55.97,1.12.97.1,0,.2-.02.29-.04l.41.98c-.28.14-.52.35-.71.59l-2.33-1.65c.15-.23.24-.51.25-.81l.97-.04ZM112.33,17.09h-1.18c-.04-.6-.53-1.07-1.14-1.07-.07,0-.14,0-.21.02l-.27-1.12c.3-.09.57-.26.77-.49l2.33,1.65c-.18.3-.29.64-.3,1.01ZM109.1,14.98c.07,0,.14,0,.21-.02l.27,1.13c-.4.16-.69.54-.72.99h-2.46c-.01-.6-.17-1.17-.45-1.67l1.85-1.12c.29.41.76.68,1.3.68ZM106.4,17.3h2.47c.05.42.33.78.72.93l-.27,1.13c-.07,0-.14-.02-.21-.02-.54,0-1.01.27-1.3.68l-1.85-1.12c.27-.48.42-1.02.45-1.6ZM109.53,19.41l.27-1.12c.07.01.14.02.21.02.59,0,1.07-.44,1.14-1.01h1.19c.02.34.13.67.3.94l-2.33,1.65c-.2-.23-.47-.41-.77-.49ZM112.03,12.38c-.23.2-.38.48-.4.81l-.96.04c-.05-.49-.33-.91-.72-1.16l.49-.85c.13.07.28.11.44.11.15,0,.28-.03.41-.09l.73,1.15ZM107.34,9.18c.11.27.38.46.68.46.25,0,.47-.13.61-.32l1.3.66c-.04.1-.06.21-.06.33,0,.32.15.61.39.8l-.5.86c-.2-.09-.42-.15-.66-.15-.49,0-.93.23-1.22.58l-2.31-1.73c.16-.23.25-.51.25-.81,0-.09,0-.18-.03-.27l1.56-.41ZM103.42,8.76c-.31.27-.51.66-.51,1.1,0,.05,0,.11,0,.16l-2.44.46c-.08-.32-.25-.61-.49-.83l1.63-1.87c.19.15.43.24.69.24.18,0,.36-.05.51-.13l.6.87ZM98.12,7.69c.74-.16,1.34-.7,1.59-1.41l1.47.41c0,.06-.02.12-.02.18,0,.29.11.56.29.76l-1.64,1.87c-.29-.22-.65-.35-1.04-.35-.11,0-.22.01-.33.03l-.34-1.5ZM99.79,12.34c.45-.32.75-.84.75-1.43,0-.07,0-.14-.01-.21l2.45-.46c.13.47.49.85.95,1l-.51,2.39c-.19-.03-.39-.05-.59-.05-.69,0-1.34.2-1.89.54l-1.14-1.78ZM100.93,20.22c.55.34,1.2.54,1.89.54.2,0,.4-.02.59-.05l.51,2.39c-.46.15-.82.53-.95,1l-2.45-.46c0-.07.01-.14.01-.21,0-.59-.3-1.12-.75-1.43l1.14-1.78ZM99.72,28.05c-.25-.71-.85-1.24-1.59-1.41l.34-1.5c.11.02.21.03.33.03.39,0,.75-.13,1.04-.35l1.64,1.87c-.18.2-.29.47-.29.76,0,.06,0,.12.02.18l-1.47.41ZM102.83,26.44c-.15-.08-.33-.13-.51-.13-.26,0-.5.09-.69.24l-1.63-1.87c.23-.22.4-.51.49-.83l2.44.46c0,.05,0,.11,0,.16,0,.44.2.83.51,1.1l-.6.87ZM108.63,25.02c-.13-.19-.36-.32-.61-.32-.31,0-.57.19-.68.46l-1.56-.41c.02-.09.03-.18.03-.27,0-.3-.09-.58-.25-.81l2.31-1.73c.29.35.73.58,1.22.58.24,0,.46-.05.66-.15l.5.86c-.24.19-.39.47-.39.8,0,.12.02.23.06.33l-1.3.66ZM111.3,23.09c-.13-.06-.26-.09-.41-.09-.16,0-.31.04-.44.11l-.49-.85c.39-.25.67-.67.72-1.16l.96.04c.01.32.16.61.4.81l-.73,1.15ZM113.89,21.14s0-.03,0-.05c0-.45-.26-.83-.64-1.02l.41-.97c.23.09.49.14.75.14.8,0,1.49-.45,1.84-1.11l.91.41c-.05.15-.08.31-.08.47,0,.35.13.67.34.91l-.89.95c-.13-.08-.28-.13-.44-.13-.37,0-.69.25-.78.59l-1.41-.21ZM119.64,18.25c-.25-.37-.68-.62-1.16-.62-.53,0-.99.3-1.23.73l-.9-.41c.1-.24.15-.5.15-.78s-.05-.54-.15-.78l.9-.41c.24.44.7.73,1.23.73.49,0,.91-.25,1.16-.62l1.28.68c-.05.12-.08.26-.08.4s.03.27.08.4l-1.28.68Z"/>
  </g>
  <g>
    <g>
      <path class="cls-19" d="M3.52,10.43c.43-.23.92-.35,1.5-.35.67,0,1.27.17,1.81.51.54.34.97.82,1.28,1.45.31.63.47,1.36.47,2.19s-.16,1.57-.47,2.2c-.31.63-.74,1.12-1.28,1.47-.54.34-1.15.52-1.81.52-.56,0-1.06-.12-1.49-.35-.43-.23-.77-.53-1.01-.9v4.99H.03v-11.96h2.48v1.15c.24-.38.58-.68,1-.91ZM5.54,12.77c-.34-.35-.77-.53-1.27-.53s-.91.18-1.26.54c-.34.36-.52.85-.52,1.47s.17,1.11.52,1.47c.34.36.76.54,1.26.54s.91-.18,1.26-.54c.35-.36.52-.85.52-1.47s-.17-1.11-.52-1.46Z"/>
      <path class="cls-19" d="M13.46,10.49c.44-.26.92-.38,1.45-.38v2.63h-.68c-.62,0-1.08.13-1.39.4-.31.27-.46.73-.46,1.4v3.76h-2.48v-8.1h2.48v1.35c.29-.44.65-.8,1.09-1.05Z"/>
      <path class="cls-19" d="M17.94,17.9c-.63-.34-1.13-.82-1.5-1.45-.36-.63-.54-1.36-.54-2.21s.18-1.57.55-2.2c.37-.63.87-1.12,1.51-1.46.64-.34,1.35-.51,2.15-.51s1.51.17,2.15.51c.64.34,1.14.82,1.51,1.46.37.63.55,1.37.55,2.2s-.19,1.57-.56,2.2c-.37.63-.88,1.12-1.52,1.46-.64.34-1.36.51-2.16.51s-1.51-.17-2.14-.51ZM21.29,15.74c.33-.35.5-.85.5-1.49s-.16-1.15-.49-1.49c-.32-.35-.72-.52-1.2-.52s-.89.17-1.2.52c-.32.34-.48.84-.48,1.5s.16,1.15.47,1.49c.31.35.71.52,1.18.52s.88-.17,1.21-.52Z"/>
      <path class="cls-19" d="M30.5,10.43c.43.23.76.54.99.91v-1.15h2.48v8.08c0,.74-.15,1.42-.44,2.02-.3.6-.75,1.09-1.35,1.44s-1.36.54-2.26.54c-1.2,0-2.17-.28-2.92-.85-.75-.57-1.17-1.33-1.28-2.3h2.45c.08.31.26.55.55.73.29.18.65.27,1.07.27.51,0,.92-.15,1.23-.44.3-.3.46-.77.46-1.41v-1.15c-.24.38-.58.68-1,.92-.43.24-.92.36-1.49.36-.67,0-1.27-.17-1.81-.52-.54-.34-.97-.83-1.28-1.47-.31-.63-.47-1.37-.47-2.2s.16-1.56.47-2.19c.31-.63.74-1.11,1.28-1.45.54-.34,1.15-.51,1.81-.51.57,0,1.07.12,1.5.35ZM30.98,12.78c-.34-.36-.76-.54-1.26-.54s-.91.18-1.26.53c-.34.35-.52.84-.52,1.46s.17,1.11.52,1.47c.34.36.76.54,1.26.54s.91-.18,1.26-.54c.34-.36.52-.85.52-1.47s-.17-1.11-.52-1.47Z"/>
      <path class="cls-19" d="M39.35,10.49c.44-.26.92-.38,1.45-.38v2.63h-.68c-.62,0-1.08.13-1.39.4-.31.27-.46.73-.46,1.4v3.76h-2.48v-8.1h2.48v1.35c.29-.44.65-.8,1.09-1.05Z"/>
      <path class="cls-19" d="M42.55,12.04c.31-.63.74-1.11,1.28-1.45.54-.34,1.15-.51,1.81-.51.57,0,1.07.12,1.5.35.43.23.76.54.99.91v-1.15h2.48v8.1h-2.48v-1.15c-.24.38-.58.68-1.01.91-.43.23-.93.35-1.5.35-.66,0-1.26-.17-1.8-.52-.54-.34-.97-.83-1.28-1.47-.31-.63-.47-1.37-.47-2.2s.16-1.56.47-2.19ZM47.63,12.78c-.34-.36-.76-.54-1.26-.54s-.91.18-1.26.53c-.34.35-.52.84-.52,1.46s.17,1.11.52,1.47c.34.36.76.54,1.26.54s.91-.18,1.26-.54c.34-.36.52-.85.52-1.47s-.17-1.11-.52-1.47Z"/>
      <path class="cls-19" d="M59.92,11.03c.57.61.85,1.46.85,2.53v4.73h-2.47v-4.4c0-.54-.14-.96-.42-1.26-.28-.3-.66-.45-1.13-.45s-.85.15-1.13.45c-.28.3-.42.72-.42,1.26v4.4h-2.48v-8.1h2.48v1.07c.25-.36.59-.64,1.02-.85.43-.21.9-.31,1.44-.31.95,0,1.71.31,2.27.92Z"/>
      <path class="cls-19" d="M70.5,10.2v8.1h-2.48v-1.1c-.25.36-.59.65-1.02.86-.43.22-.91.33-1.43.33-.62,0-1.17-.14-1.64-.41-.47-.28-.84-.67-1.1-1.2-.26-.52-.39-1.14-.39-1.84v-4.73h2.47v4.4c0,.54.14.96.42,1.26.28.3.66.45,1.13.45s.87-.15,1.15-.45c.28-.3.42-.72.42-1.26v-4.4h2.48Z"/>
      <path class="cls-19" d="M75.05,7.55v10.74h-2.48V7.55h2.48Z"/>
      <path class="cls-19" d="M77.33,8.97c-.28-.26-.41-.57-.41-.95s.14-.71.41-.97c.28-.26.63-.38,1.07-.38s.78.13,1.05.38c.28.26.41.58.41.97s-.14.69-.41.95c-.28.26-.63.38-1.05.38s-.79-.13-1.07-.38ZM79.63,10.2v8.1h-2.48v-8.1h2.48Z"/>
      <path class="cls-19" d="M88.63,11.03c.57.61.85,1.46.85,2.53v4.73h-2.47v-4.4c0-.54-.14-.96-.42-1.26-.28-.3-.66-.45-1.13-.45s-.85.15-1.13.45c-.28.3-.42.72-.42,1.26v4.4h-2.48v-8.1h2.48v1.07c.25-.36.59-.64,1.02-.85.43-.21.9-.31,1.44-.31.95,0,1.71.31,2.27.92Z"/>
    </g>
    <g>
      <path class="cls-20" d="M.12,23.67c-.08-.08-.12-.17-.12-.29s.04-.21.12-.29.19-.12.32-.12.23.04.32.12.12.17.12.29-.04.21-.12.29-.19.12-.32.12-.24-.04-.32-.12ZM.81,24.04v2.43H.07v-2.43h.74Z"/>
      <path class="cls-20" d="M5.5,24.29c.17.18.25.44.25.76v1.42h-.74v-1.32c0-.16-.04-.29-.13-.38-.08-.09-.2-.13-.34-.13s-.26.05-.34.13c-.08.09-.13.22-.13.38v1.32h-.74v-2.43h.74v.32c.08-.11.18-.19.3-.25.13-.06.27-.09.43-.09.28,0,.51.09.68.28Z"/>
      <path class="cls-20" d="M9.5,24.66h-.4v1.81h-.74v-1.81h-.27v-.62h.27v-.07c0-.3.09-.53.26-.68.17-.16.42-.23.75-.23.06,0,.1,0,.12,0v.63c-.14,0-.24.01-.3.06-.06.05-.09.14-.09.27v.02h.4v.62Z"/>
      <path class="cls-20" d="M12.31,26.35c-.19-.1-.34-.25-.45-.44-.11-.19-.16-.41-.16-.66s.06-.47.17-.66c.11-.19.26-.34.45-.44.19-.1.41-.15.64-.15s.45.05.64.15c.19.1.34.25.45.44.11.19.17.41.17.66s-.06.47-.17.66c-.11.19-.26.34-.46.44s-.41.15-.65.15-.45-.05-.64-.15ZM13.32,25.7c.1-.1.15-.25.15-.45s-.05-.34-.15-.45c-.1-.1-.22-.16-.36-.16s-.27.05-.36.15c-.1.1-.14.25-.14.45s.05.34.14.45c.09.1.21.16.35.16s.26-.05.36-.16Z"/>
      <path class="cls-20" d="M17.68,24.13c.13-.08.28-.12.44-.12v.79h-.2c-.19,0-.32.04-.42.12-.09.08-.14.22-.14.42v1.13h-.74v-2.43h.74v.4c.09-.13.2-.24.33-.32Z"/>
      <path class="cls-20" d="M24.29,24.29c.18.18.27.44.27.76v1.42h-.74v-1.32c0-.16-.04-.28-.12-.36s-.2-.13-.34-.13-.26.04-.34.13-.12.21-.12.36v1.32h-.74v-1.32c0-.16-.04-.28-.12-.36s-.2-.13-.34-.13-.26.04-.34.13-.12.21-.12.36v1.32h-.74v-2.43h.74v.3c.08-.1.17-.18.3-.24.12-.06.26-.09.41-.09.18,0,.35.04.49.12.14.08.26.19.34.34.08-.13.2-.24.34-.33.15-.08.3-.13.47-.13.3,0,.54.09.72.27Z"/>
      <path class="cls-20" d="M27.06,24.59c.09-.19.22-.33.39-.44.16-.1.34-.15.54-.15.17,0,.32.04.45.1s.23.16.3.27v-.34h.74v2.43h-.74v-.34c-.07.11-.17.2-.3.27s-.28.1-.45.1c-.2,0-.38-.05-.54-.15-.16-.1-.29-.25-.39-.44-.09-.19-.14-.41-.14-.66s.05-.47.14-.66ZM28.59,24.81c-.1-.11-.23-.16-.38-.16s-.27.05-.38.16c-.1.11-.15.25-.15.44s.05.33.15.44c.1.11.23.16.38.16s.27-.05.38-.16c.1-.11.15-.25.15-.44s-.05-.33-.15-.44Z"/>
      <path class="cls-20" d="M33.38,25.83v.63h-.38c-.27,0-.48-.07-.63-.2-.15-.13-.23-.35-.23-.65v-.97h-.3v-.62h.3v-.59h.74v.59h.49v.62h-.49v.98c0,.07.02.12.05.16.03.03.09.05.17.05h.27Z"/>
      <path class="cls-20" d="M35.85,23.67c-.08-.08-.12-.17-.12-.29s.04-.21.12-.29.19-.12.32-.12.23.04.32.12.12.17.12.29-.04.21-.12.29-.19.12-.32.12-.24-.04-.32-.12ZM36.54,24.04v2.43h-.74v-2.43h.74Z"/>
      <path class="cls-20" d="M39.54,26.35c-.19-.1-.34-.25-.45-.44-.11-.19-.16-.41-.16-.66s.06-.47.17-.66c.11-.19.26-.34.45-.44.19-.1.41-.15.64-.15s.45.05.64.15c.19.1.34.25.45.44.11.19.17.41.17.66s-.06.47-.17.66c-.11.19-.26.34-.46.44s-.41.15-.65.15-.45-.05-.64-.15ZM40.54,25.7c.1-.1.15-.25.15-.45s-.05-.34-.15-.45c-.1-.1-.22-.16-.36-.16s-.27.05-.36.15c-.1.1-.14.25-.14.45s.05.34.14.45c.09.1.21.16.35.16s.26-.05.36-.16Z"/>
      <path class="cls-20" d="M46,24.29c.17.18.25.44.25.76v1.42h-.74v-1.32c0-.16-.04-.29-.13-.38-.08-.09-.2-.13-.34-.13s-.26.05-.34.13c-.08.09-.13.22-.13.38v1.32h-.74v-2.43h.74v.32c.08-.11.18-.19.3-.25.13-.06.27-.09.43-.09.28,0,.51.09.68.28Z"/>
      <path class="cls-20" d="M53.84,24.29c.17.18.25.44.25.76v1.42h-.74v-1.32c0-.16-.04-.29-.13-.38-.08-.09-.2-.13-.34-.13s-.26.05-.34.13c-.08.09-.13.22-.13.38v1.32h-.74v-2.43h.74v.32c.08-.11.18-.19.3-.25.13-.06.27-.09.43-.09.28,0,.51.09.68.28Z"/>
      <path class="cls-20" d="M56.61,24.59c.09-.19.22-.33.39-.44.16-.1.34-.15.54-.15.17,0,.32.04.45.1s.23.16.3.27v-.34h.74v2.43h-.74v-.34c-.07.11-.17.2-.3.27s-.28.1-.45.1c-.2,0-.38-.05-.54-.15-.16-.1-.29-.25-.39-.44-.09-.19-.14-.41-.14-.66s.05-.47.14-.66ZM58.14,24.81c-.1-.11-.23-.16-.38-.16s-.27.05-.38.16c-.1.11-.15.25-.15.44s.05.33.15.44c.1.11.23.16.38.16s.27-.05.38-.16c.1-.11.15-.25.15-.44s-.05-.33-.15-.44Z"/>
      <path class="cls-20" d="M62.67,25.77l.53-1.73h.79l-.86,2.43h-.92l-.86-2.43h.8l.53,1.73Z"/>
      <path class="cls-20" d="M66.36,23.67c-.08-.08-.12-.17-.12-.29s.04-.21.12-.29.19-.12.32-.12.23.04.32.12.12.17.12.29-.04.21-.12.29-.19.12-.32.12-.24-.04-.32-.12ZM67.05,24.04v2.43h-.74v-2.43h.74Z"/>
      <path class="cls-20" d="M70.95,24.11c.13.07.23.16.3.27v-.34h.74v2.42c0,.22-.04.43-.13.61s-.22.33-.4.43c-.18.11-.41.16-.68.16-.36,0-.65-.08-.87-.25s-.35-.4-.38-.69h.74c.02.09.08.17.17.22s.19.08.32.08c.15,0,.28-.04.37-.13.09-.09.14-.23.14-.42v-.34c-.07.11-.17.21-.3.28-.13.07-.28.11-.45.11-.2,0-.38-.05-.54-.15-.16-.1-.29-.25-.39-.44-.09-.19-.14-.41-.14-.66s.05-.47.14-.66c.09-.19.22-.33.39-.44.16-.1.34-.15.54-.15.17,0,.32.04.45.1ZM71.09,24.81c-.1-.11-.23-.16-.38-.16s-.27.05-.38.16c-.1.11-.15.25-.15.44s.05.33.15.44c.1.11.23.16.38.16s.27-.05.38-.16c.1-.11.15-.25.15-.44s-.05-.33-.15-.44Z"/>
      <path class="cls-20" d="M74.53,24.59c.09-.19.22-.33.39-.44.16-.1.34-.15.54-.15.17,0,.32.04.45.1s.23.16.3.27v-.34h.74v2.43h-.74v-.34c-.07.11-.17.2-.3.27s-.28.1-.45.1c-.2,0-.38-.05-.54-.15-.16-.1-.29-.25-.39-.44-.09-.19-.14-.41-.14-.66s.05-.47.14-.66ZM76.05,24.81c-.1-.11-.23-.16-.38-.16s-.27.05-.38.16c-.1.11-.15.25-.15.44s.05.33.15.44c.1.11.23.16.38.16s.27-.05.38-.16c.1-.11.15-.25.15-.44s-.05-.33-.15-.44Z"/>
      <path class="cls-20" d="M80.84,25.83v.63h-.38c-.27,0-.48-.07-.63-.2-.15-.13-.23-.35-.23-.65v-.97h-.3v-.62h.3v-.59h.74v.59h.49v.62h-.49v.98c0,.07.02.12.05.16.03.03.09.05.17.05h.27Z"/>
      <path class="cls-20" d="M83.69,26.35c-.19-.1-.34-.25-.45-.44-.11-.19-.16-.41-.16-.66s.06-.47.17-.66c.11-.19.26-.34.45-.44.19-.1.41-.15.64-.15s.45.05.64.15c.19.1.34.25.45.44.11.19.17.41.17.66s-.06.47-.17.66c-.11.19-.26.34-.46.44s-.41.15-.65.15-.45-.05-.64-.15ZM84.69,25.7c.1-.1.15-.25.15-.45s-.05-.34-.15-.45c-.1-.1-.22-.16-.36-.16s-.27.05-.36.15c-.1.1-.14.25-.14.45s.05.34.14.45c.09.1.21.16.35.16s.26-.05.36-.16Z"/>
      <path class="cls-20" d="M89.07,24.12c.13-.08.28-.12.44-.12v.79h-.2c-.19,0-.32.04-.42.12-.09.08-.14.22-.14.42v1.13h-.74v-2.43h.74v.4c.09-.13.2-.24.33-.32Z"/>
    </g>
  </g>
</svg>