<?xml version="1.0" encoding="UTF-8"?>
<svg id="Layer_2" data-name="Layer 2" xmlns="http://www.w3.org/2000/svg" viewBox="0 0 504 319.71">
  <defs>
    <style>
      .cls-1 {
        fill: #D1DBB9;
      }

      .cls-1, .cls-2, .cls-3 {
        fill-rule: evenodd;
      }

      .cls-2 {
        fill: #D1DBB9;
      }

      .cls-3 {
        fill: #D1DBB9;
      }
    </style>
  </defs>
  <path class="cls-3" d="m229.26,0l-113.66,319.71L311.97,0h-82.71ZM50.79,114.63H0l118.02,192.02L50.79,114.63Z"/>
  <path class="cls-2" d="m334.82,293.96h9.19v-107.27h-9.19v107.27Zm4.6-122.26c3.74,0,6.1-2.6,6.1-5.8s-2.37-5.8-6.1-5.8-6.23,2.6-6.23,5.8,2.49,5.8,6.23,5.8Z"/>
  <path class="cls-2" d="m383.02,159.61h-3.28c-8.4,0-15.19,6.55-15.19,14.63v119.73h9.82v-29.9c1.67.61,3.47.99,5.37.99h3.28c8.4,0,15.21-6.55,15.21-14.63v-76.19c0-8.08-6.81-14.63-15.21-14.63Zm5.37,89.5c0,3.46-2.81,6.27-6.27,6.27h-1.49c-3.45,0-6.25-2.79-6.27-6.24v-62.83h0v-10.75c0-3.46,2.81-6.27,6.27-6.27h1.49c3.46,0,6.27,2.81,6.27,6.27v73.56Z"/>
  <path class="cls-1" d="m435.74,188.45h-3.28c-1.9,0-3.7.37-5.37.99v-29.16h-9.81v133.69s-.02,0,0,0h9.81v-89.6c.02-3.45,2.81-6.24,6.27-6.24h1.49c3.46,0,6.27,2.81,6.27,6.27v89.57h9.84v-90.89c0-8.08-6.81-14.63-15.21-14.63Z"/>
  <path class="cls-1" d="m504,160.1h-9.93v89.57c0,3.46-2.81,6.27-6.27,6.27h-1.49c-3.46,0-6.27-2.81-6.27-6.27v-89.57h-9.84v90.89c0,8.08,6.81,14.63,15.21,14.63h3.28c1.97,0,3.83-.39,5.56-1.04v13.21c0,3.46-2.81,6.27-6.27,6.27h-1.49c-3.46,0-6.27-2.81-6.27-6.27v-2.87h-9.84v4.19c0,8.08,6.81,14.63,15.21,14.63h3.28c8.4,0,15.12-6.55,15.12-14.63v-119Z"/>
  <path class="cls-1" d="m304.24,160.16h-3.28c-3.38,0-6.47,1.09-8.99,2.89-.57-1.79-1.49-2.76-1.49-2.76h-8.71s1.62,1.82,2.27,3.45c.91,2.27,1.27,4.08,1.54,6.89.07.75.12,2.32.16,4.28v118.89h9.79l.04-117.69c0-3.46,2.81-6.27,6.27-6.27h1.49c3.06,0,5.6,2.19,6.15,5.09l9.23-4.39c-1.91-5.99-7.63-10.37-14.48-10.37Z"/>
  <path class="cls-1" d="m264.09,293.96s-1.62-1.82-2.27-3.45c-.91-2.27-1.27-4.08-1.54-6.89-.07-.72-.12-2.24-.16-4.11,0-.06.02-.12.02-.18,0,0-.11-79.38-.13-79.97-.18-5.26-.02-11.81-1.55-18.47-1.15-5.02-3.62-9.37-9.24-14.09-5.7-4.78-13.06-6.53-13.06-6.53l-4.53,7.8s3.45.91,6.89,2.54c3.45,1.63,6.58,3.33,9.67,8.77,1.86,3.28,2.15,7.67,2.17,10.07-1.69-.62-3.51-1-5.43-1h-3.28c-8.4,0-15.21,6.55-15.21,14.63v14.39h0v61.87c0,8.08,6.81,14.63,15.21,14.63h3.28c3.35,0,6.43-1.08,8.94-2.85.57,1.85,1.52,2.85,1.52,2.85h8.71Zm-13.79-76.49v60.55c0,3.46-2.81,6.27-6.27,6.27h-1.49c-3.46,0-6.27-2.81-6.27-6.27v-73.63c0-3.46,2.81-6.27,6.27-6.27h1.49c3.46,0,6.27,2.81,6.27,6.27v13.08Z"/>
</svg>